STARTFONT 2.1
COMMENT "$Id: 8x13B.bdf,v 1.28 2002-11-15 18:23:23+00 mgk25 Rel $"
COMMENT "Send bug reports to Markus Kuhn <http://www.cl.cam.ac.uk/~mgk25/>"
FONT -Misc-Fixed-Bold-R-Normal--13-120-75-75-C-80-ISO10646-1
SIZE 52 78 78
FONTBOUNDINGBOX 32 52 0 -8
STARTPROPERTIES 22
FONTNAME_REGISTRY ""
FOUNDRY "Misc"
FAMILY_NAME "Fixed"
WEIGHT_NAME "Bold"
SLANT "R"
SETWIDTH_NAME "Normal"
ADD_STYLE_NAME ""
PIXEL_SIZE 52
POINT_SIZE 480
RESOLUTION_X 75
RESOLUTION_Y 75
SPACING "C"
AVERAGE_WIDTH 320
CHARSET_REGISTRY "ISO10646"
CHARSET_ENCODING "1"
DEFAULT_CHAR 0
FONT_DESCENT 2
FONT_ASCENT 11
COPYRIGHT "Public domain font.  Share and enjoy."
_XMBDFED_INFO "Edited with xmbdfed 4.5."
CAP_HEIGHT 10
X_HEIGHT 7
ENDPROPERTIES
CHARS 1141
STARTCHAR char0
ENCODING 0
SWIDTH 568 0
DWIDTH 32 0
BBX 32 52 0 -8
BITMAP
00000000
00000000
00000000
00000000
f0f0f0f0
f0f0f0f0
f0f0f0f0
f0f0f0f0
f0f0f0f0
f0f0f0f0
f0f0f0f0
f0f0f0f0
00000000
00000000
00000000
00000000
f00000f0
f00000f0
f00000f0
f00000f0
f00000f0
f00000f0
f00000f0
f00000f0
00000000
00000000
00000000
00000000
f00000f0
f00000f0
f00000f0
f00000f0
f00000f0
f00000f0
f00000f0
f00000f0
00000000
00000000
00000000
00000000
f0f0f0f0
f0f0f0f0
f0f0f0f0
f0f0f0f0
f0f0f0f0
f0f0f0f0
f0f0f0f0
f0f0f0f0
00000000
00000000
00000000
00000000
ENDCHAR
STARTCHAR space
ENCODING 32
SWIDTH 568 0
DWIDTH 32 0
BBX 32 52 0 -8
BITMAP
00000000
00000000
00000000
00000000
00000000
00000000
00000000
00000000
00000000
00000000
00000000
00000000
00000000
00000000
00000000
00000000
00000000
00000000
00000000
00000000
00000000
00000000
00000000
00000000
00000000
00000000
00000000
00000000
00000000
00000000
00000000
00000000
00000000
00000000
00000000
00000000
00000000
00000000
00000000
00000000
00000000
00000000
00000000
00000000
00000000
00000000
00000000
00000000
00000000
00000000
00000000
00000000
ENDCHAR
STARTCHAR exclam
ENCODING 33
SWIDTH 568 0
DWIDTH 32 0
BBX 32 52 0 -8
BITMAP
00000000
00000000
00000000
00000000
000ff000
000ff000
000ff000
000ff000
000ff000
000ff000
000ff000
000ff000
000ff000
000ff000
000ff000
000ff000
000ff000
000ff000
000ff000
000ff000
000ff000
000ff000
000ff000
000ff000
000ff000
000ff000
000ff000
000ff000
000ff000
000ff000
000ff000
000ff000
00000000
00000000
00000000
00000000
000ff000
000ff000
000ff000
000ff000
000ff000
000ff000
000ff000
000ff000
00000000
00000000
00000000
00000000
00000000
00000000
00000000
00000000
ENDCHAR
STARTCHAR quotedbl
ENCODING 34
SWIDTH 568 0
DWIDTH 32 0
BBX 32 52 0 -8
BITMAP
00000000
00000000
00000000
00000000
0ff0ff00
0ff0ff00
0ff0ff00
0ff0ff00
0ff0ff00
0ff0ff00
0ff0ff00
0ff0ff00
0ff0ff00
0ff0ff00
0ff0ff00
0ff0ff00
0ff0ff00
0ff0ff00
0ff0ff00
0ff0ff00
00000000
00000000
00000000
00000000
00000000
00000000
00000000
00000000
00000000
00000000
00000000
00000000
00000000
00000000
00000000
00000000
00000000
00000000
00000000
00000000
00000000
00000000
00000000
00000000
00000000
00000000
00000000
00000000
00000000
00000000
00000000
00000000
ENDCHAR
STARTCHAR numbersign
ENCODING 35
SWIDTH 568 0
DWIDTH 32 0
BBX 32 52 0 -8
BITMAP
00000000
00000000
00000000
00000000
00000000
00000000
00000000
00000000
0ff0ff00
0ff0ff00
0ff0ff00
0ff0ff00
0ff0ff00
0ff0ff00
0ff0ff00
0ff0ff00
fffffff0
fffffff0
fffffff0
fffffff0
fffffff0
fffffff0
fffffff0
fffffff0
0ff0ff00
0ff0ff00
0ff0ff00
0ff0ff00
fffffff0
fffffff0
fffffff0
fffffff0
fffffff0
fffffff0
fffffff0
fffffff0
0ff0ff00
0ff0ff00
0ff0ff00
0ff0ff00
0ff0ff00
0ff0ff00
0ff0ff00
0ff0ff00
00000000
00000000
00000000
00000000
00000000
00000000
00000000
00000000
ENDCHAR
STARTCHAR dollar
ENCODING 36
SWIDTH 568 0
DWIDTH 32 0
BBX 32 52 0 -8
BITMAP
00000000
00000000
00000000
00000000
000f0000
000f0000
000f0000
000f0000
0fffff00
0fffff00
0fffff00
0fffff00
ff0f0ff0
ff0f0ff0
ff0f0ff0
ff0f0ff0
ff0f0000
ff0f0000
ff0f0000
ff0f0000
ffff0000
ffff0000
ffff0000
ffff0000
0fffff00
0fffff00
0fffff00
0fffff00
000ffff0
000ffff0
000ffff0
000ffff0
000f0ff0
000f0ff0
000f0ff0
000f0ff0
ff0f0ff0
ff0f0ff0
ff0f0ff0
ff0f0ff0
0fffff00
0fffff00
0fffff00
0fffff00
000f0000
000f0000
000f0000
000f0000
00000000
00000000
00000000
00000000
ENDCHAR
STARTCHAR percent
ENCODING 37
SWIDTH 568 0
DWIDTH 32 0
BBX 32 52 0 -8
BITMAP
00000000
00000000
00000000
00000000
fff00ff0
fff00ff0
fff00ff0
fff00ff0
f0f00ff0
f0f00ff0
f0f00ff0
f0f00ff0
fff0ff00
fff0ff00
fff0ff00
fff0ff00
000ff000
000ff000
000ff000
000ff000
000ff000
000ff000
000ff000
000ff000
00ff0000
00ff0000
00ff0000
00ff0000
00ff0000
00ff0000
00ff0000
00ff0000
0ff0fff0
0ff0fff0
0ff0fff0
0ff0fff0
ff00f0f0
ff00f0f0
ff00f0f0
ff00f0f0
ff00fff0
ff00fff0
ff00fff0
ff00fff0
00000000
00000000
00000000
00000000
00000000
00000000
00000000
00000000
ENDCHAR
STARTCHAR ampersand
ENCODING 38
SWIDTH 568 0
DWIDTH 32 0
BBX 32 52 0 -8
BITMAP
00000000
00000000
00000000
00000000
00000000
00000000
00000000
00000000
00000000
00000000
00000000
00000000
00000000
00000000
00000000
00000000
0ffff000
0ffff000
0ffff000
0ffff000
ff00ff00
ff00ff00
ff00ff00
ff00ff00
ff00ff00
ff00ff00
ff00ff00
ff00ff00
0ffff000
0ffff000
0ffff000
0ffff000
ff00fff0
ff00fff0
ff00fff0
ff00fff0
ff00ff00
ff00ff00
ff00ff00
ff00ff00
0ffffff0
0ffffff0
0ffffff0
0ffffff0
00000000
00000000
00000000
00000000
00000000
00000000
00000000
00000000
ENDCHAR
STARTCHAR quotesingle
ENCODING 39
SWIDTH 568 0
DWIDTH 32 0
BBX 32 52 0 -8
BITMAP
00000000
00000000
00000000
00000000
000ff000
000ff000
000ff000
000ff000
000ff000
000ff000
000ff000
000ff000
000ff000
000ff000
000ff000
000ff000
000ff000
000ff000
000ff000
000ff000
00000000
00000000
00000000
00000000
00000000
00000000
00000000
00000000
00000000
00000000
00000000
00000000
00000000
00000000
00000000
00000000
00000000
00000000
00000000
00000000
00000000
00000000
00000000
00000000
00000000
00000000
00000000
00000000
00000000
00000000
00000000
00000000
ENDCHAR
STARTCHAR parenleft
ENCODING 40
SWIDTH 568 0
DWIDTH 32 0
BBX 32 52 0 -8
BITMAP
00000000
00000000
00000000
00000000
0000ff00
0000ff00
0000ff00
0000ff00
000ff000
000ff000
000ff000
000ff000
00ff0000
00ff0000
00ff0000
00ff0000
00ff0000
00ff0000
00ff0000
00ff0000
0ff00000
0ff00000
0ff00000
0ff00000
0ff00000
0ff00000
0ff00000
0ff00000
0ff00000
0ff00000
0ff00000
0ff00000
00ff0000
00ff0000
00ff0000
00ff0000
00ff0000
00ff0000
00ff0000
00ff0000
000ff000
000ff000
000ff000
000ff000
0000ff00
0000ff00
0000ff00
0000ff00
00000000
00000000
00000000
00000000
ENDCHAR
STARTCHAR parenright
ENCODING 41
SWIDTH 568 0
DWIDTH 32 0
BBX 32 52 0 -8
BITMAP
00000000
00000000
00000000
00000000
0ff00000
0ff00000
0ff00000
0ff00000
00ff0000
00ff0000
00ff0000
00ff0000
000ff000
000ff000
000ff000
000ff000
000ff000
000ff000
000ff000
000ff000
0000ff00
0000ff00
0000ff00
0000ff00
0000ff00
0000ff00
0000ff00
0000ff00
0000ff00
0000ff00
0000ff00
0000ff00
000ff000
000ff000
000ff000
000ff000
000ff000
000ff000
000ff000
000ff000
00ff0000
00ff0000
00ff0000
00ff0000
0ff00000
0ff00000
0ff00000
0ff00000
00000000
00000000
00000000
00000000
ENDCHAR
STARTCHAR asterisk
ENCODING 42
SWIDTH 568 0
DWIDTH 32 0
BBX 32 52 0 -8
BITMAP
00000000
00000000
00000000
00000000
00000000
00000000
00000000
00000000
00000000
00000000
00000000
00000000
000f0000
000f0000
000f0000
000f0000
000f0000
000f0000
000f0000
000f0000
fffffff0
fffffff0
fffffff0
fffffff0
00fff000
00fff000
00fff000
00fff000
00fff000
00fff000
00fff000
00fff000
0ff0ff00
0ff0ff00
0ff0ff00
0ff0ff00
0f000f00
0f000f00
0f000f00
0f000f00
00000000
00000000
00000000
00000000
00000000
00000000
00000000
00000000
00000000
00000000
00000000
00000000
ENDCHAR
STARTCHAR plus
ENCODING 43
SWIDTH 568 0
DWIDTH 32 0
BBX 32 52 0 -8
BITMAP
00000000
00000000
00000000
00000000
00000000
00000000
00000000
00000000
00000000
00000000
00000000
00000000
000ff000
000ff000
000ff000
000ff000
000ff000
000ff000
000ff000
000ff000
0ffffff0
0ffffff0
0ffffff0
0ffffff0
0ffffff0
0ffffff0
0ffffff0
0ffffff0
000ff000
000ff000
000ff000
000ff000
000ff000
000ff000
000ff000
000ff000
00000000
00000000
00000000
00000000
00000000
00000000
00000000
00000000
00000000
00000000
00000000
00000000
00000000
00000000
00000000
00000000
ENDCHAR
STARTCHAR comma
ENCODING 44
SWIDTH 568 0
DWIDTH 32 0
BBX 32 52 0 -8
BITMAP
00000000
00000000
00000000
00000000
00000000
00000000
00000000
00000000
00000000
00000000
00000000
00000000
00000000
00000000
00000000
00000000
00000000
00000000
00000000
00000000
00000000
00000000
00000000
00000000
00000000
00000000
00000000
00000000
00ffff00
00ffff00
00ffff00
00ffff00
000fff00
000fff00
000fff00
000fff00
000fff00
000fff00
000fff00
000fff00
000ff000
000ff000
000ff000
000ff000
00ff0000
00ff0000
00ff0000
00ff0000
00000000
00000000
00000000
00000000
ENDCHAR
STARTCHAR hyphen
ENCODING 45
SWIDTH 568 0
DWIDTH 32 0
BBX 32 52 0 -8
BITMAP
00000000
00000000
00000000
00000000
00000000
00000000
00000000
00000000
00000000
00000000
00000000
00000000
00000000
00000000
00000000
00000000
00000000
00000000
00000000
00000000
00000000
00000000
00000000
00000000
0ffffff0
0ffffff0
0ffffff0
0ffffff0
00000000
00000000
00000000
00000000
00000000
00000000
00000000
00000000
00000000
00000000
00000000
00000000
00000000
00000000
00000000
00000000
00000000
00000000
00000000
00000000
00000000
00000000
00000000
00000000
ENDCHAR
STARTCHAR period
ENCODING 46
SWIDTH 568 0
DWIDTH 32 0
BBX 32 52 0 -8
BITMAP
00000000
00000000
00000000
00000000
00000000
00000000
00000000
00000000
00000000
00000000
00000000
00000000
00000000
00000000
00000000
00000000
00000000
00000000
00000000
00000000
00000000
00000000
00000000
00000000
00000000
00000000
00000000
00000000
00000000
00000000
00000000
00000000
000ff000
000ff000
000ff000
000ff000
00ffff00
00ffff00
00ffff00
00ffff00
000ff000
000ff000
000ff000
000ff000
00000000
00000000
00000000
00000000
00000000
00000000
00000000
00000000
ENDCHAR
STARTCHAR slash
ENCODING 47
SWIDTH 568 0
DWIDTH 32 0
BBX 32 52 0 -8
BITMAP
00000000
00000000
00000000
00000000
000000f0
000000f0
000000f0
000000f0
00000ff0
00000ff0
00000ff0
00000ff0
00000ff0
00000ff0
00000ff0
00000ff0
0000ff00
0000ff00
0000ff00
0000ff00
000ff000
000ff000
000ff000
000ff000
00ff0000
00ff0000
00ff0000
00ff0000
0ff00000
0ff00000
0ff00000
0ff00000
ff000000
ff000000
ff000000
ff000000
ff000000
ff000000
ff000000
ff000000
f0000000
f0000000
f0000000
f0000000
00000000
00000000
00000000
00000000
00000000
00000000
00000000
00000000
ENDCHAR
STARTCHAR zero
ENCODING 48
SWIDTH 568 0
DWIDTH 32 0
BBX 32 52 0 -8
BITMAP
00000000
00000000
00000000
00000000
00fff000
00fff000
00fff000
00fff000
0ff0ff00
0ff0ff00
0ff0ff00
0ff0ff00
ff000ff0
ff000ff0
ff000ff0
ff000ff0
ff000ff0
ff000ff0
ff000ff0
ff000ff0
ff000ff0
ff000ff0
ff000ff0
ff000ff0
ff000ff0
ff000ff0
ff000ff0
ff000ff0
ff000ff0
ff000ff0
ff000ff0
ff000ff0
ff000ff0
ff000ff0
ff000ff0
ff000ff0
0ff0ff00
0ff0ff00
0ff0ff00
0ff0ff00
00fff000
00fff000
00fff000
00fff000
00000000
00000000
00000000
00000000
00000000
00000000
00000000
00000000
ENDCHAR
STARTCHAR one
ENCODING 49
SWIDTH 568 0
DWIDTH 32 0
BBX 32 52 0 -8
BITMAP
00000000
00000000
00000000
00000000
000ff000
000ff000
000ff000
000ff000
00fff000
00fff000
00fff000
00fff000
0ffff000
0ffff000
0ffff000
0ffff000
000ff000
000ff000
000ff000
000ff000
000ff000
000ff000
000ff000
000ff000
000ff000
000ff000
000ff000
000ff000
000ff000
000ff000
000ff000
000ff000
000ff000
000ff000
000ff000
000ff000
000ff000
000ff000
000ff000
000ff000
0ffffff0
0ffffff0
0ffffff0
0ffffff0
00000000
00000000
00000000
00000000
00000000
00000000
00000000
00000000
ENDCHAR
STARTCHAR two
ENCODING 50
SWIDTH 568 0
DWIDTH 32 0
BBX 32 52 0 -8
BITMAP
00000000
00000000
00000000
00000000
0fffff00
0fffff00
0fffff00
0fffff00
ff000ff0
ff000ff0
ff000ff0
ff000ff0
ff000ff0
ff000ff0
ff000ff0
ff000ff0
00000ff0
00000ff0
00000ff0
00000ff0
0000ff00
0000ff00
0000ff00
0000ff00
000ff000
000ff000
000ff000
000ff000
00ff0000
00ff0000
00ff0000
00ff0000
0ff00000
0ff00000
0ff00000
0ff00000
ff000000
ff000000
ff000000
ff000000
fffffff0
fffffff0
fffffff0
fffffff0
00000000
00000000
00000000
00000000
00000000
00000000
00000000
00000000
ENDCHAR
STARTCHAR three
ENCODING 51
SWIDTH 568 0
DWIDTH 32 0
BBX 32 52 0 -8
BITMAP
00000000
00000000
00000000
00000000
fffffff0
fffffff0
fffffff0
fffffff0
00000ff0
00000ff0
00000ff0
00000ff0
0000ff00
0000ff00
0000ff00
0000ff00
000ff000
000ff000
000ff000
000ff000
00ffff00
00ffff00
00ffff00
00ffff00
00000ff0
00000ff0
00000ff0
00000ff0
00000ff0
00000ff0
00000ff0
00000ff0
00000ff0
00000ff0
00000ff0
00000ff0
ff000ff0
ff000ff0
ff000ff0
ff000ff0
0fffff00
0fffff00
0fffff00
0fffff00
00000000
00000000
00000000
00000000
00000000
00000000
00000000
00000000
ENDCHAR
STARTCHAR four
ENCODING 52
SWIDTH 568 0
DWIDTH 32 0
BBX 32 52 0 -8
BITMAP
00000000
00000000
00000000
00000000
0000ff00
0000ff00
0000ff00
0000ff00
000fff00
000fff00
000fff00
000fff00
00ffff00
00ffff00
00ffff00
00ffff00
0ff0ff00
0ff0ff00
0ff0ff00
0ff0ff00
ff00ff00
ff00ff00
ff00ff00
ff00ff00
ff00ff00
ff00ff00
ff00ff00
ff00ff00
fffffff0
fffffff0
fffffff0
fffffff0
0000ff00
0000ff00
0000ff00
0000ff00
0000ff00
0000ff00
0000ff00
0000ff00
0000ff00
0000ff00
0000ff00
0000ff00
00000000
00000000
00000000
00000000
00000000
00000000
00000000
00000000
ENDCHAR
STARTCHAR five
ENCODING 53
SWIDTH 568 0
DWIDTH 32 0
BBX 32 52 0 -8
BITMAP
00000000
00000000
00000000
00000000
fffffff0
fffffff0
fffffff0
fffffff0
ff000000
ff000000
ff000000
ff000000
ff000000
ff000000
ff000000
ff000000
ffffff00
ffffff00
ffffff00
ffffff00
fff00ff0
fff00ff0
fff00ff0
fff00ff0
00000ff0
00000ff0
00000ff0
00000ff0
00000ff0
00000ff0
00000ff0
00000ff0
00000ff0
00000ff0
00000ff0
00000ff0
ff000ff0
ff000ff0
ff000ff0
ff000ff0
0fffff00
0fffff00
0fffff00
0fffff00
00000000
00000000
00000000
00000000
00000000
00000000
00000000
00000000
ENDCHAR
STARTCHAR six
ENCODING 54
SWIDTH 568 0
DWIDTH 32 0
BBX 32 52 0 -8
BITMAP
00000000
00000000
00000000
00000000
00ffff00
00ffff00
00ffff00
00ffff00
0ff00000
0ff00000
0ff00000
0ff00000
ff000000
ff000000
ff000000
ff000000
ff000000
ff000000
ff000000
ff000000
ffffff00
ffffff00
ffffff00
ffffff00
fff00ff0
fff00ff0
fff00ff0
fff00ff0
ff000ff0
ff000ff0
ff000ff0
ff000ff0
ff000ff0
ff000ff0
ff000ff0
ff000ff0
fff00ff0
fff00ff0
fff00ff0
fff00ff0
0fffff00
0fffff00
0fffff00
0fffff00
00000000
00000000
00000000
00000000
00000000
00000000
00000000
00000000
ENDCHAR
STARTCHAR seven
ENCODING 55
SWIDTH 568 0
DWIDTH 32 0
BBX 32 52 0 -8
BITMAP
00000000
00000000
00000000
00000000
fffffff0
fffffff0
fffffff0
fffffff0
00000ff0
00000ff0
00000ff0
00000ff0
00000ff0
00000ff0
00000ff0
00000ff0
0000ff00
0000ff00
0000ff00
0000ff00
000ff000
000ff000
000ff000
000ff000
000ff000
000ff000
000ff000
000ff000
00ff0000
00ff0000
00ff0000
00ff0000
00ff0000
00ff0000
00ff0000
00ff0000
00ff0000
00ff0000
00ff0000
00ff0000
00ff0000
00ff0000
00ff0000
00ff0000
00000000
00000000
00000000
00000000
00000000
00000000
00000000
00000000
ENDCHAR
STARTCHAR eight
ENCODING 56
SWIDTH 568 0
DWIDTH 32 0
BBX 32 52 0 -8
BITMAP
00000000
00000000
00000000
00000000
0fffff00
0fffff00
0fffff00
0fffff00
ff000ff0
ff000ff0
ff000ff0
ff000ff0
ff000ff0
ff000ff0
ff000ff0
ff000ff0
ff000ff0
ff000ff0
ff000ff0
ff000ff0
0fffff00
0fffff00
0fffff00
0fffff00
ff000ff0
ff000ff0
ff000ff0
ff000ff0
ff000ff0
ff000ff0
ff000ff0
ff000ff0
ff000ff0
ff000ff0
ff000ff0
ff000ff0
ff000ff0
ff000ff0
ff000ff0
ff000ff0
0fffff00
0fffff00
0fffff00
0fffff00
00000000
00000000
00000000
00000000
00000000
00000000
00000000
00000000
ENDCHAR
STARTCHAR nine
ENCODING 57
SWIDTH 568 0
DWIDTH 32 0
BBX 32 52 0 -8
BITMAP
00000000
00000000
00000000
00000000
0fffff00
0fffff00
0fffff00
0fffff00
ff00fff0
ff00fff0
ff00fff0
ff00fff0
ff000ff0
ff000ff0
ff000ff0
ff000ff0
ff000ff0
ff000ff0
ff000ff0
ff000ff0
ff00fff0
ff00fff0
ff00fff0
ff00fff0
0ffffff0
0ffffff0
0ffffff0
0ffffff0
00000ff0
00000ff0
00000ff0
00000ff0
00000ff0
00000ff0
00000ff0
00000ff0
0000ff00
0000ff00
0000ff00
0000ff00
0ffff000
0ffff000
0ffff000
0ffff000
00000000
00000000
00000000
00000000
00000000
00000000
00000000
00000000
ENDCHAR
STARTCHAR colon
ENCODING 58
SWIDTH 568 0
DWIDTH 32 0
BBX 32 52 0 -8
BITMAP
00000000
00000000
00000000
00000000
00000000
00000000
00000000
00000000
00000000
00000000
00000000
00000000
000ff000
000ff000
000ff000
000ff000
00ffff00
00ffff00
00ffff00
00ffff00
000ff000
000ff000
000ff000
000ff000
00000000
00000000
00000000
00000000
00000000
00000000
00000000
00000000
000ff000
000ff000
000ff000
000ff000
00ffff00
00ffff00
00ffff00
00ffff00
000ff000
000ff000
000ff000
000ff000
00000000
00000000
00000000
00000000
00000000
00000000
00000000
00000000
ENDCHAR
STARTCHAR semicolon
ENCODING 59
SWIDTH 568 0
DWIDTH 32 0
BBX 32 52 0 -8
BITMAP
00000000
00000000
00000000
00000000
00000000
00000000
00000000
00000000
00000000
00000000
00000000
00000000
000ff000
000ff000
000ff000
000ff000
00ffff00
00ffff00
00ffff00
00ffff00
000ff000
000ff000
000ff000
000ff000
00000000
00000000
00000000
00000000
00ffff00
00ffff00
00ffff00
00ffff00
000fff00
000fff00
000fff00
000fff00
000fff00
000fff00
000fff00
000fff00
000ff000
000ff000
000ff000
000ff000
00ff0000
00ff0000
00ff0000
00ff0000
00000000
00000000
00000000
00000000
ENDCHAR
STARTCHAR less
ENCODING 60
SWIDTH 568 0
DWIDTH 32 0
BBX 32 52 0 -8
BITMAP
00000000
00000000
00000000
00000000
00000000
00000000
00000000
00000000
00000ff0
00000ff0
00000ff0
00000ff0
0000ff00
0000ff00
0000ff00
0000ff00
000ff000
000ff000
000ff000
000ff000
00ff0000
00ff0000
00ff0000
00ff0000
0ff00000
0ff00000
0ff00000
0ff00000
00ff0000
00ff0000
00ff0000
00ff0000
000ff000
000ff000
000ff000
000ff000
0000ff00
0000ff00
0000ff00
0000ff00
00000ff0
00000ff0
00000ff0
00000ff0
00000000
00000000
00000000
00000000
00000000
00000000
00000000
00000000
ENDCHAR
STARTCHAR equal
ENCODING 61
SWIDTH 568 0
DWIDTH 32 0
BBX 32 52 0 -8
BITMAP
00000000
00000000
00000000
00000000
00000000
00000000
00000000
00000000
00000000
00000000
00000000
00000000
00000000
00000000
00000000
00000000
00000000
00000000
00000000
00000000
0ffffff0
0ffffff0
0ffffff0
0ffffff0
00000000
00000000
00000000
00000000
00000000
00000000
00000000
00000000
0ffffff0
0ffffff0
0ffffff0
0ffffff0
00000000
00000000
00000000
00000000
00000000
00000000
00000000
00000000
00000000
00000000
00000000
00000000
00000000
00000000
00000000
00000000
ENDCHAR
STARTCHAR greater
ENCODING 62
SWIDTH 568 0
DWIDTH 32 0
BBX 32 52 0 -8
BITMAP
00000000
00000000
00000000
00000000
00000000
00000000
00000000
00000000
0ff00000
0ff00000
0ff00000
0ff00000
00ff0000
00ff0000
00ff0000
00ff0000
000ff000
000ff000
000ff000
000ff000
0000ff00
0000ff00
0000ff00
0000ff00
00000ff0
00000ff0
00000ff0
00000ff0
0000ff00
0000ff00
0000ff00
0000ff00
000ff000
000ff000
000ff000
000ff000
00ff0000
00ff0000
00ff0000
00ff0000
0ff00000
0ff00000
0ff00000
0ff00000
00000000
00000000
00000000
00000000
00000000
00000000
00000000
00000000
ENDCHAR
STARTCHAR question
ENCODING 63
SWIDTH 568 0
DWIDTH 32 0
BBX 32 52 0 -8
BITMAP
00000000
00000000
00000000
00000000
0fffff00
0fffff00
0fffff00
0fffff00
ff000ff0
ff000ff0
ff000ff0
ff000ff0
ff000ff0
ff000ff0
ff000ff0
ff000ff0
00000ff0
00000ff0
00000ff0
00000ff0
0000ff00
0000ff00
0000ff00
0000ff00
000ff000
000ff000
000ff000
000ff000
000ff000
000ff000
000ff000
000ff000
00000000
00000000
00000000
00000000
000ff000
000ff000
000ff000
000ff000
000ff000
000ff000
000ff000
000ff000
00000000
00000000
00000000
00000000
00000000
00000000
00000000
00000000
ENDCHAR
STARTCHAR at
ENCODING 64
SWIDTH 568 0
DWIDTH 32 0
BBX 32 52 0 -8
BITMAP
00000000
00000000
00000000
00000000
00000000
00000000
00000000
00000000
0fffff00
0fffff00
0fffff00
0fffff00
fffffff0
fffffff0
fffffff0
fffffff0
ff00fff0
ff00fff0
ff00fff0
ff00fff0
ff0ffff0
ff0ffff0
ff0ffff0
ff0ffff0
ff0f00f0
ff0f00f0
ff0f00f0
ff0f00f0
ff0f00f0
ff0f00f0
ff0f00f0
ff0f00f0
ff0ffff0
ff0ffff0
ff0ffff0
ff0ffff0
fff00000
fff00000
fff00000
fff00000
0ffffff0
0ffffff0
0ffffff0
0ffffff0
00000000
00000000
00000000
00000000
00000000
00000000
00000000
00000000
ENDCHAR
STARTCHAR A
ENCODING 65
SWIDTH 568 0
DWIDTH 32 0
BBX 32 52 0 -8
BITMAP
00000000
00000000
00000000
00000000
00fff000
00fff000
00fff000
00fff000
0fffff00
0fffff00
0fffff00
0fffff00
ff000ff0
ff000ff0
ff000ff0
ff000ff0
ff000ff0
ff000ff0
ff000ff0
ff000ff0
ff000ff0
ff000ff0
ff000ff0
ff000ff0
fffffff0
fffffff0
fffffff0
fffffff0
ff000ff0
ff000ff0
ff000ff0
ff000ff0
ff000ff0
ff000ff0
ff000ff0
ff000ff0
ff000ff0
ff000ff0
ff000ff0
ff000ff0
ff000ff0
ff000ff0
ff000ff0
ff000ff0
00000000
00000000
00000000
00000000
00000000
00000000
00000000
00000000
ENDCHAR
STARTCHAR B
ENCODING 66
SWIDTH 568 0
DWIDTH 32 0
BBX 32 52 0 -8
BITMAP
00000000
00000000
00000000
00000000
ffffff00
ffffff00
ffffff00
ffffff00
0ff00ff0
0ff00ff0
0ff00ff0
0ff00ff0
0ff00ff0
0ff00ff0
0ff00ff0
0ff00ff0
0ff00ff0
0ff00ff0
0ff00ff0
0ff00ff0
0fffff00
0fffff00
0fffff00
0fffff00
0ff00ff0
0ff00ff0
0ff00ff0
0ff00ff0
0ff00ff0
0ff00ff0
0ff00ff0
0ff00ff0
0ff00ff0
0ff00ff0
0ff00ff0
0ff00ff0
0ff00ff0
0ff00ff0
0ff00ff0
0ff00ff0
ffffff00
ffffff00
ffffff00
ffffff00
00000000
00000000
00000000
00000000
00000000
00000000
00000000
00000000
ENDCHAR
STARTCHAR C
ENCODING 67
SWIDTH 568 0
DWIDTH 32 0
BBX 32 52 0 -8
BITMAP
00000000
00000000
00000000
00000000
0fffff00
0fffff00
0fffff00
0fffff00
fff00ff0
fff00ff0
fff00ff0
fff00ff0
ff000ff0
ff000ff0
ff000ff0
ff000ff0
ff000000
ff000000
ff000000
ff000000
ff000000
ff000000
ff000000
ff000000
ff000000
ff000000
ff000000
ff000000
ff000000
ff000000
ff000000
ff000000
ff000ff0
ff000ff0
ff000ff0
ff000ff0
fff00ff0
fff00ff0
fff00ff0
fff00ff0
0fffff00
0fffff00
0fffff00
0fffff00
00000000
00000000
00000000
00000000
00000000
00000000
00000000
00000000
ENDCHAR
STARTCHAR D
ENCODING 68
SWIDTH 568 0
DWIDTH 32 0
BBX 32 52 0 -8
BITMAP
00000000
00000000
00000000
00000000
ffffff00
ffffff00
ffffff00
ffffff00
0ff00ff0
0ff00ff0
0ff00ff0
0ff00ff0
0ff00ff0
0ff00ff0
0ff00ff0
0ff00ff0
0ff00ff0
0ff00ff0
0ff00ff0
0ff00ff0
0ff00ff0
0ff00ff0
0ff00ff0
0ff00ff0
0ff00ff0
0ff00ff0
0ff00ff0
0ff00ff0
0ff00ff0
0ff00ff0
0ff00ff0
0ff00ff0
0ff00ff0
0ff00ff0
0ff00ff0
0ff00ff0
0ff00ff0
0ff00ff0
0ff00ff0
0ff00ff0
ffffff00
ffffff00
ffffff00
ffffff00
00000000
00000000
00000000
00000000
00000000
00000000
00000000
00000000
ENDCHAR
STARTCHAR E
ENCODING 69
SWIDTH 568 0
DWIDTH 32 0
BBX 32 52 0 -8
BITMAP
00000000
00000000
00000000
00000000
fffffff0
fffffff0
fffffff0
fffffff0
ff000000
ff000000
ff000000
ff000000
ff000000
ff000000
ff000000
ff000000
ff000000
ff000000
ff000000
ff000000
fffff000
fffff000
fffff000
fffff000
ff000000
ff000000
ff000000
ff000000
ff000000
ff000000
ff000000
ff000000
ff000000
ff000000
ff000000
ff000000
ff000000
ff000000
ff000000
ff000000
fffffff0
fffffff0
fffffff0
fffffff0
00000000
00000000
00000000
00000000
00000000
00000000
00000000
00000000
ENDCHAR
STARTCHAR F
ENCODING 70
SWIDTH 568 0
DWIDTH 32 0
BBX 32 52 0 -8
BITMAP
00000000
00000000
00000000
00000000
fffffff0
fffffff0
fffffff0
fffffff0
ff000000
ff000000
ff000000
ff000000
ff000000
ff000000
ff000000
ff000000
ff000000
ff000000
ff000000
ff000000
fffff000
fffff000
fffff000
fffff000
ff000000
ff000000
ff000000
ff000000
ff000000
ff000000
ff000000
ff000000
ff000000
ff000000
ff000000
ff000000
ff000000
ff000000
ff000000
ff000000
ff000000
ff000000
ff000000
ff000000
00000000
00000000
00000000
00000000
00000000
00000000
00000000
00000000
ENDCHAR
STARTCHAR G
ENCODING 71
SWIDTH 568 0
DWIDTH 32 0
BBX 32 52 0 -8
BITMAP
00000000
00000000
00000000
00000000
0fffff00
0fffff00
0fffff00
0fffff00
ff000ff0
ff000ff0
ff000ff0
ff000ff0
ff000ff0
ff000ff0
ff000ff0
ff000ff0
ff000000
ff000000
ff000000
ff000000
ff000000
ff000000
ff000000
ff000000
ff000000
ff000000
ff000000
ff000000
ff00fff0
ff00fff0
ff00fff0
ff00fff0
ff000ff0
ff000ff0
ff000ff0
ff000ff0
ff000ff0
ff000ff0
ff000ff0
ff000ff0
0fffff00
0fffff00
0fffff00
0fffff00
00000000
00000000
00000000
00000000
00000000
00000000
00000000
00000000
ENDCHAR
STARTCHAR H
ENCODING 72
SWIDTH 568 0
DWIDTH 32 0
BBX 32 52 0 -8
BITMAP
00000000
00000000
00000000
00000000
ff000ff0
ff000ff0
ff000ff0
ff000ff0
ff000ff0
ff000ff0
ff000ff0
ff000ff0
ff000ff0
ff000ff0
ff000ff0
ff000ff0
ff000ff0
ff000ff0
ff000ff0
ff000ff0
fffffff0
fffffff0
fffffff0
fffffff0
ff000ff0
ff000ff0
ff000ff0
ff000ff0
ff000ff0
ff000ff0
ff000ff0
ff000ff0
ff000ff0
ff000ff0
ff000ff0
ff000ff0
ff000ff0
ff000ff0
ff000ff0
ff000ff0
ff000ff0
ff000ff0
ff000ff0
ff000ff0
00000000
00000000
00000000
00000000
00000000
00000000
00000000
00000000
ENDCHAR
STARTCHAR I
ENCODING 73
SWIDTH 568 0
DWIDTH 32 0
BBX 32 52 0 -8
BITMAP
00000000
00000000
00000000
00000000
00ffff00
00ffff00
00ffff00
00ffff00
000ff000
000ff000
000ff000
000ff000
000ff000
000ff000
000ff000
000ff000
000ff000
000ff000
000ff000
000ff000
000ff000
000ff000
000ff000
000ff000
000ff000
000ff000
000ff000
000ff000
000ff000
000ff000
000ff000
000ff000
000ff000
000ff000
000ff000
000ff000
000ff000
000ff000
000ff000
000ff000
00ffff00
00ffff00
00ffff00
00ffff00
00000000
00000000
00000000
00000000
00000000
00000000
00000000
00000000
ENDCHAR
STARTCHAR J
ENCODING 74
SWIDTH 568 0
DWIDTH 32 0
BBX 32 52 0 -8
BITMAP
00000000
00000000
00000000
00000000
0000fff0
0000fff0
0000fff0
0000fff0
00000ff0
00000ff0
00000ff0
00000ff0
00000ff0
00000ff0
00000ff0
00000ff0
00000ff0
00000ff0
00000ff0
00000ff0
00000ff0
00000ff0
00000ff0
00000ff0
00000ff0
00000ff0
00000ff0
00000ff0
00000ff0
00000ff0
00000ff0
00000ff0
ff000ff0
ff000ff0
ff000ff0
ff000ff0
ff000ff0
ff000ff0
ff000ff0
ff000ff0
0fffff00
0fffff00
0fffff00
0fffff00
00000000
00000000
00000000
00000000
00000000
00000000
00000000
00000000
ENDCHAR
STARTCHAR K
ENCODING 75
SWIDTH 568 0
DWIDTH 32 0
BBX 32 52 0 -8
BITMAP
00000000
00000000
00000000
00000000
ff000ff0
ff000ff0
ff000ff0
ff000ff0
ff000ff0
ff000ff0
ff000ff0
ff000ff0
ff00ff00
ff00ff00
ff00ff00
ff00ff00
ff0ff000
ff0ff000
ff0ff000
ff0ff000
ffff0000
ffff0000
ffff0000
ffff0000
ffff0000
ffff0000
ffff0000
ffff0000
ff0ff000
ff0ff000
ff0ff000
ff0ff000
ff00ff00
ff00ff00
ff00ff00
ff00ff00
ff000ff0
ff000ff0
ff000ff0
ff000ff0
ff000ff0
ff000ff0
ff000ff0
ff000ff0
00000000
00000000
00000000
00000000
00000000
00000000
00000000
00000000
ENDCHAR
STARTCHAR L
ENCODING 76
SWIDTH 568 0
DWIDTH 32 0
BBX 32 52 0 -8
BITMAP
00000000
00000000
00000000
00000000
ff000000
ff000000
ff000000
ff000000
ff000000
ff000000
ff000000
ff000000
ff000000
ff000000
ff000000
ff000000
ff000000
ff000000
ff000000
ff000000
ff000000
ff000000
ff000000
ff000000
ff000000
ff000000
ff000000
ff000000
ff000000
ff000000
ff000000
ff000000
ff000000
ff000000
ff000000
ff000000
ff0000f0
ff0000f0
ff0000f0
ff0000f0
fffffff0
fffffff0
fffffff0
fffffff0
00000000
00000000
00000000
00000000
00000000
00000000
00000000
00000000
ENDCHAR
STARTCHAR M
ENCODING 77
SWIDTH 568 0
DWIDTH 32 0
BBX 32 52 0 -8
BITMAP
00000000
00000000
00000000
00000000
ff000ff0
ff000ff0
ff000ff0
ff000ff0
ff000ff0
ff000ff0
ff000ff0
ff000ff0
fff0fff0
fff0fff0
fff0fff0
fff0fff0
fffffff0
fffffff0
fffffff0
fffffff0
ff0f0ff0
ff0f0ff0
ff0f0ff0
ff0f0ff0
ff000ff0
ff000ff0
ff000ff0
ff000ff0
ff000ff0
ff000ff0
ff000ff0
ff000ff0
ff000ff0
ff000ff0
ff000ff0
ff000ff0
ff000ff0
ff000ff0
ff000ff0
ff000ff0
ff000ff0
ff000ff0
ff000ff0
ff000ff0
00000000
00000000
00000000
00000000
00000000
00000000
00000000
00000000
ENDCHAR
STARTCHAR N
ENCODING 78
SWIDTH 568 0
DWIDTH 32 0
BBX 32 52 0 -8
BITMAP
00000000
00000000
00000000
00000000
ff000ff0
ff000ff0
ff000ff0
ff000ff0
ff000ff0
ff000ff0
ff000ff0
ff000ff0
fff00ff0
fff00ff0
fff00ff0
fff00ff0
fff00ff0
fff00ff0
fff00ff0
fff00ff0
ffff0ff0
ffff0ff0
ffff0ff0
ffff0ff0
ff0ffff0
ff0ffff0
ff0ffff0
ff0ffff0
ff00fff0
ff00fff0
ff00fff0
ff00fff0
ff00fff0
ff00fff0
ff00fff0
ff00fff0
ff000ff0
ff000ff0
ff000ff0
ff000ff0
ff000ff0
ff000ff0
ff000ff0
ff000ff0
00000000
00000000
00000000
00000000
00000000
00000000
00000000
00000000
ENDCHAR
STARTCHAR O
ENCODING 79
SWIDTH 568 0
DWIDTH 32 0
BBX 32 52 0 -8
BITMAP
00000000
00000000
00000000
00000000
0fffff00
0fffff00
0fffff00
0fffff00
ff000ff0
ff000ff0
ff000ff0
ff000ff0
ff000ff0
ff000ff0
ff000ff0
ff000ff0
ff000ff0
ff000ff0
ff000ff0
ff000ff0
ff000ff0
ff000ff0
ff000ff0
ff000ff0
ff000ff0
ff000ff0
ff000ff0
ff000ff0
ff000ff0
ff000ff0
ff000ff0
ff000ff0
ff000ff0
ff000ff0
ff000ff0
ff000ff0
ff000ff0
ff000ff0
ff000ff0
ff000ff0
0fffff00
0fffff00
0fffff00
0fffff00
00000000
00000000
00000000
00000000
00000000
00000000
00000000
00000000
ENDCHAR
STARTCHAR P
ENCODING 80
SWIDTH 568 0
DWIDTH 32 0
BBX 32 52 0 -8
BITMAP
00000000
00000000
00000000
00000000
ffffff00
ffffff00
ffffff00
ffffff00
ff000ff0
ff000ff0
ff000ff0
ff000ff0
ff000ff0
ff000ff0
ff000ff0
ff000ff0
ff000ff0
ff000ff0
ff000ff0
ff000ff0
ff000ff0
ff000ff0
ff000ff0
ff000ff0
ffffff00
ffffff00
ffffff00
ffffff00
ff000000
ff000000
ff000000
ff000000
ff000000
ff000000
ff000000
ff000000
ff000000
ff000000
ff000000
ff000000
ff000000
ff000000
ff000000
ff000000
00000000
00000000
00000000
00000000
00000000
00000000
00000000
00000000
ENDCHAR
STARTCHAR Q
ENCODING 81
SWIDTH 568 0
DWIDTH 32 0
BBX 32 52 0 -8
BITMAP
00000000
00000000
00000000
00000000
0fffff00
0fffff00
0fffff00
0fffff00
ff000ff0
ff000ff0
ff000ff0
ff000ff0
ff000ff0
ff000ff0
ff000ff0
ff000ff0
ff000ff0
ff000ff0
ff000ff0
ff000ff0
ff000ff0
ff000ff0
ff000ff0
ff000ff0
ff000ff0
ff000ff0
ff000ff0
ff000ff0
ff000ff0
ff000ff0
ff000ff0
ff000ff0
ff000ff0
ff000ff0
ff000ff0
ff000ff0
ff0ffff0
ff0ffff0
ff0ffff0
ff0ffff0
0fffff00
0fffff00
0fffff00
0fffff00
00000ff0
00000ff0
00000ff0
00000ff0
00000000
00000000
00000000
00000000
ENDCHAR
STARTCHAR R
ENCODING 82
SWIDTH 568 0
DWIDTH 32 0
BBX 32 52 0 -8
BITMAP
00000000
00000000
00000000
00000000
ffffff00
ffffff00
ffffff00
ffffff00
ff000ff0
ff000ff0
ff000ff0
ff000ff0
ff000ff0
ff000ff0
ff000ff0
ff000ff0
ff000ff0
ff000ff0
ff000ff0
ff000ff0
ffffff00
ffffff00
ffffff00
ffffff00
fffff000
fffff000
fffff000
fffff000
ff00ff00
ff00ff00
ff00ff00
ff00ff00
ff00ff00
ff00ff00
ff00ff00
ff00ff00
ff000ff0
ff000ff0
ff000ff0
ff000ff0
ff000ff0
ff000ff0
ff000ff0
ff000ff0
00000000
00000000
00000000
00000000
00000000
00000000
00000000
00000000
ENDCHAR
STARTCHAR S
ENCODING 83
SWIDTH 568 0
DWIDTH 32 0
BBX 32 52 0 -8
BITMAP
00000000
00000000
00000000
00000000
0fffff00
0fffff00
0fffff00
0fffff00
ff000ff0
ff000ff0
ff000ff0
ff000ff0
ff000ff0
ff000ff0
ff000ff0
ff000ff0
ff000000
ff000000
ff000000
ff000000
0fffff00
0fffff00
0fffff00
0fffff00
00000ff0
00000ff0
00000ff0
00000ff0
00000ff0
00000ff0
00000ff0
00000ff0
ff000ff0
ff000ff0
ff000ff0
ff000ff0
ff000ff0
ff000ff0
ff000ff0
ff000ff0
0fffff00
0fffff00
0fffff00
0fffff00
00000000
00000000
00000000
00000000
00000000
00000000
00000000
00000000
ENDCHAR
STARTCHAR T
ENCODING 84
SWIDTH 568 0
DWIDTH 32 0
BBX 32 52 0 -8
BITMAP
00000000
00000000
00000000
00000000
0ffffff0
0ffffff0
0ffffff0
0ffffff0
000ff000
000ff000
000ff000
000ff000
000ff000
000ff000
000ff000
000ff000
000ff000
000ff000
000ff000
000ff000
000ff000
000ff000
000ff000
000ff000
000ff000
000ff000
000ff000
000ff000
000ff000
000ff000
000ff000
000ff000
000ff000
000ff000
000ff000
000ff000
000ff000
000ff000
000ff000
000ff000
000ff000
000ff000
000ff000
000ff000
00000000
00000000
00000000
00000000
00000000
00000000
00000000
00000000
ENDCHAR
STARTCHAR U
ENCODING 85
SWIDTH 568 0
DWIDTH 32 0
BBX 32 52 0 -8
BITMAP
00000000
00000000
00000000
00000000
ff000ff0
ff000ff0
ff000ff0
ff000ff0
ff000ff0
ff000ff0
ff000ff0
ff000ff0
ff000ff0
ff000ff0
ff000ff0
ff000ff0
ff000ff0
ff000ff0
ff000ff0
ff000ff0
ff000ff0
ff000ff0
ff000ff0
ff000ff0
ff000ff0
ff000ff0
ff000ff0
ff000ff0
ff000ff0
ff000ff0
ff000ff0
ff000ff0
ff000ff0
ff000ff0
ff000ff0
ff000ff0
ff000ff0
ff000ff0
ff000ff0
ff000ff0
0fffff00
0fffff00
0fffff00
0fffff00
00000000
00000000
00000000
00000000
00000000
00000000
00000000
00000000
ENDCHAR
STARTCHAR V
ENCODING 86
SWIDTH 568 0
DWIDTH 32 0
BBX 32 52 0 -8
BITMAP
00000000
00000000
00000000
00000000
ff000ff0
ff000ff0
ff000ff0
ff000ff0
ff000ff0
ff000ff0
ff000ff0
ff000ff0
ff000ff0
ff000ff0
ff000ff0
ff000ff0
ff000ff0
ff000ff0
ff000ff0
ff000ff0
0f000f00
0f000f00
0f000f00
0f000f00
0ff0ff00
0ff0ff00
0ff0ff00
0ff0ff00
0ff0ff00
0ff0ff00
0ff0ff00
0ff0ff00
00fff000
00fff000
00fff000
00fff000
00fff000
00fff000
00fff000
00fff000
000f0000
000f0000
000f0000
000f0000
00000000
00000000
00000000
00000000
00000000
00000000
00000000
00000000
ENDCHAR
STARTCHAR W
ENCODING 87
SWIDTH 568 0
DWIDTH 32 0
BBX 32 52 0 -8
BITMAP
00000000
00000000
00000000
00000000
ff000ff0
ff000ff0
ff000ff0
ff000ff0
ff000ff0
ff000ff0
ff000ff0
ff000ff0
ff000ff0
ff000ff0
ff000ff0
ff000ff0
ff000ff0
ff000ff0
ff000ff0
ff000ff0
ff000ff0
ff000ff0
ff000ff0
ff000ff0
ff000ff0
ff000ff0
ff000ff0
ff000ff0
ff0f0ff0
ff0f0ff0
ff0f0ff0
ff0f0ff0
ff0f0ff0
ff0f0ff0
ff0f0ff0
ff0f0ff0
fffffff0
fffffff0
fffffff0
fffffff0
0ff0ff00
0ff0ff00
0ff0ff00
0ff0ff00
00000000
00000000
00000000
00000000
00000000
00000000
00000000
00000000
ENDCHAR
STARTCHAR X
ENCODING 88
SWIDTH 568 0
DWIDTH 32 0
BBX 32 52 0 -8
BITMAP
00000000
00000000
00000000
00000000
ff000ff0
ff000ff0
ff000ff0
ff000ff0
ff000ff0
ff000ff0
ff000ff0
ff000ff0
0ff0ff00
0ff0ff00
0ff0ff00
0ff0ff00
0ff0ff00
0ff0ff00
0ff0ff00
0ff0ff00
00fff000
00fff000
00fff000
00fff000
00fff000
00fff000
00fff000
00fff000
0ff0ff00
0ff0ff00
0ff0ff00
0ff0ff00
0ff0ff00
0ff0ff00
0ff0ff00
0ff0ff00
ff000ff0
ff000ff0
ff000ff0
ff000ff0
ff000ff0
ff000ff0
ff000ff0
ff000ff0
00000000
00000000
00000000
00000000
00000000
00000000
00000000
00000000
ENDCHAR
STARTCHAR Y
ENCODING 89
SWIDTH 568 0
DWIDTH 32 0
BBX 32 52 0 -8
BITMAP
00000000
00000000
00000000
00000000
0ff00ff0
0ff00ff0
0ff00ff0
0ff00ff0
0ff00ff0
0ff00ff0
0ff00ff0
0ff00ff0
0ff00ff0
0ff00ff0
0ff00ff0
0ff00ff0
00ffff00
00ffff00
00ffff00
00ffff00
00ffff00
00ffff00
00ffff00
00ffff00
000ff000
000ff000
000ff000
000ff000
000ff000
000ff000
000ff000
000ff000
000ff000
000ff000
000ff000
000ff000
000ff000
000ff000
000ff000
000ff000
000ff000
000ff000
000ff000
000ff000
00000000
00000000
00000000
00000000
00000000
00000000
00000000
00000000
ENDCHAR
STARTCHAR Z
ENCODING 90
SWIDTH 568 0
DWIDTH 32 0
BBX 32 52 0 -8
BITMAP
00000000
00000000
00000000
00000000
fffffff0
fffffff0
fffffff0
fffffff0
00000ff0
00000ff0
00000ff0
00000ff0
00000ff0
00000ff0
00000ff0
00000ff0
0000ff00
0000ff00
0000ff00
0000ff00
000ff000
000ff000
000ff000
000ff000
00ff0000
00ff0000
00ff0000
00ff0000
0ff00000
0ff00000
0ff00000
0ff00000
ff000000
ff000000
ff000000
ff000000
ff000000
ff000000
ff000000
ff000000
fffffff0
fffffff0
fffffff0
fffffff0
00000000
00000000
00000000
00000000
00000000
00000000
00000000
00000000
ENDCHAR
STARTCHAR bracketleft
ENCODING 91
SWIDTH 568 0
DWIDTH 32 0
BBX 32 52 0 -8
BITMAP
00000000
00000000
00000000
00000000
0fffff00
0fffff00
0fffff00
0fffff00
0ff00000
0ff00000
0ff00000
0ff00000
0ff00000
0ff00000
0ff00000
0ff00000
0ff00000
0ff00000
0ff00000
0ff00000
0ff00000
0ff00000
0ff00000
0ff00000
0ff00000
0ff00000
0ff00000
0ff00000
0ff00000
0ff00000
0ff00000
0ff00000
0ff00000
0ff00000
0ff00000
0ff00000
0ff00000
0ff00000
0ff00000
0ff00000
0ff00000
0ff00000
0ff00000
0ff00000
0fffff00
0fffff00
0fffff00
0fffff00
00000000
00000000
00000000
00000000
ENDCHAR
STARTCHAR backslash
ENCODING 92
SWIDTH 568 0
DWIDTH 32 0
BBX 32 52 0 -8
BITMAP
00000000
00000000
00000000
00000000
f0000000
f0000000
f0000000
f0000000
ff000000
ff000000
ff000000
ff000000
ff000000
ff000000
ff000000
ff000000
0ff00000
0ff00000
0ff00000
0ff00000
00ff0000
00ff0000
00ff0000
00ff0000
000ff000
000ff000
000ff000
000ff000
0000ff00
0000ff00
0000ff00
0000ff00
00000ff0
00000ff0
00000ff0
00000ff0
00000ff0
00000ff0
00000ff0
00000ff0
000000f0
000000f0
000000f0
000000f0
00000000
00000000
00000000
00000000
00000000
00000000
00000000
00000000
ENDCHAR
STARTCHAR bracketright
ENCODING 93
SWIDTH 568 0
DWIDTH 32 0
BBX 32 52 0 -8
BITMAP
00000000
00000000
00000000
00000000
0fffff00
0fffff00
0fffff00
0fffff00
0000ff00
0000ff00
0000ff00
0000ff00
0000ff00
0000ff00
0000ff00
0000ff00
0000ff00
0000ff00
0000ff00
0000ff00
0000ff00
0000ff00
0000ff00
0000ff00
0000ff00
0000ff00
0000ff00
0000ff00
0000ff00
0000ff00
0000ff00
0000ff00
0000ff00
0000ff00
0000ff00
0000ff00
0000ff00
0000ff00
0000ff00
0000ff00
0000ff00
0000ff00
0000ff00
0000ff00
0fffff00
0fffff00
0fffff00
0fffff00
00000000
00000000
00000000
00000000
ENDCHAR
STARTCHAR asciicircum
ENCODING 94
SWIDTH 568 0
DWIDTH 32 0
BBX 32 52 0 -8
BITMAP
00000000
00000000
00000000
00000000
000f0000
000f0000
000f0000
000f0000
00fff000
00fff000
00fff000
00fff000
0ff0ff00
0ff0ff00
0ff0ff00
0ff0ff00
ff000ff0
ff000ff0
ff000ff0
ff000ff0
00000000
00000000
00000000
00000000
00000000
00000000
00000000
00000000
00000000
00000000
00000000
00000000
00000000
00000000
00000000
00000000
00000000
00000000
00000000
00000000
00000000
00000000
00000000
00000000
00000000
00000000
00000000
00000000
00000000
00000000
00000000
00000000
ENDCHAR
STARTCHAR underscore
ENCODING 95
SWIDTH 568 0
DWIDTH 32 0
BBX 32 52 0 -8
BITMAP
00000000
00000000
00000000
00000000
00000000
00000000
00000000
00000000
00000000
00000000
00000000
00000000
00000000
00000000
00000000
00000000
00000000
00000000
00000000
00000000
00000000
00000000
00000000
00000000
00000000
00000000
00000000
00000000
00000000
00000000
00000000
00000000
00000000
00000000
00000000
00000000
00000000
00000000
00000000
00000000
00000000
00000000
00000000
00000000
fffffff0
fffffff0
fffffff0
fffffff0
00000000
00000000
00000000
00000000
ENDCHAR
STARTCHAR grave
ENCODING 96
SWIDTH 568 0
DWIDTH 32 0
BBX 32 52 0 -8
BITMAP
00000000
00000000
00000000
00000000
00ff0000
00ff0000
00ff0000
00ff0000
000ff000
000ff000
000ff000
000ff000
0000ff00
0000ff00
0000ff00
0000ff00
00000000
00000000
00000000
00000000
00000000
00000000
00000000
00000000
00000000
00000000
00000000
00000000
00000000
00000000
00000000
00000000
00000000
00000000
00000000
00000000
00000000
00000000
00000000
00000000
00000000
00000000
00000000
00000000
00000000
00000000
00000000
00000000
00000000
00000000
00000000
00000000
ENDCHAR
STARTCHAR a
ENCODING 97
SWIDTH 568 0
DWIDTH 32 0
BBX 32 52 0 -8
BITMAP
00000000
00000000
00000000
00000000
00000000
00000000
00000000
00000000
00000000
00000000
00000000
00000000
00000000
00000000
00000000
00000000
0fffff00
0fffff00
0fffff00
0fffff00
00000ff0
00000ff0
00000ff0
00000ff0
0ffffff0
0ffffff0
0ffffff0
0ffffff0
ff000ff0
ff000ff0
ff000ff0
ff000ff0
ff000ff0
ff000ff0
ff000ff0
ff000ff0
ff00fff0
ff00fff0
ff00fff0
ff00fff0
0fff0ff0
0fff0ff0
0fff0ff0
0fff0ff0
00000000
00000000
00000000
00000000
00000000
00000000
00000000
00000000
ENDCHAR
STARTCHAR b
ENCODING 98
SWIDTH 568 0
DWIDTH 32 0
BBX 32 52 0 -8
BITMAP
00000000
00000000
00000000
00000000
ff000000
ff000000
ff000000
ff000000
ff000000
ff000000
ff000000
ff000000
ff000000
ff000000
ff000000
ff000000
ff0fff00
ff0fff00
ff0fff00
ff0fff00
fff00ff0
fff00ff0
fff00ff0
fff00ff0
ff000ff0
ff000ff0
ff000ff0
ff000ff0
ff000ff0
ff000ff0
ff000ff0
ff000ff0
ff000ff0
ff000ff0
ff000ff0
ff000ff0
fff00ff0
fff00ff0
fff00ff0
fff00ff0
ff0fff00
ff0fff00
ff0fff00
ff0fff00
00000000
00000000
00000000
00000000
00000000
00000000
00000000
00000000
ENDCHAR
STARTCHAR c
ENCODING 99
SWIDTH 568 0
DWIDTH 32 0
BBX 32 52 0 -8
BITMAP
00000000
00000000
00000000
00000000
00000000
00000000
00000000
00000000
00000000
00000000
00000000
00000000
00000000
00000000
00000000
00000000
0fffff00
0fffff00
0fffff00
0fffff00
fff00ff0
fff00ff0
fff00ff0
fff00ff0
ff000000
ff000000
ff000000
ff000000
ff000000
ff000000
ff000000
ff000000
ff000000
ff000000
ff000000
ff000000
fff00ff0
fff00ff0
fff00ff0
fff00ff0
0fffff00
0fffff00
0fffff00
0fffff00
00000000
00000000
00000000
00000000
00000000
00000000
00000000
00000000
ENDCHAR
STARTCHAR d
ENCODING 100
SWIDTH 568 0
DWIDTH 32 0
BBX 32 52 0 -8
BITMAP
00000000
00000000
00000000
00000000
00000ff0
00000ff0
00000ff0
00000ff0
00000ff0
00000ff0
00000ff0
00000ff0
00000ff0
00000ff0
00000ff0
00000ff0
0fff0ff0
0fff0ff0
0fff0ff0
0fff0ff0
ff00fff0
ff00fff0
ff00fff0
ff00fff0
ff000ff0
ff000ff0
ff000ff0
ff000ff0
ff000ff0
ff000ff0
ff000ff0
ff000ff0
ff000ff0
ff000ff0
ff000ff0
ff000ff0
ff00fff0
ff00fff0
ff00fff0
ff00fff0
0fff0ff0
0fff0ff0
0fff0ff0
0fff0ff0
00000000
00000000
00000000
00000000
00000000
00000000
00000000
00000000
ENDCHAR
STARTCHAR e
ENCODING 101
SWIDTH 568 0
DWIDTH 32 0
BBX 32 52 0 -8
BITMAP
00000000
00000000
00000000
00000000
00000000
00000000
00000000
00000000
00000000
00000000
00000000
00000000
00000000
00000000
00000000
00000000
0fffff00
0fffff00
0fffff00
0fffff00
ff000ff0
ff000ff0
ff000ff0
ff000ff0
ff000ff0
ff000ff0
ff000ff0
ff000ff0
fffffff0
fffffff0
fffffff0
fffffff0
ff000000
ff000000
ff000000
ff000000
ff000ff0
ff000ff0
ff000ff0
ff000ff0
0fffff00
0fffff00
0fffff00
0fffff00
00000000
00000000
00000000
00000000
00000000
00000000
00000000
00000000
ENDCHAR
STARTCHAR f
ENCODING 102
SWIDTH 568 0
DWIDTH 32 0
BBX 32 52 0 -8
BITMAP
00000000
00000000
00000000
00000000
00ffff00
00ffff00
00ffff00
00ffff00
0ff00ff0
0ff00ff0
0ff00ff0
0ff00ff0
0ff00000
0ff00000
0ff00000
0ff00000
0ff00000
0ff00000
0ff00000
0ff00000
0ff00000
0ff00000
0ff00000
0ff00000
ffffff00
ffffff00
ffffff00
ffffff00
0ff00000
0ff00000
0ff00000
0ff00000
0ff00000
0ff00000
0ff00000
0ff00000
0ff00000
0ff00000
0ff00000
0ff00000
0ff00000
0ff00000
0ff00000
0ff00000
00000000
00000000
00000000
00000000
00000000
00000000
00000000
00000000
ENDCHAR
STARTCHAR g
ENCODING 103
SWIDTH 568 0
DWIDTH 32 0
BBX 32 52 0 -8
BITMAP
00000000
00000000
00000000
00000000
00000000
00000000
00000000
00000000
00000000
00000000
00000000
00000000
00000000
00000000
00000000
00000000
0ffffff0
0ffffff0
0ffffff0
0ffffff0
ff00ff00
ff00ff00
ff00ff00
ff00ff00
ff00ff00
ff00ff00
ff00ff00
ff00ff00
ff00ff00
ff00ff00
ff00ff00
ff00ff00
0ffff000
0ffff000
0ffff000
0ffff000
ffff0000
ffff0000
ffff0000
ffff0000
0fffff00
0fffff00
0fffff00
0fffff00
ff000ff0
ff000ff0
ff000ff0
ff000ff0
0fffff00
0fffff00
0fffff00
0fffff00
ENDCHAR
STARTCHAR h
ENCODING 104
SWIDTH 568 0
DWIDTH 32 0
BBX 32 52 0 -8
BITMAP
00000000
00000000
00000000
00000000
ff000000
ff000000
ff000000
ff000000
ff000000
ff000000
ff000000
ff000000
ff000000
ff000000
ff000000
ff000000
ff0fff00
ff0fff00
ff0fff00
ff0fff00
fff00ff0
fff00ff0
fff00ff0
fff00ff0
ff000ff0
ff000ff0
ff000ff0
ff000ff0
ff000ff0
ff000ff0
ff000ff0
ff000ff0
ff000ff0
ff000ff0
ff000ff0
ff000ff0
ff000ff0
ff000ff0
ff000ff0
ff000ff0
ff000ff0
ff000ff0
ff000ff0
ff000ff0
00000000
00000000
00000000
00000000
00000000
00000000
00000000
00000000
ENDCHAR
STARTCHAR i
ENCODING 105
SWIDTH 568 0
DWIDTH 32 0
BBX 32 52 0 -8
BITMAP
00000000
00000000
00000000
00000000
00000000
00000000
00000000
00000000
000ff000
000ff000
000ff000
000ff000
000ff000
000ff000
000ff000
000ff000
00000000
00000000
00000000
00000000
00fff000
00fff000
00fff000
00fff000
000ff000
000ff000
000ff000
000ff000
000ff000
000ff000
000ff000
000ff000
000ff000
000ff000
000ff000
000ff000
000ff000
000ff000
000ff000
000ff000
00ffff00
00ffff00
00ffff00
00ffff00
00000000
00000000
00000000
00000000
00000000
00000000
00000000
00000000
ENDCHAR
STARTCHAR j
ENCODING 106
SWIDTH 568 0
DWIDTH 32 0
BBX 32 52 0 -8
BITMAP
00000000
00000000
00000000
00000000
00000000
00000000
00000000
00000000
00000ff0
00000ff0
00000ff0
00000ff0
00000ff0
00000ff0
00000ff0
00000ff0
00000000
00000000
00000000
00000000
0000fff0
0000fff0
0000fff0
0000fff0
00000ff0
00000ff0
00000ff0
00000ff0
00000ff0
00000ff0
00000ff0
00000ff0
00000ff0
00000ff0
00000ff0
00000ff0
00000ff0
00000ff0
00000ff0
00000ff0
ff000ff0
ff000ff0
ff000ff0
ff000ff0
ff000ff0
ff000ff0
ff000ff0
ff000ff0
0fffff00
0fffff00
0fffff00
0fffff00
ENDCHAR
STARTCHAR k
ENCODING 107
SWIDTH 568 0
DWIDTH 32 0
BBX 32 52 0 -8
BITMAP
00000000
00000000
00000000
00000000
ff000000
ff000000
ff000000
ff000000
ff000000
ff000000
ff000000
ff000000
ff000000
ff000000
ff000000
ff000000
ff00ff00
ff00ff00
ff00ff00
ff00ff00
ff0ff000
ff0ff000
ff0ff000
ff0ff000
ffff0000
ffff0000
ffff0000
ffff0000
ffff0000
ffff0000
ffff0000
ffff0000
ff0ff000
ff0ff000
ff0ff000
ff0ff000
ff00ff00
ff00ff00
ff00ff00
ff00ff00
ff000ff0
ff000ff0
ff000ff0
ff000ff0
00000000
00000000
00000000
00000000
00000000
00000000
00000000
00000000
ENDCHAR
STARTCHAR l
ENCODING 108
SWIDTH 568 0
DWIDTH 32 0
BBX 32 52 0 -8
BITMAP
00000000
00000000
00000000
00000000
00fff000
00fff000
00fff000
00fff000
000ff000
000ff000
000ff000
000ff000
000ff000
000ff000
000ff000
000ff000
000ff000
000ff000
000ff000
000ff000
000ff000
000ff000
000ff000
000ff000
000ff000
000ff000
000ff000
000ff000
000ff000
000ff000
000ff000
000ff000
000ff000
000ff000
000ff000
000ff000
000ff000
000ff000
000ff000
000ff000
00ffff00
00ffff00
00ffff00
00ffff00
00000000
00000000
00000000
00000000
00000000
00000000
00000000
00000000
ENDCHAR
STARTCHAR m
ENCODING 109
SWIDTH 568 0
DWIDTH 32 0
BBX 32 52 0 -8
BITMAP
00000000
00000000
00000000
00000000
00000000
00000000
00000000
00000000
00000000
00000000
00000000
00000000
00000000
00000000
00000000
00000000
0ff0ff00
0ff0ff00
0ff0ff00
0ff0ff00
fffffff0
fffffff0
fffffff0
fffffff0
ff0f0ff0
ff0f0ff0
ff0f0ff0
ff0f0ff0
ff0f0ff0
ff0f0ff0
ff0f0ff0
ff0f0ff0
ff000ff0
ff000ff0
ff000ff0
ff000ff0
ff000ff0
ff000ff0
ff000ff0
ff000ff0
ff000ff0
ff000ff0
ff000ff0
ff000ff0
00000000
00000000
00000000
00000000
00000000
00000000
00000000
00000000
ENDCHAR
STARTCHAR n
ENCODING 110
SWIDTH 568 0
DWIDTH 32 0
BBX 32 52 0 -8
BITMAP
00000000
00000000
00000000
00000000
00000000
00000000
00000000
00000000
00000000
00000000
00000000
00000000
00000000
00000000
00000000
00000000
ff0fff00
ff0fff00
ff0fff00
ff0fff00
fff00ff0
fff00ff0
fff00ff0
fff00ff0
ff000ff0
ff000ff0
ff000ff0
ff000ff0
ff000ff0
ff000ff0
ff000ff0
ff000ff0
ff000ff0
ff000ff0
ff000ff0
ff000ff0
ff000ff0
ff000ff0
ff000ff0
ff000ff0
ff000ff0
ff000ff0
ff000ff0
ff000ff0
00000000
00000000
00000000
00000000
00000000
00000000
00000000
00000000
ENDCHAR
STARTCHAR o
ENCODING 111
SWIDTH 568 0
DWIDTH 32 0
BBX 32 52 0 -8
BITMAP
00000000
00000000
00000000
00000000
00000000
00000000
00000000
00000000
00000000
00000000
00000000
00000000
00000000
00000000
00000000
00000000
0fffff00
0fffff00
0fffff00
0fffff00
ff000ff0
ff000ff0
ff000ff0
ff000ff0
ff000ff0
ff000ff0
ff000ff0
ff000ff0
ff000ff0
ff000ff0
ff000ff0
ff000ff0
ff000ff0
ff000ff0
ff000ff0
ff000ff0
ff000ff0
ff000ff0
ff000ff0
ff000ff0
0fffff00
0fffff00
0fffff00
0fffff00
00000000
00000000
00000000
00000000
00000000
00000000
00000000
00000000
ENDCHAR
STARTCHAR p
ENCODING 112
SWIDTH 568 0
DWIDTH 32 0
BBX 32 52 0 -8
BITMAP
00000000
00000000
00000000
00000000
00000000
00000000
00000000
00000000
00000000
00000000
00000000
00000000
00000000
00000000
00000000
00000000
ff0fff00
ff0fff00
ff0fff00
ff0fff00
fff00ff0
fff00ff0
fff00ff0
fff00ff0
ff000ff0
ff000ff0
ff000ff0
ff000ff0
ff000ff0
ff000ff0
ff000ff0
ff000ff0
ff000ff0
ff000ff0
ff000ff0
ff000ff0
fff00ff0
fff00ff0
fff00ff0
fff00ff0
ff0fff00
ff0fff00
ff0fff00
ff0fff00
ff000000
ff000000
ff000000
ff000000
ff000000
ff000000
ff000000
ff000000
ENDCHAR
STARTCHAR q
ENCODING 113
SWIDTH 568 0
DWIDTH 32 0
BBX 32 52 0 -8
BITMAP
00000000
00000000
00000000
00000000
00000000
00000000
00000000
00000000
00000000
00000000
00000000
00000000
00000000
00000000
00000000
00000000
0fff0ff0
0fff0ff0
0fff0ff0
0fff0ff0
ff00fff0
ff00fff0
ff00fff0
ff00fff0
ff000ff0
ff000ff0
ff000ff0
ff000ff0
ff000ff0
ff000ff0
ff000ff0
ff000ff0
ff000ff0
ff000ff0
ff000ff0
ff000ff0
ff00fff0
ff00fff0
ff00fff0
ff00fff0
0fff0ff0
0fff0ff0
0fff0ff0
0fff0ff0
00000ff0
00000ff0
00000ff0
00000ff0
00000ff0
00000ff0
00000ff0
00000ff0
ENDCHAR
STARTCHAR r
ENCODING 114
SWIDTH 568 0
DWIDTH 32 0
BBX 32 52 0 -8
BITMAP
00000000
00000000
00000000
00000000
00000000
00000000
00000000
00000000
00000000
00000000
00000000
00000000
00000000
00000000
00000000
00000000
ff0fff00
ff0fff00
ff0fff00
ff0fff00
fff00ff0
fff00ff0
fff00ff0
fff00ff0
ff000000
ff000000
ff000000
ff000000
ff000000
ff000000
ff000000
ff000000
ff000000
ff000000
ff000000
ff000000
ff000000
ff000000
ff000000
ff000000
ff000000
ff000000
ff000000
ff000000
00000000
00000000
00000000
00000000
00000000
00000000
00000000
00000000
ENDCHAR
STARTCHAR s
ENCODING 115
SWIDTH 568 0
DWIDTH 32 0
BBX 32 52 0 -8
BITMAP
00000000
00000000
00000000
00000000
00000000
00000000
00000000
00000000
00000000
00000000
00000000
00000000
00000000
00000000
00000000
00000000
0fffff00
0fffff00
0fffff00
0fffff00
ff000ff0
ff000ff0
ff000ff0
ff000ff0
0ff00000
0ff00000
0ff00000
0ff00000
00fff000
00fff000
00fff000
00fff000
0000ff00
0000ff00
0000ff00
0000ff00
ff000ff0
ff000ff0
ff000ff0
ff000ff0
0fffff00
0fffff00
0fffff00
0fffff00
00000000
00000000
00000000
00000000
00000000
00000000
00000000
00000000
ENDCHAR
STARTCHAR t
ENCODING 116
SWIDTH 568 0
DWIDTH 32 0
BBX 32 52 0 -8
BITMAP
00000000
00000000
00000000
00000000
0ff00000
0ff00000
0ff00000
0ff00000
0ff00000
0ff00000
0ff00000
0ff00000
0ff00000
0ff00000
0ff00000
0ff00000
0ff00000
0ff00000
0ff00000
0ff00000
ffffff00
ffffff00
ffffff00
ffffff00
0ff00000
0ff00000
0ff00000
0ff00000
0ff00000
0ff00000
0ff00000
0ff00000
0ff00000
0ff00000
0ff00000
0ff00000
0ff00ff0
0ff00ff0
0ff00ff0
0ff00ff0
00ffff00
00ffff00
00ffff00
00ffff00
00000000
00000000
00000000
00000000
00000000
00000000
00000000
00000000
ENDCHAR
STARTCHAR u
ENCODING 117
SWIDTH 568 0
DWIDTH 32 0
BBX 32 52 0 -8
BITMAP
00000000
00000000
00000000
00000000
00000000
00000000
00000000
00000000
00000000
00000000
00000000
00000000
00000000
00000000
00000000
00000000
ff000ff0
ff000ff0
ff000ff0
ff000ff0
ff000ff0
ff000ff0
ff000ff0
ff000ff0
ff000ff0
ff000ff0
ff000ff0
ff000ff0
ff000ff0
ff000ff0
ff000ff0
ff000ff0
ff000ff0
ff000ff0
ff000ff0
ff000ff0
ff00fff0
ff00fff0
ff00fff0
ff00fff0
0fff0ff0
0fff0ff0
0fff0ff0
0fff0ff0
00000000
00000000
00000000
00000000
00000000
00000000
00000000
00000000
ENDCHAR
STARTCHAR v
ENCODING 118
SWIDTH 568 0
DWIDTH 32 0
BBX 32 52 0 -8
BITMAP
00000000
00000000
00000000
00000000
00000000
00000000
00000000
00000000
00000000
00000000
00000000
00000000
00000000
00000000
00000000
00000000
ff000ff0
ff000ff0
ff000ff0
ff000ff0
ff000ff0
ff000ff0
ff000ff0
ff000ff0
ff000ff0
ff000ff0
ff000ff0
ff000ff0
ff000ff0
ff000ff0
ff000ff0
ff000ff0
0ff0ff00
0ff0ff00
0ff0ff00
0ff0ff00
0ff0ff00
0ff0ff00
0ff0ff00
0ff0ff00
00fff000
00fff000
00fff000
00fff000
00000000
00000000
00000000
00000000
00000000
00000000
00000000
00000000
ENDCHAR
STARTCHAR w
ENCODING 119
SWIDTH 568 0
DWIDTH 32 0
BBX 32 52 0 -8
BITMAP
00000000
00000000
00000000
00000000
00000000
00000000
00000000
00000000
00000000
00000000
00000000
00000000
00000000
00000000
00000000
00000000
ff000ff0
ff000ff0
ff000ff0
ff000ff0
ff000ff0
ff000ff0
ff000ff0
ff000ff0
ff000ff0
ff000ff0
ff000ff0
ff000ff0
ff0f0ff0
ff0f0ff0
ff0f0ff0
ff0f0ff0
ff0f0ff0
ff0f0ff0
ff0f0ff0
ff0f0ff0
fffffff0
fffffff0
fffffff0
fffffff0
0ff0ff00
0ff0ff00
0ff0ff00
0ff0ff00
00000000
00000000
00000000
00000000
00000000
00000000
00000000
00000000
ENDCHAR
STARTCHAR x
ENCODING 120
SWIDTH 568 0
DWIDTH 32 0
BBX 32 52 0 -8
BITMAP
00000000
00000000
00000000
00000000
00000000
00000000
00000000
00000000
00000000
00000000
00000000
00000000
00000000
00000000
00000000
00000000
ff000ff0
ff000ff0
ff000ff0
ff000ff0
ff000ff0
ff000ff0
ff000ff0
ff000ff0
0ff0ff00
0ff0ff00
0ff0ff00
0ff0ff00
00fff000
00fff000
00fff000
00fff000
0ff0ff00
0ff0ff00
0ff0ff00
0ff0ff00
ff000ff0
ff000ff0
ff000ff0
ff000ff0
ff000ff0
ff000ff0
ff000ff0
ff000ff0
00000000
00000000
00000000
00000000
00000000
00000000
00000000
00000000
ENDCHAR
STARTCHAR y
ENCODING 121
SWIDTH 568 0
DWIDTH 32 0
BBX 32 52 0 -8
BITMAP
00000000
00000000
00000000
00000000
00000000
00000000
00000000
00000000
00000000
00000000
00000000
00000000
00000000
00000000
00000000
00000000
ff000ff0
ff000ff0
ff000ff0
ff000ff0
ff000ff0
ff000ff0
ff000ff0
ff000ff0
ff000ff0
ff000ff0
ff000ff0
ff000ff0
ff000ff0
ff000ff0
ff000ff0
ff000ff0
ff00fff0
ff00fff0
ff00fff0
ff00fff0
0fff0ff0
0fff0ff0
0fff0ff0
0fff0ff0
00000ff0
00000ff0
00000ff0
00000ff0
ff000ff0
ff000ff0
ff000ff0
ff000ff0
0fffff00
0fffff00
0fffff00
0fffff00
ENDCHAR
STARTCHAR z
ENCODING 122
SWIDTH 568 0
DWIDTH 32 0
BBX 32 52 0 -8
BITMAP
00000000
00000000
00000000
00000000
00000000
00000000
00000000
00000000
00000000
00000000
00000000
00000000
00000000
00000000
00000000
00000000
fffffff0
fffffff0
fffffff0
fffffff0
0000ff00
0000ff00
0000ff00
0000ff00
000ff000
000ff000
000ff000
000ff000
00ff0000
00ff0000
00ff0000
00ff0000
0ff00000
0ff00000
0ff00000
0ff00000
ff000000
ff000000
ff000000
ff000000
fffffff0
fffffff0
fffffff0
fffffff0
00000000
00000000
00000000
00000000
00000000
00000000
00000000
00000000
ENDCHAR
STARTCHAR braceleft
ENCODING 123
SWIDTH 568 0
DWIDTH 32 0
BBX 32 52 0 -8
BITMAP
00000000
00000000
00000000
00000000
000ffff0
000ffff0
000ffff0
000ffff0
00ff0000
00ff0000
00ff0000
00ff0000
00ff0000
00ff0000
00ff0000
00ff0000
00ff0000
00ff0000
00ff0000
00ff0000
000ff000
000ff000
000ff000
000ff000
0fff0000
0fff0000
0fff0000
0fff0000
000ff000
000ff000
000ff000
000ff000
00ff0000
00ff0000
00ff0000
00ff0000
00ff0000
00ff0000
00ff0000
00ff0000
00ff0000
00ff0000
00ff0000
00ff0000
000ffff0
000ffff0
000ffff0
000ffff0
00000000
00000000
00000000
00000000
ENDCHAR
STARTCHAR bar
ENCODING 124
SWIDTH 568 0
DWIDTH 32 0
BBX 32 52 0 -8
BITMAP
00000000
00000000
00000000
00000000
000ff000
000ff000
000ff000
000ff000
000ff000
000ff000
000ff000
000ff000
000ff000
000ff000
000ff000
000ff000
000ff000
000ff000
000ff000
000ff000
000ff000
000ff000
000ff000
000ff000
000ff000
000ff000
000ff000
000ff000
000ff000
000ff000
000ff000
000ff000
000ff000
000ff000
000ff000
000ff000
000ff000
000ff000
000ff000
000ff000
000ff000
000ff000
000ff000
000ff000
00000000
00000000
00000000
00000000
00000000
00000000
00000000
00000000
ENDCHAR
STARTCHAR braceright
ENCODING 125
SWIDTH 568 0
DWIDTH 32 0
BBX 32 52 0 -8
BITMAP
00000000
00000000
00000000
00000000
0ffff000
0ffff000
0ffff000
0ffff000
0000ff00
0000ff00
0000ff00
0000ff00
0000ff00
0000ff00
0000ff00
0000ff00
0000ff00
0000ff00
0000ff00
0000ff00
000ff000
000ff000
000ff000
000ff000
0000fff0
0000fff0
0000fff0
0000fff0
000ff000
000ff000
000ff000
000ff000
0000ff00
0000ff00
0000ff00
0000ff00
0000ff00
0000ff00
0000ff00
0000ff00
0000ff00
0000ff00
0000ff00
0000ff00
0ffff000
0ffff000
0ffff000
0ffff000
00000000
00000000
00000000
00000000
ENDCHAR
STARTCHAR asciitilde
ENCODING 126
SWIDTH 568 0
DWIDTH 32 0
BBX 32 52 0 -8
BITMAP
00000000
00000000
00000000
00000000
00000000
00000000
00000000
00000000
0fff00f0
0fff00f0
0fff00f0
0fff00f0
fffffff0
fffffff0
fffffff0
fffffff0
f00fff00
f00fff00
f00fff00
f00fff00
00000000
00000000
00000000
00000000
00000000
00000000
00000000
00000000
00000000
00000000
00000000
00000000
00000000
00000000
00000000
00000000
00000000
00000000
00000000
00000000
00000000
00000000
00000000
00000000
00000000
00000000
00000000
00000000
00000000
00000000
00000000
00000000
ENDCHAR
STARTCHAR space
ENCODING 160
SWIDTH 568 0
DWIDTH 32 0
BBX 32 52 0 -8
BITMAP
00000000
00000000
00000000
00000000
00000000
00000000
00000000
00000000
00000000
00000000
00000000
00000000
00000000
00000000
00000000
00000000
00000000
00000000
00000000
00000000
00000000
00000000
00000000
00000000
00000000
00000000
00000000
00000000
00000000
00000000
00000000
00000000
00000000
00000000
00000000
00000000
00000000
00000000
00000000
00000000
00000000
00000000
00000000
00000000
00000000
00000000
00000000
00000000
00000000
00000000
00000000
00000000
ENDCHAR
STARTCHAR exclamdown
ENCODING 161
SWIDTH 568 0
DWIDTH 32 0
BBX 32 52 0 -8
BITMAP
00000000
00000000
00000000
00000000
000ff000
000ff000
000ff000
000ff000
000ff000
000ff000
000ff000
000ff000
00000000
00000000
00000000
00000000
000ff000
000ff000
000ff000
000ff000
000ff000
000ff000
000ff000
000ff000
000ff000
000ff000
000ff000
000ff000
000ff000
000ff000
000ff000
000ff000
000ff000
000ff000
000ff000
000ff000
000ff000
000ff000
000ff000
000ff000
000ff000
000ff000
000ff000
000ff000
00000000
00000000
00000000
00000000
00000000
00000000
00000000
00000000
ENDCHAR
STARTCHAR cent
ENCODING 162
SWIDTH 568 0
DWIDTH 32 0
BBX 32 52 0 -8
BITMAP
00000000
00000000
00000000
00000000
00000000
00000000
00000000
00000000
000f0000
000f0000
000f0000
000f0000
0fffff00
0fffff00
0fffff00
0fffff00
ff0f0f00
ff0f0f00
ff0f0f00
ff0f0f00
ff0f0000
ff0f0000
ff0f0000
ff0f0000
ff0f0000
ff0f0000
ff0f0000
ff0f0000
ff0f0f00
ff0f0f00
ff0f0f00
ff0f0f00
0fffff00
0fffff00
0fffff00
0fffff00
000f0000
000f0000
000f0000
000f0000
00000000
00000000
00000000
00000000
00000000
00000000
00000000
00000000
00000000
00000000
00000000
00000000
ENDCHAR
STARTCHAR sterling
ENCODING 163
SWIDTH 568 0
DWIDTH 32 0
BBX 32 52 0 -8
BITMAP
00000000
00000000
00000000
00000000
00ffff00
00ffff00
00ffff00
00ffff00
0ff00ff0
0ff00ff0
0ff00ff0
0ff00ff0
0ff00000
0ff00000
0ff00000
0ff00000
0ff00000
0ff00000
0ff00000
0ff00000
ffffff00
ffffff00
ffffff00
ffffff00
0ff00000
0ff00000
0ff00000
0ff00000
0ff00000
0ff00000
0ff00000
0ff00000
0ff00000
0ff00000
0ff00000
0ff00000
ffff0000
ffff0000
ffff0000
ffff0000
f0fffff0
f0fffff0
f0fffff0
f0fffff0
fff00000
fff00000
fff00000
fff00000
00000000
00000000
00000000
00000000
ENDCHAR
STARTCHAR currency
ENCODING 164
SWIDTH 568 0
DWIDTH 32 0
BBX 32 52 0 -8
BITMAP
00000000
00000000
00000000
00000000
00000000
00000000
00000000
00000000
00000000
00000000
00000000
00000000
ff000ff0
ff000ff0
ff000ff0
ff000ff0
fffffff0
fffffff0
fffffff0
fffffff0
0ff0ff00
0ff0ff00
0ff0ff00
0ff0ff00
0f000f00
0f000f00
0f000f00
0f000f00
0ff0ff00
0ff0ff00
0ff0ff00
0ff0ff00
fffffff0
fffffff0
fffffff0
fffffff0
ff000ff0
ff000ff0
ff000ff0
ff000ff0
00000000
00000000
00000000
00000000
00000000
00000000
00000000
00000000
00000000
00000000
00000000
00000000
ENDCHAR
STARTCHAR yen
ENCODING 165
SWIDTH 568 0
DWIDTH 32 0
BBX 32 52 0 -8
BITMAP
00000000
00000000
00000000
00000000
0ff00ff0
0ff00ff0
0ff00ff0
0ff00ff0
0ff00ff0
0ff00ff0
0ff00ff0
0ff00ff0
0ff00ff0
0ff00ff0
0ff00ff0
0ff00ff0
00ffff00
00ffff00
00ffff00
00ffff00
00ffff00
00ffff00
00ffff00
00ffff00
0ffffff0
0ffffff0
0ffffff0
0ffffff0
000ff000
000ff000
000ff000
000ff000
0ffffff0
0ffffff0
0ffffff0
0ffffff0
000ff000
000ff000
000ff000
000ff000
000ff000
000ff000
000ff000
000ff000
00000000
00000000
00000000
00000000
00000000
00000000
00000000
00000000
ENDCHAR
STARTCHAR brokenbar
ENCODING 166
SWIDTH 568 0
DWIDTH 32 0
BBX 32 52 0 -8
BITMAP
00000000
00000000
00000000
00000000
000ff000
000ff000
000ff000
000ff000
000ff000
000ff000
000ff000
000ff000
000ff000
000ff000
000ff000
000ff000
000ff000
000ff000
000ff000
000ff000
00000000
00000000
00000000
00000000
00000000
00000000
00000000
00000000
000ff000
000ff000
000ff000
000ff000
000ff000
000ff000
000ff000
000ff000
000ff000
000ff000
000ff000
000ff000
000ff000
000ff000
000ff000
000ff000
00000000
00000000
00000000
00000000
00000000
00000000
00000000
00000000
ENDCHAR
STARTCHAR section
ENCODING 167
SWIDTH 568 0
DWIDTH 32 0
BBX 32 52 0 -8
BITMAP
00000000
00000000
00000000
00000000
00ffff00
00ffff00
00ffff00
00ffff00
0ff00ff0
0ff00ff0
0ff00ff0
0ff00ff0
0ff00000
0ff00000
0ff00000
0ff00000
00ffff00
00ffff00
00ffff00
00ffff00
0ff00ff0
0ff00ff0
0ff00ff0
0ff00ff0
0ff00ff0
0ff00ff0
0ff00ff0
0ff00ff0
00ffff00
00ffff00
00ffff00
00ffff00
00000ff0
00000ff0
00000ff0
00000ff0
0ff00ff0
0ff00ff0
0ff00ff0
0ff00ff0
00ffff00
00ffff00
00ffff00
00ffff00
00000000
00000000
00000000
00000000
00000000
00000000
00000000
00000000
ENDCHAR
STARTCHAR dieresis
ENCODING 168
SWIDTH 568 0
DWIDTH 32 0
BBX 32 52 0 -8
BITMAP
00000000
00000000
00000000
00000000
0ff0ff00
0ff0ff00
0ff0ff00
0ff0ff00
0ff0ff00
0ff0ff00
0ff0ff00
0ff0ff00
00000000
00000000
00000000
00000000
00000000
00000000
00000000
00000000
00000000
00000000
00000000
00000000
00000000
00000000
00000000
00000000
00000000
00000000
00000000
00000000
00000000
00000000
00000000
00000000
00000000
00000000
00000000
00000000
00000000
00000000
00000000
00000000
00000000
00000000
00000000
00000000
00000000
00000000
00000000
00000000
ENDCHAR
STARTCHAR copyright
ENCODING 169
SWIDTH 568 0
DWIDTH 32 0
BBX 32 52 0 -8
BITMAP
00000000
00000000
00000000
00000000
0fffff00
0fffff00
0fffff00
0fffff00
ff000ff0
ff000ff0
ff000ff0
ff000ff0
f0fff0f0
f0fff0f0
f0fff0f0
f0fff0f0
fff0f0f0
fff0f0f0
fff0f0f0
fff0f0f0
fff000f0
fff000f0
fff000f0
fff000f0
fff0f0f0
fff0f0f0
fff0f0f0
fff0f0f0
f0fff0f0
f0fff0f0
f0fff0f0
f0fff0f0
ff000ff0
ff000ff0
ff000ff0
ff000ff0
0fffff00
0fffff00
0fffff00
0fffff00
00000000
00000000
00000000
00000000
00000000
00000000
00000000
00000000
00000000
00000000
00000000
00000000
ENDCHAR
STARTCHAR ordfeminine
ENCODING 170
SWIDTH 568 0
DWIDTH 32 0
BBX 32 52 0 -8
BITMAP
00000000
00000000
00000000
00000000
0ffff000
0ffff000
0ffff000
0ffff000
0000ff00
0000ff00
0000ff00
0000ff00
0fffff00
0fffff00
0fffff00
0fffff00
0f00ff00
0f00ff00
0f00ff00
0f00ff00
0fffff00
0fffff00
0fffff00
0fffff00
00000000
00000000
00000000
00000000
0fffff00
0fffff00
0fffff00
0fffff00
00000000
00000000
00000000
00000000
00000000
00000000
00000000
00000000
00000000
00000000
00000000
00000000
00000000
00000000
00000000
00000000
00000000
00000000
00000000
00000000
ENDCHAR
STARTCHAR guillemotleft
ENCODING 171
SWIDTH 568 0
DWIDTH 32 0
BBX 32 52 0 -8
BITMAP
00000000
00000000
00000000
00000000
00000000
00000000
00000000
00000000
00000000
00000000
00000000
00000000
00ff0ff0
00ff0ff0
00ff0ff0
00ff0ff0
0ff0ff00
0ff0ff00
0ff0ff00
0ff0ff00
ff0ff000
ff0ff000
ff0ff000
ff0ff000
f0ff0000
f0ff0000
f0ff0000
f0ff0000
ff0ff000
ff0ff000
ff0ff000
ff0ff000
0ff0ff00
0ff0ff00
0ff0ff00
0ff0ff00
00ff0ff0
00ff0ff0
00ff0ff0
00ff0ff0
00000000
00000000
00000000
00000000
00000000
00000000
00000000
00000000
00000000
00000000
00000000
00000000
ENDCHAR
STARTCHAR logicalnot
ENCODING 172
SWIDTH 568 0
DWIDTH 32 0
BBX 32 52 0 -8
BITMAP
00000000
00000000
00000000
00000000
00000000
00000000
00000000
00000000
00000000
00000000
00000000
00000000
00000000
00000000
00000000
00000000
00000000
00000000
00000000
00000000
ffffff00
ffffff00
ffffff00
ffffff00
ffffff00
ffffff00
ffffff00
ffffff00
00000f00
00000f00
00000f00
00000f00
00000f00
00000f00
00000f00
00000f00
00000f00
00000f00
00000f00
00000f00
00000000
00000000
00000000
00000000
00000000
00000000
00000000
00000000
00000000
00000000
00000000
00000000
ENDCHAR
STARTCHAR hyphen
ENCODING 173
SWIDTH 568 0
DWIDTH 32 0
BBX 32 52 0 -8
BITMAP
00000000
00000000
00000000
00000000
00000000
00000000
00000000
00000000
00000000
00000000
00000000
00000000
00000000
00000000
00000000
00000000
00000000
00000000
00000000
00000000
00000000
00000000
00000000
00000000
0fffff00
0fffff00
0fffff00
0fffff00
00000000
00000000
00000000
00000000
00000000
00000000
00000000
00000000
00000000
00000000
00000000
00000000
00000000
00000000
00000000
00000000
00000000
00000000
00000000
00000000
00000000
00000000
00000000
00000000
ENDCHAR
STARTCHAR registered
ENCODING 174
SWIDTH 568 0
DWIDTH 32 0
BBX 32 52 0 -8
BITMAP
00000000
00000000
00000000
00000000
0fffff00
0fffff00
0fffff00
0fffff00
ff000ff0
ff000ff0
ff000ff0
ff000ff0
f0fff0f0
f0fff0f0
f0fff0f0
f0fff0f0
f0f0f0f0
f0f0f0f0
f0f0f0f0
f0f0f0f0
f0fff0f0
f0fff0f0
f0fff0f0
f0fff0f0
f0ff00f0
f0ff00f0
f0ff00f0
f0ff00f0
f0f0f0f0
f0f0f0f0
f0f0f0f0
f0f0f0f0
ff000ff0
ff000ff0
ff000ff0
ff000ff0
0fffff00
0fffff00
0fffff00
0fffff00
00000000
00000000
00000000
00000000
00000000
00000000
00000000
00000000
00000000
00000000
00000000
00000000
ENDCHAR
STARTCHAR macron
ENCODING 175
SWIDTH 568 0
DWIDTH 32 0
BBX 32 52 0 -8
BITMAP
0ffffff0
0ffffff0
0ffffff0
0ffffff0
00000000
00000000
00000000
00000000
00000000
00000000
00000000
00000000
00000000
00000000
00000000
00000000
00000000
00000000
00000000
00000000
00000000
00000000
00000000
00000000
00000000
00000000
00000000
00000000
00000000
00000000
00000000
00000000
00000000
00000000
00000000
00000000
00000000
00000000
00000000
00000000
00000000
00000000
00000000
00000000
00000000
00000000
00000000
00000000
00000000
00000000
00000000
00000000
ENDCHAR
STARTCHAR degree
ENCODING 176
SWIDTH 568 0
DWIDTH 32 0
BBX 32 52 0 -8
BITMAP
00000000
00000000
00000000
00000000
00ffff00
00ffff00
00ffff00
00ffff00
0ff00ff0
0ff00ff0
0ff00ff0
0ff00ff0
0ff00ff0
0ff00ff0
0ff00ff0
0ff00ff0
00ffff00
00ffff00
00ffff00
00ffff00
00000000
00000000
00000000
00000000
00000000
00000000
00000000
00000000
00000000
00000000
00000000
00000000
00000000
00000000
00000000
00000000
00000000
00000000
00000000
00000000
00000000
00000000
00000000
00000000
00000000
00000000
00000000
00000000
00000000
00000000
00000000
00000000
ENDCHAR
STARTCHAR plusminus
ENCODING 177
SWIDTH 568 0
DWIDTH 32 0
BBX 32 52 0 -8
BITMAP
00000000
00000000
00000000
00000000
00000000
00000000
00000000
00000000
00000000
00000000
00000000
00000000
000ff000
000ff000
000ff000
000ff000
000ff000
000ff000
000ff000
000ff000
0ffffff0
0ffffff0
0ffffff0
0ffffff0
000ff000
000ff000
000ff000
000ff000
000ff000
000ff000
000ff000
000ff000
00000000
00000000
00000000
00000000
0ffffff0
0ffffff0
0ffffff0
0ffffff0
00000000
00000000
00000000
00000000
00000000
00000000
00000000
00000000
00000000
00000000
00000000
00000000
ENDCHAR
STARTCHAR twosuperior
ENCODING 178
SWIDTH 568 0
DWIDTH 32 0
BBX 32 52 0 -8
BITMAP
00000000
00000000
00000000
00000000
0fff0000
0fff0000
0fff0000
0fff0000
0f0ff000
0f0ff000
0f0ff000
0f0ff000
000ff000
000ff000
000ff000
000ff000
00ff0000
00ff0000
00ff0000
00ff0000
0ff00000
0ff00000
0ff00000
0ff00000
0ffff000
0ffff000
0ffff000
0ffff000
00000000
00000000
00000000
00000000
00000000
00000000
00000000
00000000
00000000
00000000
00000000
00000000
00000000
00000000
00000000
00000000
00000000
00000000
00000000
00000000
00000000
00000000
00000000
00000000
ENDCHAR
STARTCHAR threesuperior
ENCODING 179
SWIDTH 568 0
DWIDTH 32 0
BBX 32 52 0 -8
BITMAP
00000000
00000000
00000000
00000000
0fff0000
0fff0000
0fff0000
0fff0000
0f0ff000
0f0ff000
0f0ff000
0f0ff000
00ff0000
00ff0000
00ff0000
00ff0000
000ff000
000ff000
000ff000
000ff000
0f0ff000
0f0ff000
0f0ff000
0f0ff000
0fff0000
0fff0000
0fff0000
0fff0000
00000000
00000000
00000000
00000000
00000000
00000000
00000000
00000000
00000000
00000000
00000000
00000000
00000000
00000000
00000000
00000000
00000000
00000000
00000000
00000000
00000000
00000000
00000000
00000000
ENDCHAR
STARTCHAR acute
ENCODING 180
SWIDTH 568 0
DWIDTH 32 0
BBX 32 52 0 -8
BITMAP
00000000
00000000
00000000
00000000
0000ff00
0000ff00
0000ff00
0000ff00
000ff000
000ff000
000ff000
000ff000
00ff0000
00ff0000
00ff0000
00ff0000
00000000
00000000
00000000
00000000
00000000
00000000
00000000
00000000
00000000
00000000
00000000
00000000
00000000
00000000
00000000
00000000
00000000
00000000
00000000
00000000
00000000
00000000
00000000
00000000
00000000
00000000
00000000
00000000
00000000
00000000
00000000
00000000
00000000
00000000
00000000
00000000
ENDCHAR
STARTCHAR mu
ENCODING 181
SWIDTH 568 0
DWIDTH 32 0
BBX 32 52 0 -8
BITMAP
00000000
00000000
00000000
00000000
00000000
00000000
00000000
00000000
00000000
00000000
00000000
00000000
00000000
00000000
00000000
00000000
ff000ff0
ff000ff0
ff000ff0
ff000ff0
ff000ff0
ff000ff0
ff000ff0
ff000ff0
ff000ff0
ff000ff0
ff000ff0
ff000ff0
ff000ff0
ff000ff0
ff000ff0
ff000ff0
ff000ff0
ff000ff0
ff000ff0
ff000ff0
fff0fff0
fff0fff0
fff0fff0
fff0fff0
ffffff00
ffffff00
ffffff00
ffffff00
ff000000
ff000000
ff000000
ff000000
ff000000
ff000000
ff000000
ff000000
ENDCHAR
STARTCHAR paragraph
ENCODING 182
SWIDTH 568 0
DWIDTH 32 0
BBX 32 52 0 -8
BITMAP
00000000
00000000
00000000
00000000
00fffff0
00fffff0
00fffff0
00fffff0
0ffff0f0
0ffff0f0
0ffff0f0
0ffff0f0
ff00f0f0
ff00f0f0
ff00f0f0
ff00f0f0
ff00f0f0
ff00f0f0
ff00f0f0
ff00f0f0
ff00f0f0
ff00f0f0
ff00f0f0
ff00f0f0
0ffff0f0
0ffff0f0
0ffff0f0
0ffff0f0
00fff0f0
00fff0f0
00fff0f0
00fff0f0
0000f0f0
0000f0f0
0000f0f0
0000f0f0
0000f0f0
0000f0f0
0000f0f0
0000f0f0
0000f0f0
0000f0f0
0000f0f0
0000f0f0
0000fff0
0000fff0
0000fff0
0000fff0
00000000
00000000
00000000
00000000
ENDCHAR
STARTCHAR periodcentered
ENCODING 183
SWIDTH 568 0
DWIDTH 32 0
BBX 32 52 0 -8
BITMAP
00000000
00000000
00000000
00000000
00000000
00000000
00000000
00000000
00000000
00000000
00000000
00000000
00000000
00000000
00000000
00000000
00000000
00000000
00000000
00000000
000ff000
000ff000
000ff000
000ff000
000ff000
000ff000
000ff000
000ff000
00000000
00000000
00000000
00000000
00000000
00000000
00000000
00000000
00000000
00000000
00000000
00000000
00000000
00000000
00000000
00000000
00000000
00000000
00000000
00000000
00000000
00000000
00000000
00000000
ENDCHAR
STARTCHAR cedilla
ENCODING 184
SWIDTH 568 0
DWIDTH 32 0
BBX 32 52 0 -8
BITMAP
00000000
00000000
00000000
00000000
00000000
00000000
00000000
00000000
00000000
00000000
00000000
00000000
00000000
00000000
00000000
00000000
00000000
00000000
00000000
00000000
00000000
00000000
00000000
00000000
00000000
00000000
00000000
00000000
00000000
00000000
00000000
00000000
00000000
00000000
00000000
00000000
00000000
00000000
00000000
00000000
000ff000
000ff000
000ff000
000ff000
0f00f000
0f00f000
0f00f000
0f00f000
00ff0000
00ff0000
00ff0000
00ff0000
ENDCHAR
STARTCHAR onesuperior
ENCODING 185
SWIDTH 568 0
DWIDTH 32 0
BBX 32 52 0 -8
BITMAP
00000000
00000000
00000000
00000000
00ff0000
00ff0000
00ff0000
00ff0000
0fff0000
0fff0000
0fff0000
0fff0000
00ff0000
00ff0000
00ff0000
00ff0000
00ff0000
00ff0000
00ff0000
00ff0000
00ff0000
00ff0000
00ff0000
00ff0000
0ffff000
0ffff000
0ffff000
0ffff000
00000000
00000000
00000000
00000000
00000000
00000000
00000000
00000000
00000000
00000000
00000000
00000000
00000000
00000000
00000000
00000000
00000000
00000000
00000000
00000000
00000000
00000000
00000000
00000000
ENDCHAR
STARTCHAR ordmasculine
ENCODING 186
SWIDTH 568 0
DWIDTH 32 0
BBX 32 52 0 -8
BITMAP
00000000
00000000
00000000
00000000
00fff000
00fff000
00fff000
00fff000
0fffff00
0fffff00
0fffff00
0fffff00
0f000f00
0f000f00
0f000f00
0f000f00
0fffff00
0fffff00
0fffff00
0fffff00
00fff000
00fff000
00fff000
00fff000
00000000
00000000
00000000
00000000
0fffff00
0fffff00
0fffff00
0fffff00
00000000
00000000
00000000
00000000
00000000
00000000
00000000
00000000
00000000
00000000
00000000
00000000
00000000
00000000
00000000
00000000
00000000
00000000
00000000
00000000
ENDCHAR
STARTCHAR guillemotright
ENCODING 187
SWIDTH 568 0
DWIDTH 32 0
BBX 32 52 0 -8
BITMAP
00000000
00000000
00000000
00000000
00000000
00000000
00000000
00000000
00000000
00000000
00000000
00000000
ff0ff000
ff0ff000
ff0ff000
ff0ff000
0ff0ff00
0ff0ff00
0ff0ff00
0ff0ff00
00ff0ff0
00ff0ff0
00ff0ff0
00ff0ff0
000ff0f0
000ff0f0
000ff0f0
000ff0f0
00ff0ff0
00ff0ff0
00ff0ff0
00ff0ff0
0ff0ff00
0ff0ff00
0ff0ff00
0ff0ff00
ff0ff000
ff0ff000
ff0ff000
ff0ff000
00000000
00000000
00000000
00000000
00000000
00000000
00000000
00000000
00000000
00000000
00000000
00000000
ENDCHAR
STARTCHAR onequarter
ENCODING 188
SWIDTH 568 0
DWIDTH 32 0
BBX 32 52 0 -8
BITMAP
00000000
00000000
00000000
00000000
0ff00000
0ff00000
0ff00000
0ff00000
fff00000
fff00000
fff00000
fff00000
0ff00000
0ff00000
0ff00000
0ff00000
0ff00000
0ff00000
0ff00000
0ff00000
0ff000f0
0ff000f0
0ff000f0
0ff000f0
ffff0ff0
ffff0ff0
ffff0ff0
ffff0ff0
0000fff0
0000fff0
0000fff0
0000fff0
000ff0f0
000ff0f0
000ff0f0
000ff0f0
000ffff0
000ffff0
000ffff0
000ffff0
00000ff0
00000ff0
00000ff0
00000ff0
00000000
00000000
00000000
00000000
00000000
00000000
00000000
00000000
ENDCHAR
STARTCHAR onehalf
ENCODING 189
SWIDTH 568 0
DWIDTH 32 0
BBX 32 52 0 -8
BITMAP
00000000
00000000
00000000
00000000
0ff00000
0ff00000
0ff00000
0ff00000
fff00000
fff00000
fff00000
fff00000
0ff00000
0ff00000
0ff00000
0ff00000
0ff00000
0ff00000
0ff00000
0ff00000
0fffff00
0fffff00
0fffff00
0fffff00
ffff0ff0
ffff0ff0
ffff0ff0
ffff0ff0
00000ff0
00000ff0
00000ff0
00000ff0
0000ff00
0000ff00
0000ff00
0000ff00
000ff000
000ff000
000ff000
000ff000
000ffff0
000ffff0
000ffff0
000ffff0
00000000
00000000
00000000
00000000
00000000
00000000
00000000
00000000
ENDCHAR
STARTCHAR threequarters
ENCODING 190
SWIDTH 568 0
DWIDTH 32 0
BBX 32 52 0 -8
BITMAP
00000000
00000000
00000000
00000000
fff00000
fff00000
fff00000
fff00000
f0ff0000
f0ff0000
f0ff0000
f0ff0000
0ff00000
0ff00000
0ff00000
0ff00000
00ff0000
00ff0000
00ff0000
00ff0000
f0ff00f0
f0ff00f0
f0ff00f0
f0ff00f0
fff00ff0
fff00ff0
fff00ff0
fff00ff0
0000fff0
0000fff0
0000fff0
0000fff0
000ff0f0
000ff0f0
000ff0f0
000ff0f0
000ffff0
000ffff0
000ffff0
000ffff0
00000ff0
00000ff0
00000ff0
00000ff0
00000000
00000000
00000000
00000000
00000000
00000000
00000000
00000000
ENDCHAR
STARTCHAR questiondown
ENCODING 191
SWIDTH 568 0
DWIDTH 32 0
BBX 32 52 0 -8
BITMAP
00000000
00000000
00000000
00000000
000ff000
000ff000
000ff000
000ff000
000ff000
000ff000
000ff000
000ff000
00000000
00000000
00000000
00000000
000ff000
000ff000
000ff000
000ff000
000ff000
000ff000
000ff000
000ff000
00ff0000
00ff0000
00ff0000
00ff0000
0ff00000
0ff00000
0ff00000
0ff00000
0ff00ff0
0ff00ff0
0ff00ff0
0ff00ff0
0ff00ff0
0ff00ff0
0ff00ff0
0ff00ff0
00ffff00
00ffff00
00ffff00
00ffff00
00000000
00000000
00000000
00000000
00000000
00000000
00000000
00000000
ENDCHAR
STARTCHAR Agrave
ENCODING 192
SWIDTH 568 0
DWIDTH 32 0
BBX 32 52 0 -8
BITMAP
00000000
00000000
00000000
00000000
00ff0000
00ff0000
00ff0000
00ff0000
000ff000
000ff000
000ff000
000ff000
00000000
00000000
00000000
00000000
00fff000
00fff000
00fff000
00fff000
0fffff00
0fffff00
0fffff00
0fffff00
ff000ff0
ff000ff0
ff000ff0
ff000ff0
ff000ff0
ff000ff0
ff000ff0
ff000ff0
fffffff0
fffffff0
fffffff0
fffffff0
ff000ff0
ff000ff0
ff000ff0
ff000ff0
ff000ff0
ff000ff0
ff000ff0
ff000ff0
00000000
00000000
00000000
00000000
00000000
00000000
00000000
00000000
ENDCHAR
STARTCHAR Aacute
ENCODING 193
SWIDTH 568 0
DWIDTH 32 0
BBX 32 52 0 -8
BITMAP
00000000
00000000
00000000
00000000
000ff000
000ff000
000ff000
000ff000
00ff0000
00ff0000
00ff0000
00ff0000
00000000
00000000
00000000
00000000
00fff000
00fff000
00fff000
00fff000
0fffff00
0fffff00
0fffff00
0fffff00
ff000ff0
ff000ff0
ff000ff0
ff000ff0
ff000ff0
ff000ff0
ff000ff0
ff000ff0
fffffff0
fffffff0
fffffff0
fffffff0
ff000ff0
ff000ff0
ff000ff0
ff000ff0
ff000ff0
ff000ff0
ff000ff0
ff000ff0
00000000
00000000
00000000
00000000
00000000
00000000
00000000
00000000
ENDCHAR
STARTCHAR Acircumflex
ENCODING 194
SWIDTH 568 0
DWIDTH 32 0
BBX 32 52 0 -8
BITMAP
00000000
00000000
00000000
00000000
00fff000
00fff000
00fff000
00fff000
0ff0ff00
0ff0ff00
0ff0ff00
0ff0ff00
00000000
00000000
00000000
00000000
00fff000
00fff000
00fff000
00fff000
0fffff00
0fffff00
0fffff00
0fffff00
ff000ff0
ff000ff0
ff000ff0
ff000ff0
ff000ff0
ff000ff0
ff000ff0
ff000ff0
fffffff0
fffffff0
fffffff0
fffffff0
ff000ff0
ff000ff0
ff000ff0
ff000ff0
ff000ff0
ff000ff0
ff000ff0
ff000ff0
00000000
00000000
00000000
00000000
00000000
00000000
00000000
00000000
ENDCHAR
STARTCHAR Atilde
ENCODING 195
SWIDTH 568 0
DWIDTH 32 0
BBX 32 52 0 -8
BITMAP
00000000
00000000
00000000
00000000
00ff0f00
00ff0f00
00ff0f00
00ff0f00
0f0ff000
0f0ff000
0f0ff000
0f0ff000
00000000
00000000
00000000
00000000
00fff000
00fff000
00fff000
00fff000
0fffff00
0fffff00
0fffff00
0fffff00
ff000ff0
ff000ff0
ff000ff0
ff000ff0
ff000ff0
ff000ff0
ff000ff0
ff000ff0
fffffff0
fffffff0
fffffff0
fffffff0
ff000ff0
ff000ff0
ff000ff0
ff000ff0
ff000ff0
ff000ff0
ff000ff0
ff000ff0
00000000
00000000
00000000
00000000
00000000
00000000
00000000
00000000
ENDCHAR
STARTCHAR Adieresis
ENCODING 196
SWIDTH 568 0
DWIDTH 32 0
BBX 32 52 0 -8
BITMAP
00000000
00000000
00000000
00000000
0ff0ff00
0ff0ff00
0ff0ff00
0ff0ff00
0ff0ff00
0ff0ff00
0ff0ff00
0ff0ff00
00000000
00000000
00000000
00000000
00fff000
00fff000
00fff000
00fff000
0fffff00
0fffff00
0fffff00
0fffff00
ff000ff0
ff000ff0
ff000ff0
ff000ff0
ff000ff0
ff000ff0
ff000ff0
ff000ff0
fffffff0
fffffff0
fffffff0
fffffff0
ff000ff0
ff000ff0
ff000ff0
ff000ff0
ff000ff0
ff000ff0
ff000ff0
ff000ff0
00000000
00000000
00000000
00000000
00000000
00000000
00000000
00000000
ENDCHAR
STARTCHAR Aring
ENCODING 197
SWIDTH 568 0
DWIDTH 32 0
BBX 32 52 0 -8
BITMAP
000ff000
000ff000
000ff000
000ff000
00f00f00
00f00f00
00f00f00
00f00f00
000ff000
000ff000
000ff000
000ff000
00000000
00000000
00000000
00000000
00fff000
00fff000
00fff000
00fff000
0fffff00
0fffff00
0fffff00
0fffff00
ff000ff0
ff000ff0
ff000ff0
ff000ff0
ff000ff0
ff000ff0
ff000ff0
ff000ff0
fffffff0
fffffff0
fffffff0
fffffff0
ff000ff0
ff000ff0
ff000ff0
ff000ff0
ff000ff0
ff000ff0
ff000ff0
ff000ff0
00000000
00000000
00000000
00000000
00000000
00000000
00000000
00000000
ENDCHAR
STARTCHAR AE
ENCODING 198
SWIDTH 568 0
DWIDTH 32 0
BBX 32 52 0 -8
BITMAP
00000000
00000000
00000000
00000000
0ffffff0
0ffffff0
0ffffff0
0ffffff0
fffff000
fffff000
fffff000
fffff000
ff0ff000
ff0ff000
ff0ff000
ff0ff000
ff0ff000
ff0ff000
ff0ff000
ff0ff000
ff0ff000
ff0ff000
ff0ff000
ff0ff000
ffffff00
ffffff00
ffffff00
ffffff00
ff0ff000
ff0ff000
ff0ff000
ff0ff000
ff0ff000
ff0ff000
ff0ff000
ff0ff000
ff0ff000
ff0ff000
ff0ff000
ff0ff000
ff0ffff0
ff0ffff0
ff0ffff0
ff0ffff0
00000000
00000000
00000000
00000000
00000000
00000000
00000000
00000000
ENDCHAR
STARTCHAR Ccedilla
ENCODING 199
SWIDTH 568 0
DWIDTH 32 0
BBX 32 52 0 -8
BITMAP
00000000
00000000
00000000
00000000
0fffff00
0fffff00
0fffff00
0fffff00
fff00ff0
fff00ff0
fff00ff0
fff00ff0
ff000000
ff000000
ff000000
ff000000
ff000000
ff000000
ff000000
ff000000
ff000000
ff000000
ff000000
ff000000
ff000000
ff000000
ff000000
ff000000
ff000000
ff000000
ff000000
ff000000
fff00ff0
fff00ff0
fff00ff0
fff00ff0
0fffff00
0fffff00
0fffff00
0fffff00
000ff000
000ff000
000ff000
000ff000
0f00f000
0f00f000
0f00f000
0f00f000
00ff0000
00ff0000
00ff0000
00ff0000
ENDCHAR
STARTCHAR Egrave
ENCODING 200
SWIDTH 568 0
DWIDTH 32 0
BBX 32 52 0 -8
BITMAP
00000000
00000000
00000000
00000000
00ff0000
00ff0000
00ff0000
00ff0000
000ff000
000ff000
000ff000
000ff000
00000000
00000000
00000000
00000000
fffffff0
fffffff0
fffffff0
fffffff0
ff000000
ff000000
ff000000
ff000000
ff000000
ff000000
ff000000
ff000000
fffff000
fffff000
fffff000
fffff000
ff000000
ff000000
ff000000
ff000000
ff000000
ff000000
ff000000
ff000000
fffffff0
fffffff0
fffffff0
fffffff0
00000000
00000000
00000000
00000000
00000000
00000000
00000000
00000000
ENDCHAR
STARTCHAR Eacute
ENCODING 201
SWIDTH 568 0
DWIDTH 32 0
BBX 32 52 0 -8
BITMAP
00000000
00000000
00000000
00000000
000ff000
000ff000
000ff000
000ff000
00ff0000
00ff0000
00ff0000
00ff0000
00000000
00000000
00000000
00000000
fffffff0
fffffff0
fffffff0
fffffff0
ff000000
ff000000
ff000000
ff000000
ff000000
ff000000
ff000000
ff000000
fffff000
fffff000
fffff000
fffff000
ff000000
ff000000
ff000000
ff000000
ff000000
ff000000
ff000000
ff000000
fffffff0
fffffff0
fffffff0
fffffff0
00000000
00000000
00000000
00000000
00000000
00000000
00000000
00000000
ENDCHAR
STARTCHAR Ecircumflex
ENCODING 202
SWIDTH 568 0
DWIDTH 32 0
BBX 32 52 0 -8
BITMAP
00000000
00000000
00000000
00000000
00fff000
00fff000
00fff000
00fff000
0ff0ff00
0ff0ff00
0ff0ff00
0ff0ff00
00000000
00000000
00000000
00000000
fffffff0
fffffff0
fffffff0
fffffff0
ff000000
ff000000
ff000000
ff000000
ff000000
ff000000
ff000000
ff000000
fffff000
fffff000
fffff000
fffff000
ff000000
ff000000
ff000000
ff000000
ff000000
ff000000
ff000000
ff000000
fffffff0
fffffff0
fffffff0
fffffff0
00000000
00000000
00000000
00000000
00000000
00000000
00000000
00000000
ENDCHAR
STARTCHAR Edieresis
ENCODING 203
SWIDTH 568 0
DWIDTH 32 0
BBX 32 52 0 -8
BITMAP
00000000
00000000
00000000
00000000
0ff0ff00
0ff0ff00
0ff0ff00
0ff0ff00
0ff0ff00
0ff0ff00
0ff0ff00
0ff0ff00
00000000
00000000
00000000
00000000
fffffff0
fffffff0
fffffff0
fffffff0
ff000000
ff000000
ff000000
ff000000
ff000000
ff000000
ff000000
ff000000
fffff000
fffff000
fffff000
fffff000
ff000000
ff000000
ff000000
ff000000
ff000000
ff000000
ff000000
ff000000
fffffff0
fffffff0
fffffff0
fffffff0
00000000
00000000
00000000
00000000
00000000
00000000
00000000
00000000
ENDCHAR
STARTCHAR Igrave
ENCODING 204
SWIDTH 568 0
DWIDTH 32 0
BBX 32 52 0 -8
BITMAP
00000000
00000000
00000000
00000000
00ff0000
00ff0000
00ff0000
00ff0000
000ff000
000ff000
000ff000
000ff000
00000000
00000000
00000000
00000000
00ffff00
00ffff00
00ffff00
00ffff00
000ff000
000ff000
000ff000
000ff000
000ff000
000ff000
000ff000
000ff000
000ff000
000ff000
000ff000
000ff000
000ff000
000ff000
000ff000
000ff000
000ff000
000ff000
000ff000
000ff000
00ffff00
00ffff00
00ffff00
00ffff00
00000000
00000000
00000000
00000000
00000000
00000000
00000000
00000000
ENDCHAR
STARTCHAR Iacute
ENCODING 205
SWIDTH 568 0
DWIDTH 32 0
BBX 32 52 0 -8
BITMAP
00000000
00000000
00000000
00000000
0000ff00
0000ff00
0000ff00
0000ff00
000ff000
000ff000
000ff000
000ff000
00000000
00000000
00000000
00000000
00ffff00
00ffff00
00ffff00
00ffff00
000ff000
000ff000
000ff000
000ff000
000ff000
000ff000
000ff000
000ff000
000ff000
000ff000
000ff000
000ff000
000ff000
000ff000
000ff000
000ff000
000ff000
000ff000
000ff000
000ff000
00ffff00
00ffff00
00ffff00
00ffff00
00000000
00000000
00000000
00000000
00000000
00000000
00000000
00000000
ENDCHAR
STARTCHAR Icircumflex
ENCODING 206
SWIDTH 568 0
DWIDTH 32 0
BBX 32 52 0 -8
BITMAP
00000000
00000000
00000000
00000000
000fff00
000fff00
000fff00
000fff00
00ff0ff0
00ff0ff0
00ff0ff0
00ff0ff0
00000000
00000000
00000000
00000000
00ffff00
00ffff00
00ffff00
00ffff00
000ff000
000ff000
000ff000
000ff000
000ff000
000ff000
000ff000
000ff000
000ff000
000ff000
000ff000
000ff000
000ff000
000ff000
000ff000
000ff000
000ff000
000ff000
000ff000
000ff000
00ffff00
00ffff00
00ffff00
00ffff00
00000000
00000000
00000000
00000000
00000000
00000000
00000000
00000000
ENDCHAR
STARTCHAR Idieresis
ENCODING 207
SWIDTH 568 0
DWIDTH 32 0
BBX 32 52 0 -8
BITMAP
00000000
00000000
00000000
00000000
00ff0ff0
00ff0ff0
00ff0ff0
00ff0ff0
00ff0ff0
00ff0ff0
00ff0ff0
00ff0ff0
00000000
00000000
00000000
00000000
00ffff00
00ffff00
00ffff00
00ffff00
000ff000
000ff000
000ff000
000ff000
000ff000
000ff000
000ff000
000ff000
000ff000
000ff000
000ff000
000ff000
000ff000
000ff000
000ff000
000ff000
000ff000
000ff000
000ff000
000ff000
00ffff00
00ffff00
00ffff00
00ffff00
00000000
00000000
00000000
00000000
00000000
00000000
00000000
00000000
ENDCHAR
STARTCHAR Eth
ENCODING 208
SWIDTH 568 0
DWIDTH 32 0
BBX 32 52 0 -8
BITMAP
00000000
00000000
00000000
00000000
00000000
00000000
00000000
00000000
00000000
00000000
00000000
00000000
ffffff00
ffffff00
ffffff00
ffffff00
0ff00ff0
0ff00ff0
0ff00ff0
0ff00ff0
0ff00ff0
0ff00ff0
0ff00ff0
0ff00ff0
ffff0ff0
ffff0ff0
ffff0ff0
ffff0ff0
0ff00ff0
0ff00ff0
0ff00ff0
0ff00ff0
0ff00ff0
0ff00ff0
0ff00ff0
0ff00ff0
0ff00ff0
0ff00ff0
0ff00ff0
0ff00ff0
ffffff00
ffffff00
ffffff00
ffffff00
00000000
00000000
00000000
00000000
00000000
00000000
00000000
00000000
ENDCHAR
STARTCHAR Ntilde
ENCODING 209
SWIDTH 568 0
DWIDTH 32 0
BBX 32 52 0 -8
BITMAP
00000000
00000000
00000000
00000000
00ff0f00
00ff0f00
00ff0f00
00ff0f00
0f0ff000
0f0ff000
0f0ff000
0f0ff000
00000000
00000000
00000000
00000000
ff000ff0
ff000ff0
ff000ff0
ff000ff0
fff00ff0
fff00ff0
fff00ff0
fff00ff0
ffff0ff0
ffff0ff0
ffff0ff0
ffff0ff0
ff0f0ff0
ff0f0ff0
ff0f0ff0
ff0f0ff0
ff0ffff0
ff0ffff0
ff0ffff0
ff0ffff0
ff00fff0
ff00fff0
ff00fff0
ff00fff0
ff000ff0
ff000ff0
ff000ff0
ff000ff0
00000000
00000000
00000000
00000000
00000000
00000000
00000000
00000000
ENDCHAR
STARTCHAR Ograve
ENCODING 210
SWIDTH 568 0
DWIDTH 32 0
BBX 32 52 0 -8
BITMAP
00ff0000
00ff0000
00ff0000
00ff0000
000ff000
000ff000
000ff000
000ff000
00000000
00000000
00000000
00000000
0fffff00
0fffff00
0fffff00
0fffff00
ff000ff0
ff000ff0
ff000ff0
ff000ff0
ff000ff0
ff000ff0
ff000ff0
ff000ff0
ff000ff0
ff000ff0
ff000ff0
ff000ff0
ff000ff0
ff000ff0
ff000ff0
ff000ff0
ff000ff0
ff000ff0
ff000ff0
ff000ff0
ff000ff0
ff000ff0
ff000ff0
ff000ff0
0fffff00
0fffff00
0fffff00
0fffff00
00000000
00000000
00000000
00000000
00000000
00000000
00000000
00000000
ENDCHAR
STARTCHAR Oacute
ENCODING 211
SWIDTH 568 0
DWIDTH 32 0
BBX 32 52 0 -8
BITMAP
000ff000
000ff000
000ff000
000ff000
00ff0000
00ff0000
00ff0000
00ff0000
00000000
00000000
00000000
00000000
0fffff00
0fffff00
0fffff00
0fffff00
ff000ff0
ff000ff0
ff000ff0
ff000ff0
ff000ff0
ff000ff0
ff000ff0
ff000ff0
ff000ff0
ff000ff0
ff000ff0
ff000ff0
ff000ff0
ff000ff0
ff000ff0
ff000ff0
ff000ff0
ff000ff0
ff000ff0
ff000ff0
ff000ff0
ff000ff0
ff000ff0
ff000ff0
0fffff00
0fffff00
0fffff00
0fffff00
00000000
00000000
00000000
00000000
00000000
00000000
00000000
00000000
ENDCHAR
STARTCHAR Ocircumflex
ENCODING 212
SWIDTH 568 0
DWIDTH 32 0
BBX 32 52 0 -8
BITMAP
00fff000
00fff000
00fff000
00fff000
0ff0ff00
0ff0ff00
0ff0ff00
0ff0ff00
00000000
00000000
00000000
00000000
0fffff00
0fffff00
0fffff00
0fffff00
ff000ff0
ff000ff0
ff000ff0
ff000ff0
ff000ff0
ff000ff0
ff000ff0
ff000ff0
ff000ff0
ff000ff0
ff000ff0
ff000ff0
ff000ff0
ff000ff0
ff000ff0
ff000ff0
ff000ff0
ff000ff0
ff000ff0
ff000ff0
ff000ff0
ff000ff0
ff000ff0
ff000ff0
0fffff00
0fffff00
0fffff00
0fffff00
00000000
00000000
00000000
00000000
00000000
00000000
00000000
00000000
ENDCHAR
STARTCHAR Otilde
ENCODING 213
SWIDTH 568 0
DWIDTH 32 0
BBX 32 52 0 -8
BITMAP
00ff0f00
00ff0f00
00ff0f00
00ff0f00
0f0ff000
0f0ff000
0f0ff000
0f0ff000
00000000
00000000
00000000
00000000
0fffff00
0fffff00
0fffff00
0fffff00
ff000ff0
ff000ff0
ff000ff0
ff000ff0
ff000ff0
ff000ff0
ff000ff0
ff000ff0
ff000ff0
ff000ff0
ff000ff0
ff000ff0
ff000ff0
ff000ff0
ff000ff0
ff000ff0
ff000ff0
ff000ff0
ff000ff0
ff000ff0
ff000ff0
ff000ff0
ff000ff0
ff000ff0
0fffff00
0fffff00
0fffff00
0fffff00
00000000
00000000
00000000
00000000
00000000
00000000
00000000
00000000
ENDCHAR
STARTCHAR Odieresis
ENCODING 214
SWIDTH 568 0
DWIDTH 32 0
BBX 32 52 0 -8
BITMAP
0ff0ff00
0ff0ff00
0ff0ff00
0ff0ff00
0ff0ff00
0ff0ff00
0ff0ff00
0ff0ff00
00000000
00000000
00000000
00000000
0fffff00
0fffff00
0fffff00
0fffff00
ff000ff0
ff000ff0
ff000ff0
ff000ff0
ff000ff0
ff000ff0
ff000ff0
ff000ff0
ff000ff0
ff000ff0
ff000ff0
ff000ff0
ff000ff0
ff000ff0
ff000ff0
ff000ff0
ff000ff0
ff000ff0
ff000ff0
ff000ff0
ff000ff0
ff000ff0
ff000ff0
ff000ff0
0fffff00
0fffff00
0fffff00
0fffff00
00000000
00000000
00000000
00000000
00000000
00000000
00000000
00000000
ENDCHAR
STARTCHAR multiply
ENCODING 215
SWIDTH 568 0
DWIDTH 32 0
BBX 32 52 0 -8
BITMAP
00000000
00000000
00000000
00000000
00000000
00000000
00000000
00000000
00000000
00000000
00000000
00000000
00000000
00000000
00000000
00000000
ff000ff0
ff000ff0
ff000ff0
ff000ff0
ff000ff0
ff000ff0
ff000ff0
ff000ff0
0fffff00
0fffff00
0fffff00
0fffff00
00fff000
00fff000
00fff000
00fff000
0fffff00
0fffff00
0fffff00
0fffff00
ff000ff0
ff000ff0
ff000ff0
ff000ff0
ff000ff0
ff000ff0
ff000ff0
ff000ff0
00000000
00000000
00000000
00000000
00000000
00000000
00000000
00000000
ENDCHAR
STARTCHAR Oslash
ENCODING 216
SWIDTH 568 0
DWIDTH 32 0
BBX 32 52 0 -8
BITMAP
00000000
00000000
00000000
00000000
00000000
00000000
00000000
00000000
000000f0
000000f0
000000f0
000000f0
0fffff00
0fffff00
0fffff00
0fffff00
ff00fff0
ff00fff0
ff00fff0
ff00fff0
ff0f0ff0
ff0f0ff0
ff0f0ff0
ff0f0ff0
ff0f0ff0
ff0f0ff0
ff0f0ff0
ff0f0ff0
ff0f0ff0
ff0f0ff0
ff0f0ff0
ff0f0ff0
ff0f0ff0
ff0f0ff0
ff0f0ff0
ff0f0ff0
fff00ff0
fff00ff0
fff00ff0
fff00ff0
0fffff00
0fffff00
0fffff00
0fffff00
f0000000
f0000000
f0000000
f0000000
00000000
00000000
00000000
00000000
ENDCHAR
STARTCHAR Ugrave
ENCODING 217
SWIDTH 568 0
DWIDTH 32 0
BBX 32 52 0 -8
BITMAP
00000000
00000000
00000000
00000000
00ff0000
00ff0000
00ff0000
00ff0000
000ff000
000ff000
000ff000
000ff000
00000000
00000000
00000000
00000000
ff000ff0
ff000ff0
ff000ff0
ff000ff0
ff000ff0
ff000ff0
ff000ff0
ff000ff0
ff000ff0
ff000ff0
ff000ff0
ff000ff0
ff000ff0
ff000ff0
ff000ff0
ff000ff0
ff000ff0
ff000ff0
ff000ff0
ff000ff0
ff000ff0
ff000ff0
ff000ff0
ff000ff0
0fffff00
0fffff00
0fffff00
0fffff00
00000000
00000000
00000000
00000000
00000000
00000000
00000000
00000000
ENDCHAR
STARTCHAR Uacute
ENCODING 218
SWIDTH 568 0
DWIDTH 32 0
BBX 32 52 0 -8
BITMAP
00000000
00000000
00000000
00000000
000ff000
000ff000
000ff000
000ff000
00ff0000
00ff0000
00ff0000
00ff0000
00000000
00000000
00000000
00000000
ff000ff0
ff000ff0
ff000ff0
ff000ff0
ff000ff0
ff000ff0
ff000ff0
ff000ff0
ff000ff0
ff000ff0
ff000ff0
ff000ff0
ff000ff0
ff000ff0
ff000ff0
ff000ff0
ff000ff0
ff000ff0
ff000ff0
ff000ff0
ff000ff0
ff000ff0
ff000ff0
ff000ff0
0fffff00
0fffff00
0fffff00
0fffff00
00000000
00000000
00000000
00000000
00000000
00000000
00000000
00000000
ENDCHAR
STARTCHAR Ucircumflex
ENCODING 219
SWIDTH 568 0
DWIDTH 32 0
BBX 32 52 0 -8
BITMAP
00000000
00000000
00000000
00000000
00fff000
00fff000
00fff000
00fff000
0ff0ff00
0ff0ff00
0ff0ff00
0ff0ff00
00000000
00000000
00000000
00000000
ff000ff0
ff000ff0
ff000ff0
ff000ff0
ff000ff0
ff000ff0
ff000ff0
ff000ff0
ff000ff0
ff000ff0
ff000ff0
ff000ff0
ff000ff0
ff000ff0
ff000ff0
ff000ff0
ff000ff0
ff000ff0
ff000ff0
ff000ff0
ff000ff0
ff000ff0
ff000ff0
ff000ff0
0fffff00
0fffff00
0fffff00
0fffff00
00000000
00000000
00000000
00000000
00000000
00000000
00000000
00000000
ENDCHAR
STARTCHAR Udieresis
ENCODING 220
SWIDTH 568 0
DWIDTH 32 0
BBX 32 52 0 -8
BITMAP
00000000
00000000
00000000
00000000
0ff0ff00
0ff0ff00
0ff0ff00
0ff0ff00
0ff0ff00
0ff0ff00
0ff0ff00
0ff0ff00
00000000
00000000
00000000
00000000
ff000ff0
ff000ff0
ff000ff0
ff000ff0
ff000ff0
ff000ff0
ff000ff0
ff000ff0
ff000ff0
ff000ff0
ff000ff0
ff000ff0
ff000ff0
ff000ff0
ff000ff0
ff000ff0
ff000ff0
ff000ff0
ff000ff0
ff000ff0
ff000ff0
ff000ff0
ff000ff0
ff000ff0
0fffff00
0fffff00
0fffff00
0fffff00
00000000
00000000
00000000
00000000
00000000
00000000
00000000
00000000
ENDCHAR
STARTCHAR Yacute
ENCODING 221
SWIDTH 568 0
DWIDTH 32 0
BBX 32 52 0 -8
BITMAP
00000000
00000000
00000000
00000000
0000ff00
0000ff00
0000ff00
0000ff00
000ff000
000ff000
000ff000
000ff000
00000000
00000000
00000000
00000000
0ff00ff0
0ff00ff0
0ff00ff0
0ff00ff0
00f00f00
00f00f00
00f00f00
00f00f00
00ffff00
00ffff00
00ffff00
00ffff00
000ff000
000ff000
000ff000
000ff000
000ff000
000ff000
000ff000
000ff000
000ff000
000ff000
000ff000
000ff000
000ff000
000ff000
000ff000
000ff000
00000000
00000000
00000000
00000000
00000000
00000000
00000000
00000000
ENDCHAR
STARTCHAR Thorn
ENCODING 222
SWIDTH 568 0
DWIDTH 32 0
BBX 32 52 0 -8
BITMAP
00000000
00000000
00000000
00000000
00000000
00000000
00000000
00000000
ff000000
ff000000
ff000000
ff000000
ffffff00
ffffff00
ffffff00
ffffff00
ff000ff0
ff000ff0
ff000ff0
ff000ff0
ff000ff0
ff000ff0
ff000ff0
ff000ff0
ff000ff0
ff000ff0
ff000ff0
ff000ff0
ffffff00
ffffff00
ffffff00
ffffff00
ff000000
ff000000
ff000000
ff000000
ff000000
ff000000
ff000000
ff000000
ff000000
ff000000
ff000000
ff000000
00000000
00000000
00000000
00000000
00000000
00000000
00000000
00000000
ENDCHAR
STARTCHAR germandbls
ENCODING 223
SWIDTH 568 0
DWIDTH 32 0
BBX 32 52 0 -8
BITMAP
00000000
00000000
00000000
00000000
00ffff00
00ffff00
00ffff00
00ffff00
0ff00ff0
0ff00ff0
0ff00ff0
0ff00ff0
0ff00ff0
0ff00ff0
0ff00ff0
0ff00ff0
0ff0ff00
0ff0ff00
0ff0ff00
0ff0ff00
fff0ff00
fff0ff00
fff0ff00
fff0ff00
0ff0ff00
0ff0ff00
0ff0ff00
0ff0ff00
0ff00ff0
0ff00ff0
0ff00ff0
0ff00ff0
0ff00ff0
0ff00ff0
0ff00ff0
0ff00ff0
0ff00ff0
0ff00ff0
0ff00ff0
0ff00ff0
0ff0ff00
0ff0ff00
0ff0ff00
0ff0ff00
00000000
00000000
00000000
00000000
00000000
00000000
00000000
00000000
ENDCHAR
STARTCHAR agrave
ENCODING 224
SWIDTH 568 0
DWIDTH 32 0
BBX 32 52 0 -8
BITMAP
00000000
00000000
00000000
00000000
00ff0000
00ff0000
00ff0000
00ff0000
000ff000
000ff000
000ff000
000ff000
00000000
00000000
00000000
00000000
0fffff00
0fffff00
0fffff00
0fffff00
00000ff0
00000ff0
00000ff0
00000ff0
0ffffff0
0ffffff0
0ffffff0
0ffffff0
ff000ff0
ff000ff0
ff000ff0
ff000ff0
ff000ff0
ff000ff0
ff000ff0
ff000ff0
ff00fff0
ff00fff0
ff00fff0
ff00fff0
0fff0ff0
0fff0ff0
0fff0ff0
0fff0ff0
00000000
00000000
00000000
00000000
00000000
00000000
00000000
00000000
ENDCHAR
STARTCHAR aacute
ENCODING 225
SWIDTH 568 0
DWIDTH 32 0
BBX 32 52 0 -8
BITMAP
00000000
00000000
00000000
00000000
000ff000
000ff000
000ff000
000ff000
00ff0000
00ff0000
00ff0000
00ff0000
00000000
00000000
00000000
00000000
0fffff00
0fffff00
0fffff00
0fffff00
00000ff0
00000ff0
00000ff0
00000ff0
0ffffff0
0ffffff0
0ffffff0
0ffffff0
ff000ff0
ff000ff0
ff000ff0
ff000ff0
ff000ff0
ff000ff0
ff000ff0
ff000ff0
ff00fff0
ff00fff0
ff00fff0
ff00fff0
0fff0ff0
0fff0ff0
0fff0ff0
0fff0ff0
00000000
00000000
00000000
00000000
00000000
00000000
00000000
00000000
ENDCHAR
STARTCHAR acircumflex
ENCODING 226
SWIDTH 568 0
DWIDTH 32 0
BBX 32 52 0 -8
BITMAP
00000000
00000000
00000000
00000000
00fff000
00fff000
00fff000
00fff000
0ff0ff00
0ff0ff00
0ff0ff00
0ff0ff00
00000000
00000000
00000000
00000000
0fffff00
0fffff00
0fffff00
0fffff00
00000ff0
00000ff0
00000ff0
00000ff0
0ffffff0
0ffffff0
0ffffff0
0ffffff0
ff000ff0
ff000ff0
ff000ff0
ff000ff0
ff000ff0
ff000ff0
ff000ff0
ff000ff0
ff00fff0
ff00fff0
ff00fff0
ff00fff0
0fff0ff0
0fff0ff0
0fff0ff0
0fff0ff0
00000000
00000000
00000000
00000000
00000000
00000000
00000000
00000000
ENDCHAR
STARTCHAR atilde
ENCODING 227
SWIDTH 568 0
DWIDTH 32 0
BBX 32 52 0 -8
BITMAP
00000000
00000000
00000000
00000000
00ff0f00
00ff0f00
00ff0f00
00ff0f00
0f0ff000
0f0ff000
0f0ff000
0f0ff000
00000000
00000000
00000000
00000000
0fffff00
0fffff00
0fffff00
0fffff00
00000ff0
00000ff0
00000ff0
00000ff0
0ffffff0
0ffffff0
0ffffff0
0ffffff0
ff000ff0
ff000ff0
ff000ff0
ff000ff0
ff000ff0
ff000ff0
ff000ff0
ff000ff0
ff00fff0
ff00fff0
ff00fff0
ff00fff0
0fff0ff0
0fff0ff0
0fff0ff0
0fff0ff0
00000000
00000000
00000000
00000000
00000000
00000000
00000000
00000000
ENDCHAR
STARTCHAR adieresis
ENCODING 228
SWIDTH 568 0
DWIDTH 32 0
BBX 32 52 0 -8
BITMAP
00000000
00000000
00000000
00000000
0ff0ff00
0ff0ff00
0ff0ff00
0ff0ff00
0ff0ff00
0ff0ff00
0ff0ff00
0ff0ff00
00000000
00000000
00000000
00000000
0fffff00
0fffff00
0fffff00
0fffff00
00000ff0
00000ff0
00000ff0
00000ff0
0ffffff0
0ffffff0
0ffffff0
0ffffff0
ff000ff0
ff000ff0
ff000ff0
ff000ff0
ff000ff0
ff000ff0
ff000ff0
ff000ff0
ff00fff0
ff00fff0
ff00fff0
ff00fff0
0fff0ff0
0fff0ff0
0fff0ff0
0fff0ff0
00000000
00000000
00000000
00000000
00000000
00000000
00000000
00000000
ENDCHAR
STARTCHAR aring
ENCODING 229
SWIDTH 568 0
DWIDTH 32 0
BBX 32 52 0 -8
BITMAP
000ff000
000ff000
000ff000
000ff000
00f00f00
00f00f00
00f00f00
00f00f00
000ff000
000ff000
000ff000
000ff000
00000000
00000000
00000000
00000000
0fffff00
0fffff00
0fffff00
0fffff00
00000ff0
00000ff0
00000ff0
00000ff0
0ffffff0
0ffffff0
0ffffff0
0ffffff0
ff000ff0
ff000ff0
ff000ff0
ff000ff0
ff000ff0
ff000ff0
ff000ff0
ff000ff0
ff00fff0
ff00fff0
ff00fff0
ff00fff0
0fff0ff0
0fff0ff0
0fff0ff0
0fff0ff0
00000000
00000000
00000000
00000000
00000000
00000000
00000000
00000000
ENDCHAR
STARTCHAR ae
ENCODING 230
SWIDTH 568 0
DWIDTH 32 0
BBX 32 52 0 -8
BITMAP
00000000
00000000
00000000
00000000
00000000
00000000
00000000
00000000
00000000
00000000
00000000
00000000
00000000
00000000
00000000
00000000
0ff0ff00
0ff0ff00
0ff0ff00
0ff0ff00
ff0ff0f0
ff0ff0f0
ff0ff0f0
ff0ff0f0
000ff0f0
000ff0f0
000ff0f0
000ff0f0
0fffff00
0fffff00
0fffff00
0fffff00
ff0ff000
ff0ff000
ff0ff000
ff0ff000
ff0ff0f0
ff0ff0f0
ff0ff0f0
ff0ff0f0
0ff0ff00
0ff0ff00
0ff0ff00
0ff0ff00
00000000
00000000
00000000
00000000
00000000
00000000
00000000
00000000
ENDCHAR
STARTCHAR ccedilla
ENCODING 231
SWIDTH 568 0
DWIDTH 32 0
BBX 32 52 0 -8
BITMAP
00000000
00000000
00000000
00000000
00000000
00000000
00000000
00000000
00000000
00000000
00000000
00000000
0fffff00
0fffff00
0fffff00
0fffff00
fff00ff0
fff00ff0
fff00ff0
fff00ff0
ff000000
ff000000
ff000000
ff000000
ff000000
ff000000
ff000000
ff000000
ff000000
ff000000
ff000000
ff000000
fff00ff0
fff00ff0
fff00ff0
fff00ff0
0fffff00
0fffff00
0fffff00
0fffff00
000ff000
000ff000
000ff000
000ff000
0f00f000
0f00f000
0f00f000
0f00f000
00ff0000
00ff0000
00ff0000
00ff0000
ENDCHAR
STARTCHAR egrave
ENCODING 232
SWIDTH 568 0
DWIDTH 32 0
BBX 32 52 0 -8
BITMAP
00000000
00000000
00000000
00000000
00ff0000
00ff0000
00ff0000
00ff0000
000ff000
000ff000
000ff000
000ff000
00000000
00000000
00000000
00000000
0fffff00
0fffff00
0fffff00
0fffff00
ff000ff0
ff000ff0
ff000ff0
ff000ff0
ff000ff0
ff000ff0
ff000ff0
ff000ff0
fffffff0
fffffff0
fffffff0
fffffff0
ff000000
ff000000
ff000000
ff000000
ff000ff0
ff000ff0
ff000ff0
ff000ff0
0fffff00
0fffff00
0fffff00
0fffff00
00000000
00000000
00000000
00000000
00000000
00000000
00000000
00000000
ENDCHAR
STARTCHAR eacute
ENCODING 233
SWIDTH 568 0
DWIDTH 32 0
BBX 32 52 0 -8
BITMAP
00000000
00000000
00000000
00000000
000ff000
000ff000
000ff000
000ff000
00ff0000
00ff0000
00ff0000
00ff0000
00000000
00000000
00000000
00000000
0fffff00
0fffff00
0fffff00
0fffff00
ff000ff0
ff000ff0
ff000ff0
ff000ff0
ff000ff0
ff000ff0
ff000ff0
ff000ff0
fffffff0
fffffff0
fffffff0
fffffff0
ff000000
ff000000
ff000000
ff000000
ff000ff0
ff000ff0
ff000ff0
ff000ff0
0fffff00
0fffff00
0fffff00
0fffff00
00000000
00000000
00000000
00000000
00000000
00000000
00000000
00000000
ENDCHAR
STARTCHAR ecircumflex
ENCODING 234
SWIDTH 568 0
DWIDTH 32 0
BBX 32 52 0 -8
BITMAP
00000000
00000000
00000000
00000000
00fff000
00fff000
00fff000
00fff000
0ff0ff00
0ff0ff00
0ff0ff00
0ff0ff00
00000000
00000000
00000000
00000000
0fffff00
0fffff00
0fffff00
0fffff00
ff000ff0
ff000ff0
ff000ff0
ff000ff0
ff000ff0
ff000ff0
ff000ff0
ff000ff0
fffffff0
fffffff0
fffffff0
fffffff0
ff000000
ff000000
ff000000
ff000000
ff000ff0
ff000ff0
ff000ff0
ff000ff0
0fffff00
0fffff00
0fffff00
0fffff00
00000000
00000000
00000000
00000000
00000000
00000000
00000000
00000000
ENDCHAR
STARTCHAR edieresis
ENCODING 235
SWIDTH 568 0
DWIDTH 32 0
BBX 32 52 0 -8
BITMAP
00000000
00000000
00000000
00000000
0ff0ff00
0ff0ff00
0ff0ff00
0ff0ff00
0ff0ff00
0ff0ff00
0ff0ff00
0ff0ff00
00000000
00000000
00000000
00000000
0fffff00
0fffff00
0fffff00
0fffff00
ff000ff0
ff000ff0
ff000ff0
ff000ff0
ff000ff0
ff000ff0
ff000ff0
ff000ff0
fffffff0
fffffff0
fffffff0
fffffff0
ff000000
ff000000
ff000000
ff000000
ff000ff0
ff000ff0
ff000ff0
ff000ff0
0fffff00
0fffff00
0fffff00
0fffff00
00000000
00000000
00000000
00000000
00000000
00000000
00000000
00000000
ENDCHAR
STARTCHAR igrave
ENCODING 236
SWIDTH 568 0
DWIDTH 32 0
BBX 32 52 0 -8
BITMAP
00000000
00000000
00000000
00000000
00ff0000
00ff0000
00ff0000
00ff0000
000ff000
000ff000
000ff000
000ff000
00000000
00000000
00000000
00000000
00fff000
00fff000
00fff000
00fff000
000ff000
000ff000
000ff000
000ff000
000ff000
000ff000
000ff000
000ff000
000ff000
000ff000
000ff000
000ff000
000ff000
000ff000
000ff000
000ff000
000ff000
000ff000
000ff000
000ff000
00ffff00
00ffff00
00ffff00
00ffff00
00000000
00000000
00000000
00000000
00000000
00000000
00000000
00000000
ENDCHAR
STARTCHAR iacute
ENCODING 237
SWIDTH 568 0
DWIDTH 32 0
BBX 32 52 0 -8
BITMAP
00000000
00000000
00000000
00000000
000ff000
000ff000
000ff000
000ff000
00ff0000
00ff0000
00ff0000
00ff0000
00000000
00000000
00000000
00000000
00fff000
00fff000
00fff000
00fff000
000ff000
000ff000
000ff000
000ff000
000ff000
000ff000
000ff000
000ff000
000ff000
000ff000
000ff000
000ff000
000ff000
000ff000
000ff000
000ff000
000ff000
000ff000
000ff000
000ff000
00ffff00
00ffff00
00ffff00
00ffff00
00000000
00000000
00000000
00000000
00000000
00000000
00000000
00000000
ENDCHAR
STARTCHAR icircumflex
ENCODING 238
SWIDTH 568 0
DWIDTH 32 0
BBX 32 52 0 -8
BITMAP
00000000
00000000
00000000
00000000
00fff000
00fff000
00fff000
00fff000
0ff0ff00
0ff0ff00
0ff0ff00
0ff0ff00
00000000
00000000
00000000
00000000
00fff000
00fff000
00fff000
00fff000
000ff000
000ff000
000ff000
000ff000
000ff000
000ff000
000ff000
000ff000
000ff000
000ff000
000ff000
000ff000
000ff000
000ff000
000ff000
000ff000
000ff000
000ff000
000ff000
000ff000
00ffff00
00ffff00
00ffff00
00ffff00
00000000
00000000
00000000
00000000
00000000
00000000
00000000
00000000
ENDCHAR
STARTCHAR idieresis
ENCODING 239
SWIDTH 568 0
DWIDTH 32 0
BBX 32 52 0 -8
BITMAP
00000000
00000000
00000000
00000000
0ff0ff00
0ff0ff00
0ff0ff00
0ff0ff00
0ff0ff00
0ff0ff00
0ff0ff00
0ff0ff00
00000000
00000000
00000000
00000000
00fff000
00fff000
00fff000
00fff000
000ff000
000ff000
000ff000
000ff000
000ff000
000ff000
000ff000
000ff000
000ff000
000ff000
000ff000
000ff000
000ff000
000ff000
000ff000
000ff000
000ff000
000ff000
000ff000
000ff000
00ffff00
00ffff00
00ffff00
00ffff00
00000000
00000000
00000000
00000000
00000000
00000000
00000000
00000000
ENDCHAR
STARTCHAR eth
ENCODING 240
SWIDTH 568 0
DWIDTH 32 0
BBX 32 52 0 -8
BITMAP
00000000
00000000
00000000
00000000
0ff0ff00
0ff0ff00
0ff0ff00
0ff0ff00
00fff000
00fff000
00fff000
00fff000
0ffff000
0ffff000
0ffff000
0ffff000
0000ff00
0000ff00
0000ff00
0000ff00
0ffffff0
0ffffff0
0ffffff0
0ffffff0
ff000ff0
ff000ff0
ff000ff0
ff000ff0
ff000ff0
ff000ff0
ff000ff0
ff000ff0
ff000ff0
ff000ff0
ff000ff0
ff000ff0
ff000ff0
ff000ff0
ff000ff0
ff000ff0
0fffff00
0fffff00
0fffff00
0fffff00
00000000
00000000
00000000
00000000
00000000
00000000
00000000
00000000
ENDCHAR
STARTCHAR ntilde
ENCODING 241
SWIDTH 568 0
DWIDTH 32 0
BBX 32 52 0 -8
BITMAP
00000000
00000000
00000000
00000000
00ff0f00
00ff0f00
00ff0f00
00ff0f00
0f0ff000
0f0ff000
0f0ff000
0f0ff000
00000000
00000000
00000000
00000000
ff0fff00
ff0fff00
ff0fff00
ff0fff00
fff00ff0
fff00ff0
fff00ff0
fff00ff0
ff000ff0
ff000ff0
ff000ff0
ff000ff0
ff000ff0
ff000ff0
ff000ff0
ff000ff0
ff000ff0
ff000ff0
ff000ff0
ff000ff0
ff000ff0
ff000ff0
ff000ff0
ff000ff0
ff000ff0
ff000ff0
ff000ff0
ff000ff0
00000000
00000000
00000000
00000000
00000000
00000000
00000000
00000000
ENDCHAR
STARTCHAR ograve
ENCODING 242
SWIDTH 568 0
DWIDTH 32 0
BBX 32 52 0 -8
BITMAP
00000000
00000000
00000000
00000000
00ff0000
00ff0000
00ff0000
00ff0000
000ff000
000ff000
000ff000
000ff000
00000000
00000000
00000000
00000000
0fffff00
0fffff00
0fffff00
0fffff00
ff000ff0
ff000ff0
ff000ff0
ff000ff0
ff000ff0
ff000ff0
ff000ff0
ff000ff0
ff000ff0
ff000ff0
ff000ff0
ff000ff0
ff000ff0
ff000ff0
ff000ff0
ff000ff0
ff000ff0
ff000ff0
ff000ff0
ff000ff0
0fffff00
0fffff00
0fffff00
0fffff00
00000000
00000000
00000000
00000000
00000000
00000000
00000000
00000000
ENDCHAR
STARTCHAR oacute
ENCODING 243
SWIDTH 568 0
DWIDTH 32 0
BBX 32 52 0 -8
BITMAP
00000000
00000000
00000000
00000000
000ff000
000ff000
000ff000
000ff000
00ff0000
00ff0000
00ff0000
00ff0000
00000000
00000000
00000000
00000000
0fffff00
0fffff00
0fffff00
0fffff00
ff000ff0
ff000ff0
ff000ff0
ff000ff0
ff000ff0
ff000ff0
ff000ff0
ff000ff0
ff000ff0
ff000ff0
ff000ff0
ff000ff0
ff000ff0
ff000ff0
ff000ff0
ff000ff0
ff000ff0
ff000ff0
ff000ff0
ff000ff0
0fffff00
0fffff00
0fffff00
0fffff00
00000000
00000000
00000000
00000000
00000000
00000000
00000000
00000000
ENDCHAR
STARTCHAR ocircumflex
ENCODING 244
SWIDTH 568 0
DWIDTH 32 0
BBX 32 52 0 -8
BITMAP
00000000
00000000
00000000
00000000
00fff000
00fff000
00fff000
00fff000
0ff0ff00
0ff0ff00
0ff0ff00
0ff0ff00
00000000
00000000
00000000
00000000
0fffff00
0fffff00
0fffff00
0fffff00
ff000ff0
ff000ff0
ff000ff0
ff000ff0
ff000ff0
ff000ff0
ff000ff0
ff000ff0
ff000ff0
ff000ff0
ff000ff0
ff000ff0
ff000ff0
ff000ff0
ff000ff0
ff000ff0
ff000ff0
ff000ff0
ff000ff0
ff000ff0
0fffff00
0fffff00
0fffff00
0fffff00
00000000
00000000
00000000
00000000
00000000
00000000
00000000
00000000
ENDCHAR
STARTCHAR otilde
ENCODING 245
SWIDTH 568 0
DWIDTH 32 0
BBX 32 52 0 -8
BITMAP
00000000
00000000
00000000
00000000
00ff0f00
00ff0f00
00ff0f00
00ff0f00
0f0ff000
0f0ff000
0f0ff000
0f0ff000
00000000
00000000
00000000
00000000
0fffff00
0fffff00
0fffff00
0fffff00
ff000ff0
ff000ff0
ff000ff0
ff000ff0
ff000ff0
ff000ff0
ff000ff0
ff000ff0
ff000ff0
ff000ff0
ff000ff0
ff000ff0
ff000ff0
ff000ff0
ff000ff0
ff000ff0
ff000ff0
ff000ff0
ff000ff0
ff000ff0
0fffff00
0fffff00
0fffff00
0fffff00
00000000
00000000
00000000
00000000
00000000
00000000
00000000
00000000
ENDCHAR
STARTCHAR odieresis
ENCODING 246
SWIDTH 568 0
DWIDTH 32 0
BBX 32 52 0 -8
BITMAP
00000000
00000000
00000000
00000000
0ff0ff00
0ff0ff00
0ff0ff00
0ff0ff00
0ff0ff00
0ff0ff00
0ff0ff00
0ff0ff00
00000000
00000000
00000000
00000000
0fffff00
0fffff00
0fffff00
0fffff00
ff000ff0
ff000ff0
ff000ff0
ff000ff0
ff000ff0
ff000ff0
ff000ff0
ff000ff0
ff000ff0
ff000ff0
ff000ff0
ff000ff0
ff000ff0
ff000ff0
ff000ff0
ff000ff0
ff000ff0
ff000ff0
ff000ff0
ff000ff0
0fffff00
0fffff00
0fffff00
0fffff00
00000000
00000000
00000000
00000000
00000000
00000000
00000000
00000000
ENDCHAR
STARTCHAR divide
ENCODING 247
SWIDTH 568 0
DWIDTH 32 0
BBX 32 52 0 -8
BITMAP
00000000
00000000
00000000
00000000
00000000
00000000
00000000
00000000
00000000
00000000
00000000
00000000
000ff000
000ff000
000ff000
000ff000
000ff000
000ff000
000ff000
000ff000
00000000
00000000
00000000
00000000
0ffffff0
0ffffff0
0ffffff0
0ffffff0
00000000
00000000
00000000
00000000
000ff000
000ff000
000ff000
000ff000
000ff000
000ff000
000ff000
000ff000
00000000
00000000
00000000
00000000
00000000
00000000
00000000
00000000
00000000
00000000
00000000
00000000
ENDCHAR
STARTCHAR oslash
ENCODING 248
SWIDTH 568 0
DWIDTH 32 0
BBX 32 52 0 -8
BITMAP
00000000
00000000
00000000
00000000
00000000
00000000
00000000
00000000
00000000
00000000
00000000
00000000
000000f0
000000f0
000000f0
000000f0
0fffff00
0fffff00
0fffff00
0fffff00
ff00fff0
ff00fff0
ff00fff0
ff00fff0
ff0f0ff0
ff0f0ff0
ff0f0ff0
ff0f0ff0
ff0f0ff0
ff0f0ff0
ff0f0ff0
ff0f0ff0
ff0f0ff0
ff0f0ff0
ff0f0ff0
ff0f0ff0
fff00ff0
fff00ff0
fff00ff0
fff00ff0
0fffff00
0fffff00
0fffff00
0fffff00
f0000000
f0000000
f0000000
f0000000
00000000
00000000
00000000
00000000
ENDCHAR
STARTCHAR ugrave
ENCODING 249
SWIDTH 568 0
DWIDTH 32 0
BBX 32 52 0 -8
BITMAP
00000000
00000000
00000000
00000000
00ff0000
00ff0000
00ff0000
00ff0000
000ff000
000ff000
000ff000
000ff000
00000000
00000000
00000000
00000000
ff000ff0
ff000ff0
ff000ff0
ff000ff0
ff000ff0
ff000ff0
ff000ff0
ff000ff0
ff000ff0
ff000ff0
ff000ff0
ff000ff0
ff000ff0
ff000ff0
ff000ff0
ff000ff0
ff000ff0
ff000ff0
ff000ff0
ff000ff0
ff00fff0
ff00fff0
ff00fff0
ff00fff0
0fff0ff0
0fff0ff0
0fff0ff0
0fff0ff0
00000000
00000000
00000000
00000000
00000000
00000000
00000000
00000000
ENDCHAR
STARTCHAR uacute
ENCODING 250
SWIDTH 568 0
DWIDTH 32 0
BBX 32 52 0 -8
BITMAP
00000000
00000000
00000000
00000000
000ff000
000ff000
000ff000
000ff000
00ff0000
00ff0000
00ff0000
00ff0000
00000000
00000000
00000000
00000000
ff000ff0
ff000ff0
ff000ff0
ff000ff0
ff000ff0
ff000ff0
ff000ff0
ff000ff0
ff000ff0
ff000ff0
ff000ff0
ff000ff0
ff000ff0
ff000ff0
ff000ff0
ff000ff0
ff000ff0
ff000ff0
ff000ff0
ff000ff0
ff00fff0
ff00fff0
ff00fff0
ff00fff0
0fff0ff0
0fff0ff0
0fff0ff0
0fff0ff0
00000000
00000000
00000000
00000000
00000000
00000000
00000000
00000000
ENDCHAR
STARTCHAR ucircumflex
ENCODING 251
SWIDTH 568 0
DWIDTH 32 0
BBX 32 52 0 -8
BITMAP
00000000
00000000
00000000
00000000
00fff000
00fff000
00fff000
00fff000
0ff0ff00
0ff0ff00
0ff0ff00
0ff0ff00
00000000
00000000
00000000
00000000
ff000ff0
ff000ff0
ff000ff0
ff000ff0
ff000ff0
ff000ff0
ff000ff0
ff000ff0
ff000ff0
ff000ff0
ff000ff0
ff000ff0
ff000ff0
ff000ff0
ff000ff0
ff000ff0
ff000ff0
ff000ff0
ff000ff0
ff000ff0
ff00fff0
ff00fff0
ff00fff0
ff00fff0
0fff0ff0
0fff0ff0
0fff0ff0
0fff0ff0
00000000
00000000
00000000
00000000
00000000
00000000
00000000
00000000
ENDCHAR
STARTCHAR udieresis
ENCODING 252
SWIDTH 568 0
DWIDTH 32 0
BBX 32 52 0 -8
BITMAP
00000000
00000000
00000000
00000000
0ff0ff00
0ff0ff00
0ff0ff00
0ff0ff00
0ff0ff00
0ff0ff00
0ff0ff00
0ff0ff00
00000000
00000000
00000000
00000000
ff000ff0
ff000ff0
ff000ff0
ff000ff0
ff000ff0
ff000ff0
ff000ff0
ff000ff0
ff000ff0
ff000ff0
ff000ff0
ff000ff0
ff000ff0
ff000ff0
ff000ff0
ff000ff0
ff000ff0
ff000ff0
ff000ff0
ff000ff0
ff00fff0
ff00fff0
ff00fff0
ff00fff0
0fff0ff0
0fff0ff0
0fff0ff0
0fff0ff0
00000000
00000000
00000000
00000000
00000000
00000000
00000000
00000000
ENDCHAR
STARTCHAR yacute
ENCODING 253
SWIDTH 568 0
DWIDTH 32 0
BBX 32 52 0 -8
BITMAP
00000000
00000000
00000000
00000000
000ff000
000ff000
000ff000
000ff000
00ff0000
00ff0000
00ff0000
00ff0000
00000000
00000000
00000000
00000000
ff000ff0
ff000ff0
ff000ff0
ff000ff0
ff000ff0
ff000ff0
ff000ff0
ff000ff0
ff000ff0
ff000ff0
ff000ff0
ff000ff0
ff000ff0
ff000ff0
ff000ff0
ff000ff0
ff00fff0
ff00fff0
ff00fff0
ff00fff0
0fff0ff0
0fff0ff0
0fff0ff0
0fff0ff0
00000ff0
00000ff0
00000ff0
00000ff0
ff000ff0
ff000ff0
ff000ff0
ff000ff0
0fffff00
0fffff00
0fffff00
0fffff00
ENDCHAR
STARTCHAR thorn
ENCODING 254
SWIDTH 568 0
DWIDTH 32 0
BBX 32 52 0 -8
BITMAP
00000000
00000000
00000000
00000000
00000000
00000000
00000000
00000000
ff000000
ff000000
ff000000
ff000000
ff000000
ff000000
ff000000
ff000000
ff0fff00
ff0fff00
ff0fff00
ff0fff00
fff00ff0
fff00ff0
fff00ff0
fff00ff0
ff000ff0
ff000ff0
ff000ff0
ff000ff0
ff000ff0
ff000ff0
ff000ff0
ff000ff0
ff000ff0
ff000ff0
ff000ff0
ff000ff0
fff00ff0
fff00ff0
fff00ff0
fff00ff0
ff0fff00
ff0fff00
ff0fff00
ff0fff00
ff000000
ff000000
ff000000
ff000000
ff000000
ff000000
ff000000
ff000000
ENDCHAR
STARTCHAR ydieresis
ENCODING 255
SWIDTH 568 0
DWIDTH 32 0
BBX 32 52 0 -8
BITMAP
00000000
00000000
00000000
00000000
0ff0ff00
0ff0ff00
0ff0ff00
0ff0ff00
0ff0ff00
0ff0ff00
0ff0ff00
0ff0ff00
00000000
00000000
00000000
00000000
ff000ff0
ff000ff0
ff000ff0
ff000ff0
ff000ff0
ff000ff0
ff000ff0
ff000ff0
ff000ff0
ff000ff0
ff000ff0
ff000ff0
ff000ff0
ff000ff0
ff000ff0
ff000ff0
ff00fff0
ff00fff0
ff00fff0
ff00fff0
0fff0ff0
0fff0ff0
0fff0ff0
0fff0ff0
00000ff0
00000ff0
00000ff0
00000ff0
ff000ff0
ff000ff0
ff000ff0
ff000ff0
0fffff00
0fffff00
0fffff00
0fffff00
ENDCHAR
STARTCHAR Amacron
ENCODING 256
SWIDTH 568 0
DWIDTH 32 0
BBX 32 52 0 -8
BITMAP
00000000
00000000
00000000
00000000
0fffff00
0fffff00
0fffff00
0fffff00
00000000
00000000
00000000
00000000
00fff000
00fff000
00fff000
00fff000
0fffff00
0fffff00
0fffff00
0fffff00
ff000ff0
ff000ff0
ff000ff0
ff000ff0
ff000ff0
ff000ff0
ff000ff0
ff000ff0
fffffff0
fffffff0
fffffff0
fffffff0
ff000ff0
ff000ff0
ff000ff0
ff000ff0
ff000ff0
ff000ff0
ff000ff0
ff000ff0
ff000ff0
ff000ff0
ff000ff0
ff000ff0
00000000
00000000
00000000
00000000
00000000
00000000
00000000
00000000
ENDCHAR
STARTCHAR amacron
ENCODING 257
SWIDTH 568 0
DWIDTH 32 0
BBX 32 52 0 -8
BITMAP
00000000
00000000
00000000
00000000
00000000
00000000
00000000
00000000
0ffffff0
0ffffff0
0ffffff0
0ffffff0
00000000
00000000
00000000
00000000
0fffff00
0fffff00
0fffff00
0fffff00
00000ff0
00000ff0
00000ff0
00000ff0
0ffffff0
0ffffff0
0ffffff0
0ffffff0
ff000ff0
ff000ff0
ff000ff0
ff000ff0
ff000ff0
ff000ff0
ff000ff0
ff000ff0
ff00fff0
ff00fff0
ff00fff0
ff00fff0
0fff0ff0
0fff0ff0
0fff0ff0
0fff0ff0
00000000
00000000
00000000
00000000
00000000
00000000
00000000
00000000
ENDCHAR
STARTCHAR Abreve
ENCODING 258
SWIDTH 568 0
DWIDTH 32 0
BBX 32 52 0 -8
BITMAP
00000000
00000000
00000000
00000000
0f000f00
0f000f00
0f000f00
0f000f00
00fff000
00fff000
00fff000
00fff000
00000000
00000000
00000000
00000000
00fff000
00fff000
00fff000
00fff000
0fffff00
0fffff00
0fffff00
0fffff00
ff000ff0
ff000ff0
ff000ff0
ff000ff0
ff000ff0
ff000ff0
ff000ff0
ff000ff0
fffffff0
fffffff0
fffffff0
fffffff0
ff000ff0
ff000ff0
ff000ff0
ff000ff0
ff000ff0
ff000ff0
ff000ff0
ff000ff0
00000000
00000000
00000000
00000000
00000000
00000000
00000000
00000000
ENDCHAR
STARTCHAR abreve
ENCODING 259
SWIDTH 568 0
DWIDTH 32 0
BBX 32 52 0 -8
BITMAP
00000000
00000000
00000000
00000000
0f000f00
0f000f00
0f000f00
0f000f00
00fff000
00fff000
00fff000
00fff000
00000000
00000000
00000000
00000000
0fffff00
0fffff00
0fffff00
0fffff00
00000ff0
00000ff0
00000ff0
00000ff0
0ffffff0
0ffffff0
0ffffff0
0ffffff0
ff000ff0
ff000ff0
ff000ff0
ff000ff0
ff000ff0
ff000ff0
ff000ff0
ff000ff0
ff00fff0
ff00fff0
ff00fff0
ff00fff0
0fff0ff0
0fff0ff0
0fff0ff0
0fff0ff0
00000000
00000000
00000000
00000000
00000000
00000000
00000000
00000000
ENDCHAR
STARTCHAR Aogonek
ENCODING 260
SWIDTH 568 0
DWIDTH 32 0
BBX 32 52 0 -8
BITMAP
00000000
00000000
00000000
00000000
00fff000
00fff000
00fff000
00fff000
0fffff00
0fffff00
0fffff00
0fffff00
ff000ff0
ff000ff0
ff000ff0
ff000ff0
ff000ff0
ff000ff0
ff000ff0
ff000ff0
ff000ff0
ff000ff0
ff000ff0
ff000ff0
fffffff0
fffffff0
fffffff0
fffffff0
ff000ff0
ff000ff0
ff000ff0
ff000ff0
ff000ff0
ff000ff0
ff000ff0
ff000ff0
ff000ff0
ff000ff0
ff000ff0
ff000ff0
ff000ff0
ff000ff0
ff000ff0
ff000ff0
0000ff00
0000ff00
0000ff00
0000ff00
00000fff
00000fff
00000fff
00000fff
ENDCHAR
STARTCHAR aogonek
ENCODING 261
SWIDTH 568 0
DWIDTH 32 0
BBX 32 52 0 -8
BITMAP
00000000
00000000
00000000
00000000
00000000
00000000
00000000
00000000
00000000
00000000
00000000
00000000
00000000
00000000
00000000
00000000
0fffff00
0fffff00
0fffff00
0fffff00
00000ff0
00000ff0
00000ff0
00000ff0
0ffffff0
0ffffff0
0ffffff0
0ffffff0
ff000ff0
ff000ff0
ff000ff0
ff000ff0
ff000ff0
ff000ff0
ff000ff0
ff000ff0
ff00fff0
ff00fff0
ff00fff0
ff00fff0
0fff0ff0
0fff0ff0
0fff0ff0
0fff0ff0
0000ff00
0000ff00
0000ff00
0000ff00
00000fff
00000fff
00000fff
00000fff
ENDCHAR
STARTCHAR Cacute
ENCODING 262
SWIDTH 568 0
DWIDTH 32 0
BBX 32 52 0 -8
BITMAP
0000ff00
0000ff00
0000ff00
0000ff00
000ff000
000ff000
000ff000
000ff000
00000000
00000000
00000000
00000000
0fffff00
0fffff00
0fffff00
0fffff00
fff00ff0
fff00ff0
fff00ff0
fff00ff0
ff000ff0
ff000ff0
ff000ff0
ff000ff0
ff000000
ff000000
ff000000
ff000000
ff000000
ff000000
ff000000
ff000000
ff000ff0
ff000ff0
ff000ff0
ff000ff0
fff00ff0
fff00ff0
fff00ff0
fff00ff0
0fffff00
0fffff00
0fffff00
0fffff00
00000000
00000000
00000000
00000000
00000000
00000000
00000000
00000000
ENDCHAR
STARTCHAR cacute
ENCODING 263
SWIDTH 568 0
DWIDTH 32 0
BBX 32 52 0 -8
BITMAP
00000000
00000000
00000000
00000000
0000ff00
0000ff00
0000ff00
0000ff00
000ff000
000ff000
000ff000
000ff000
00000000
00000000
00000000
00000000
0fffff00
0fffff00
0fffff00
0fffff00
fff00ff0
fff00ff0
fff00ff0
fff00ff0
ff000000
ff000000
ff000000
ff000000
ff000000
ff000000
ff000000
ff000000
ff000000
ff000000
ff000000
ff000000
fff00ff0
fff00ff0
fff00ff0
fff00ff0
0fffff00
0fffff00
0fffff00
0fffff00
00000000
00000000
00000000
00000000
00000000
00000000
00000000
00000000
ENDCHAR
STARTCHAR Ccircumflex
ENCODING 264
SWIDTH 568 0
DWIDTH 32 0
BBX 32 52 0 -8
BITMAP
00fff000
00fff000
00fff000
00fff000
0ff0ff00
0ff0ff00
0ff0ff00
0ff0ff00
00000000
00000000
00000000
00000000
0fffff00
0fffff00
0fffff00
0fffff00
fff00ff0
fff00ff0
fff00ff0
fff00ff0
ff000ff0
ff000ff0
ff000ff0
ff000ff0
ff000000
ff000000
ff000000
ff000000
ff000000
ff000000
ff000000
ff000000
ff000ff0
ff000ff0
ff000ff0
ff000ff0
fff00ff0
fff00ff0
fff00ff0
fff00ff0
0fffff00
0fffff00
0fffff00
0fffff00
00000000
00000000
00000000
00000000
00000000
00000000
00000000
00000000
ENDCHAR
STARTCHAR ccircumflex
ENCODING 265
SWIDTH 568 0
DWIDTH 32 0
BBX 32 52 0 -8
BITMAP
00000000
00000000
00000000
00000000
00fff000
00fff000
00fff000
00fff000
0ff0ff00
0ff0ff00
0ff0ff00
0ff0ff00
00000000
00000000
00000000
00000000
0fffff00
0fffff00
0fffff00
0fffff00
fff00ff0
fff00ff0
fff00ff0
fff00ff0
ff000000
ff000000
ff000000
ff000000
ff000000
ff000000
ff000000
ff000000
ff000000
ff000000
ff000000
ff000000
fff00ff0
fff00ff0
fff00ff0
fff00ff0
0fffff00
0fffff00
0fffff00
0fffff00
00000000
00000000
00000000
00000000
00000000
00000000
00000000
00000000
ENDCHAR
STARTCHAR Cdotaccent
ENCODING 266
SWIDTH 568 0
DWIDTH 32 0
BBX 32 52 0 -8
BITMAP
000ff000
000ff000
000ff000
000ff000
000ff000
000ff000
000ff000
000ff000
00000000
00000000
00000000
00000000
0fffff00
0fffff00
0fffff00
0fffff00
fff00ff0
fff00ff0
fff00ff0
fff00ff0
ff000ff0
ff000ff0
ff000ff0
ff000ff0
ff000000
ff000000
ff000000
ff000000
ff000000
ff000000
ff000000
ff000000
ff000ff0
ff000ff0
ff000ff0
ff000ff0
fff00ff0
fff00ff0
fff00ff0
fff00ff0
0fffff00
0fffff00
0fffff00
0fffff00
00000000
00000000
00000000
00000000
00000000
00000000
00000000
00000000
ENDCHAR
STARTCHAR cdotaccent
ENCODING 267
SWIDTH 568 0
DWIDTH 32 0
BBX 32 52 0 -8
BITMAP
00000000
00000000
00000000
00000000
000ff000
000ff000
000ff000
000ff000
000ff000
000ff000
000ff000
000ff000
00000000
00000000
00000000
00000000
0fffff00
0fffff00
0fffff00
0fffff00
fff00ff0
fff00ff0
fff00ff0
fff00ff0
ff000000
ff000000
ff000000
ff000000
ff000000
ff000000
ff000000
ff000000
ff000000
ff000000
ff000000
ff000000
fff00ff0
fff00ff0
fff00ff0
fff00ff0
0fffff00
0fffff00
0fffff00
0fffff00
00000000
00000000
00000000
00000000
00000000
00000000
00000000
00000000
ENDCHAR
STARTCHAR Ccaron
ENCODING 268
SWIDTH 568 0
DWIDTH 32 0
BBX 32 52 0 -8
BITMAP
0ff0ff00
0ff0ff00
0ff0ff00
0ff0ff00
00fff000
00fff000
00fff000
00fff000
00000000
00000000
00000000
00000000
0fffff00
0fffff00
0fffff00
0fffff00
fff00ff0
fff00ff0
fff00ff0
fff00ff0
ff000ff0
ff000ff0
ff000ff0
ff000ff0
ff000000
ff000000
ff000000
ff000000
ff000000
ff000000
ff000000
ff000000
ff000ff0
ff000ff0
ff000ff0
ff000ff0
fff00ff0
fff00ff0
fff00ff0
fff00ff0
0fffff00
0fffff00
0fffff00
0fffff00
00000000
00000000
00000000
00000000
00000000
00000000
00000000
00000000
ENDCHAR
STARTCHAR ccaron
ENCODING 269
SWIDTH 568 0
DWIDTH 32 0
BBX 32 52 0 -8
BITMAP
00000000
00000000
00000000
00000000
0ff0ff00
0ff0ff00
0ff0ff00
0ff0ff00
00fff000
00fff000
00fff000
00fff000
00000000
00000000
00000000
00000000
0fffff00
0fffff00
0fffff00
0fffff00
fff00ff0
fff00ff0
fff00ff0
fff00ff0
ff000000
ff000000
ff000000
ff000000
ff000000
ff000000
ff000000
ff000000
ff000000
ff000000
ff000000
ff000000
fff00ff0
fff00ff0
fff00ff0
fff00ff0
0fffff00
0fffff00
0fffff00
0fffff00
00000000
00000000
00000000
00000000
00000000
00000000
00000000
00000000
ENDCHAR
STARTCHAR Dcaron
ENCODING 270
SWIDTH 568 0
DWIDTH 32 0
BBX 32 52 0 -8
BITMAP
0ff0ff00
0ff0ff00
0ff0ff00
0ff0ff00
00fff000
00fff000
00fff000
00fff000
00000000
00000000
00000000
00000000
ffffff00
ffffff00
ffffff00
ffffff00
0ff00ff0
0ff00ff0
0ff00ff0
0ff00ff0
0ff00ff0
0ff00ff0
0ff00ff0
0ff00ff0
0ff00ff0
0ff00ff0
0ff00ff0
0ff00ff0
0ff00ff0
0ff00ff0
0ff00ff0
0ff00ff0
0ff00ff0
0ff00ff0
0ff00ff0
0ff00ff0
0ff00ff0
0ff00ff0
0ff00ff0
0ff00ff0
ffffff00
ffffff00
ffffff00
ffffff00
00000000
00000000
00000000
00000000
00000000
00000000
00000000
00000000
ENDCHAR
STARTCHAR dcaron
ENCODING 271
SWIDTH 568 0
DWIDTH 32 0
BBX 32 52 0 -8
BITMAP
0ff0ff00
0ff0ff00
0ff0ff00
0ff0ff00
00fff000
00fff000
00fff000
00fff000
00000000
00000000
00000000
00000000
00000ff0
00000ff0
00000ff0
00000ff0
00000ff0
00000ff0
00000ff0
00000ff0
00000ff0
00000ff0
00000ff0
00000ff0
0fff0ff0
0fff0ff0
0fff0ff0
0fff0ff0
ff00fff0
ff00fff0
ff00fff0
ff00fff0
ff000ff0
ff000ff0
ff000ff0
ff000ff0
ff00fff0
ff00fff0
ff00fff0
ff00fff0
0fff0ff0
0fff0ff0
0fff0ff0
0fff0ff0
00000000
00000000
00000000
00000000
00000000
00000000
00000000
00000000
ENDCHAR
STARTCHAR Dcroat
ENCODING 272
SWIDTH 568 0
DWIDTH 32 0
BBX 32 52 0 -8
BITMAP
00000000
00000000
00000000
00000000
00000000
00000000
00000000
00000000
ffffff00
ffffff00
ffffff00
ffffff00
0ff00ff0
0ff00ff0
0ff00ff0
0ff00ff0
0ff00ff0
0ff00ff0
0ff00ff0
0ff00ff0
0ff00ff0
0ff00ff0
0ff00ff0
0ff00ff0
ffff0ff0
ffff0ff0
ffff0ff0
ffff0ff0
0ff00ff0
0ff00ff0
0ff00ff0
0ff00ff0
0ff00ff0
0ff00ff0
0ff00ff0
0ff00ff0
0ff00ff0
0ff00ff0
0ff00ff0
0ff00ff0
ffffff00
ffffff00
ffffff00
ffffff00
00000000
00000000
00000000
00000000
00000000
00000000
00000000
00000000
ENDCHAR
STARTCHAR dcroat
ENCODING 273
SWIDTH 568 0
DWIDTH 32 0
BBX 32 52 0 -8
BITMAP
00000000
00000000
00000000
00000000
00000ff0
00000ff0
00000ff0
00000ff0
000fffff
000fffff
000fffff
000fffff
00000ff0
00000ff0
00000ff0
00000ff0
00000ff0
00000ff0
00000ff0
00000ff0
0fff0ff0
0fff0ff0
0fff0ff0
0fff0ff0
ff00fff0
ff00fff0
ff00fff0
ff00fff0
ff000ff0
ff000ff0
ff000ff0
ff000ff0
ff000ff0
ff000ff0
ff000ff0
ff000ff0
ff00fff0
ff00fff0
ff00fff0
ff00fff0
0fff0ff0
0fff0ff0
0fff0ff0
0fff0ff0
00000000
00000000
00000000
00000000
00000000
00000000
00000000
00000000
ENDCHAR
STARTCHAR Emacron
ENCODING 274
SWIDTH 568 0
DWIDTH 32 0
BBX 32 52 0 -8
BITMAP
00000000
00000000
00000000
00000000
0fffff00
0fffff00
0fffff00
0fffff00
00000000
00000000
00000000
00000000
fffffff0
fffffff0
fffffff0
fffffff0
ff000000
ff000000
ff000000
ff000000
ff000000
ff000000
ff000000
ff000000
fffff000
fffff000
fffff000
fffff000
ff000000
ff000000
ff000000
ff000000
ff000000
ff000000
ff000000
ff000000
ff000000
ff000000
ff000000
ff000000
fffffff0
fffffff0
fffffff0
fffffff0
00000000
00000000
00000000
00000000
00000000
00000000
00000000
00000000
ENDCHAR
STARTCHAR emacron
ENCODING 275
SWIDTH 568 0
DWIDTH 32 0
BBX 32 52 0 -8
BITMAP
00000000
00000000
00000000
00000000
00000000
00000000
00000000
00000000
0fffff00
0fffff00
0fffff00
0fffff00
00000000
00000000
00000000
00000000
0fffff00
0fffff00
0fffff00
0fffff00
ff000ff0
ff000ff0
ff000ff0
ff000ff0
ff000ff0
ff000ff0
ff000ff0
ff000ff0
fffffff0
fffffff0
fffffff0
fffffff0
ff000000
ff000000
ff000000
ff000000
ff000ff0
ff000ff0
ff000ff0
ff000ff0
0fffff00
0fffff00
0fffff00
0fffff00
00000000
00000000
00000000
00000000
00000000
00000000
00000000
00000000
ENDCHAR
STARTCHAR Ebreve
ENCODING 276
SWIDTH 568 0
DWIDTH 32 0
BBX 32 52 0 -8
BITMAP
00000000
00000000
00000000
00000000
ff000ff0
ff000ff0
ff000ff0
ff000ff0
0fffff00
0fffff00
0fffff00
0fffff00
00000000
00000000
00000000
00000000
fffffff0
fffffff0
fffffff0
fffffff0
ff000000
ff000000
ff000000
ff000000
ff000000
ff000000
ff000000
ff000000
fffff000
fffff000
fffff000
fffff000
ff000000
ff000000
ff000000
ff000000
ff000000
ff000000
ff000000
ff000000
fffffff0
fffffff0
fffffff0
fffffff0
00000000
00000000
00000000
00000000
00000000
00000000
00000000
00000000
ENDCHAR
STARTCHAR ebreve
ENCODING 277
SWIDTH 568 0
DWIDTH 32 0
BBX 32 52 0 -8
BITMAP
00000000
00000000
00000000
00000000
ff000ff0
ff000ff0
ff000ff0
ff000ff0
0fffff00
0fffff00
0fffff00
0fffff00
00000000
00000000
00000000
00000000
0fffff00
0fffff00
0fffff00
0fffff00
ff000ff0
ff000ff0
ff000ff0
ff000ff0
ff000ff0
ff000ff0
ff000ff0
ff000ff0
fffffff0
fffffff0
fffffff0
fffffff0
ff000000
ff000000
ff000000
ff000000
ff000ff0
ff000ff0
ff000ff0
ff000ff0
0fffff00
0fffff00
0fffff00
0fffff00
00000000
00000000
00000000
00000000
00000000
00000000
00000000
00000000
ENDCHAR
STARTCHAR Edotaccent
ENCODING 278
SWIDTH 568 0
DWIDTH 32 0
BBX 32 52 0 -8
BITMAP
00000000
00000000
00000000
00000000
000ff000
000ff000
000ff000
000ff000
000ff000
000ff000
000ff000
000ff000
00000000
00000000
00000000
00000000
fffffff0
fffffff0
fffffff0
fffffff0
ff000000
ff000000
ff000000
ff000000
ff000000
ff000000
ff000000
ff000000
fffff000
fffff000
fffff000
fffff000
ff000000
ff000000
ff000000
ff000000
ff000000
ff000000
ff000000
ff000000
fffffff0
fffffff0
fffffff0
fffffff0
00000000
00000000
00000000
00000000
00000000
00000000
00000000
00000000
ENDCHAR
STARTCHAR edotaccent
ENCODING 279
SWIDTH 568 0
DWIDTH 32 0
BBX 32 52 0 -8
BITMAP
00000000
00000000
00000000
00000000
000ff000
000ff000
000ff000
000ff000
000ff000
000ff000
000ff000
000ff000
00000000
00000000
00000000
00000000
0fffff00
0fffff00
0fffff00
0fffff00
ff000ff0
ff000ff0
ff000ff0
ff000ff0
ff000ff0
ff000ff0
ff000ff0
ff000ff0
fffffff0
fffffff0
fffffff0
fffffff0
ff000000
ff000000
ff000000
ff000000
ff000ff0
ff000ff0
ff000ff0
ff000ff0
0fffff00
0fffff00
0fffff00
0fffff00
00000000
00000000
00000000
00000000
00000000
00000000
00000000
00000000
ENDCHAR
STARTCHAR Eogonek
ENCODING 280
SWIDTH 568 0
DWIDTH 32 0
BBX 32 52 0 -8
BITMAP
00000000
00000000
00000000
00000000
fffffff0
fffffff0
fffffff0
fffffff0
ff000000
ff000000
ff000000
ff000000
ff000000
ff000000
ff000000
ff000000
ff000000
ff000000
ff000000
ff000000
fffff000
fffff000
fffff000
fffff000
ff000000
ff000000
ff000000
ff000000
ff000000
ff000000
ff000000
ff000000
ff000000
ff000000
ff000000
ff000000
ff000000
ff000000
ff000000
ff000000
fffffff0
fffffff0
fffffff0
fffffff0
00ff0000
00ff0000
00ff0000
00ff0000
00ffff00
00ffff00
00ffff00
00ffff00
ENDCHAR
STARTCHAR eogonek
ENCODING 281
SWIDTH 568 0
DWIDTH 32 0
BBX 32 52 0 -8
BITMAP
00000000
00000000
00000000
00000000
00000000
00000000
00000000
00000000
00000000
00000000
00000000
00000000
00000000
00000000
00000000
00000000
0fffff00
0fffff00
0fffff00
0fffff00
ff000ff0
ff000ff0
ff000ff0
ff000ff0
ff000ff0
ff000ff0
ff000ff0
ff000ff0
fffffff0
fffffff0
fffffff0
fffffff0
ff000000
ff000000
ff000000
ff000000
ff000ff0
ff000ff0
ff000ff0
ff000ff0
0fffff00
0fffff00
0fffff00
0fffff00
00ff0000
00ff0000
00ff0000
00ff0000
00ffff00
00ffff00
00ffff00
00ffff00
ENDCHAR
STARTCHAR Ecaron
ENCODING 282
SWIDTH 568 0
DWIDTH 32 0
BBX 32 52 0 -8
BITMAP
00000000
00000000
00000000
00000000
0ff0ff00
0ff0ff00
0ff0ff00
0ff0ff00
00fff000
00fff000
00fff000
00fff000
00000000
00000000
00000000
00000000
fffffff0
fffffff0
fffffff0
fffffff0
ff0000f0
ff0000f0
ff0000f0
ff0000f0
ff000000
ff000000
ff000000
ff000000
fffff000
fffff000
fffff000
fffff000
ff000000
ff000000
ff000000
ff000000
ff0000f0
ff0000f0
ff0000f0
ff0000f0
fffffff0
fffffff0
fffffff0
fffffff0
00000000
00000000
00000000
00000000
00000000
00000000
00000000
00000000
ENDCHAR
STARTCHAR ecaron
ENCODING 283
SWIDTH 568 0
DWIDTH 32 0
BBX 32 52 0 -8
BITMAP
00000000
00000000
00000000
00000000
0ff0ff00
0ff0ff00
0ff0ff00
0ff0ff00
00fff000
00fff000
00fff000
00fff000
00000000
00000000
00000000
00000000
0fffff00
0fffff00
0fffff00
0fffff00
ff000ff0
ff000ff0
ff000ff0
ff000ff0
ff000ff0
ff000ff0
ff000ff0
ff000ff0
fffffff0
fffffff0
fffffff0
fffffff0
ff000000
ff000000
ff000000
ff000000
ff000ff0
ff000ff0
ff000ff0
ff000ff0
0fffff00
0fffff00
0fffff00
0fffff00
00000000
00000000
00000000
00000000
00000000
00000000
00000000
00000000
ENDCHAR
STARTCHAR Gcircumflex
ENCODING 284
SWIDTH 568 0
DWIDTH 32 0
BBX 32 52 0 -8
BITMAP
00fff000
00fff000
00fff000
00fff000
0ff0ff00
0ff0ff00
0ff0ff00
0ff0ff00
00000000
00000000
00000000
00000000
0fffff00
0fffff00
0fffff00
0fffff00
ff000ff0
ff000ff0
ff000ff0
ff000ff0
ff000000
ff000000
ff000000
ff000000
ff000000
ff000000
ff000000
ff000000
ff00fff0
ff00fff0
ff00fff0
ff00fff0
ff000ff0
ff000ff0
ff000ff0
ff000ff0
ff000ff0
ff000ff0
ff000ff0
ff000ff0
0fffff00
0fffff00
0fffff00
0fffff00
00000000
00000000
00000000
00000000
00000000
00000000
00000000
00000000
ENDCHAR
STARTCHAR gcircumflex
ENCODING 285
SWIDTH 568 0
DWIDTH 32 0
BBX 32 52 0 -8
BITMAP
00000000
00000000
00000000
00000000
00fff000
00fff000
00fff000
00fff000
0ff0ff00
0ff0ff00
0ff0ff00
0ff0ff00
00000000
00000000
00000000
00000000
0ffffff0
0ffffff0
0ffffff0
0ffffff0
ff00ff00
ff00ff00
ff00ff00
ff00ff00
ff00ff00
ff00ff00
ff00ff00
ff00ff00
ff00ff00
ff00ff00
ff00ff00
ff00ff00
0ffff000
0ffff000
0ffff000
0ffff000
ffff0000
ffff0000
ffff0000
ffff0000
0fffff00
0fffff00
0fffff00
0fffff00
ff000ff0
ff000ff0
ff000ff0
ff000ff0
0fffff00
0fffff00
0fffff00
0fffff00
ENDCHAR
STARTCHAR Gbreve
ENCODING 286
SWIDTH 568 0
DWIDTH 32 0
BBX 32 52 0 -8
BITMAP
ff000ff0
ff000ff0
ff000ff0
ff000ff0
0fffff00
0fffff00
0fffff00
0fffff00
00000000
00000000
00000000
00000000
0fffff00
0fffff00
0fffff00
0fffff00
ff000ff0
ff000ff0
ff000ff0
ff000ff0
ff000ff0
ff000ff0
ff000ff0
ff000ff0
ff000000
ff000000
ff000000
ff000000
ff000000
ff000000
ff000000
ff000000
ff00fff0
ff00fff0
ff00fff0
ff00fff0
ff000ff0
ff000ff0
ff000ff0
ff000ff0
0fffff00
0fffff00
0fffff00
0fffff00
00000000
00000000
00000000
00000000
00000000
00000000
00000000
00000000
ENDCHAR
STARTCHAR gbreve
ENCODING 287
SWIDTH 568 0
DWIDTH 32 0
BBX 32 52 0 -8
BITMAP
00000000
00000000
00000000
00000000
ff000ff0
ff000ff0
ff000ff0
ff000ff0
0fffff00
0fffff00
0fffff00
0fffff00
00000000
00000000
00000000
00000000
0ffffff0
0ffffff0
0ffffff0
0ffffff0
ff00ff00
ff00ff00
ff00ff00
ff00ff00
ff00ff00
ff00ff00
ff00ff00
ff00ff00
ff00ff00
ff00ff00
ff00ff00
ff00ff00
0ffff000
0ffff000
0ffff000
0ffff000
ffff0000
ffff0000
ffff0000
ffff0000
0fffff00
0fffff00
0fffff00
0fffff00
ff000ff0
ff000ff0
ff000ff0
ff000ff0
0fffff00
0fffff00
0fffff00
0fffff00
ENDCHAR
STARTCHAR Gdotaccent
ENCODING 288
SWIDTH 568 0
DWIDTH 32 0
BBX 32 52 0 -8
BITMAP
000ff000
000ff000
000ff000
000ff000
000ff000
000ff000
000ff000
000ff000
00000000
00000000
00000000
00000000
0fffff00
0fffff00
0fffff00
0fffff00
ff000ff0
ff000ff0
ff000ff0
ff000ff0
ff000000
ff000000
ff000000
ff000000
ff000000
ff000000
ff000000
ff000000
ff00fff0
ff00fff0
ff00fff0
ff00fff0
ff000ff0
ff000ff0
ff000ff0
ff000ff0
ff000ff0
ff000ff0
ff000ff0
ff000ff0
0fffff00
0fffff00
0fffff00
0fffff00
00000000
00000000
00000000
00000000
00000000
00000000
00000000
00000000
ENDCHAR
STARTCHAR gdotaccent
ENCODING 289
SWIDTH 568 0
DWIDTH 32 0
BBX 32 52 0 -8
BITMAP
00000000
00000000
00000000
00000000
000ff000
000ff000
000ff000
000ff000
000ff000
000ff000
000ff000
000ff000
00000000
00000000
00000000
00000000
0ffffff0
0ffffff0
0ffffff0
0ffffff0
ff00ff00
ff00ff00
ff00ff00
ff00ff00
ff00ff00
ff00ff00
ff00ff00
ff00ff00
ff00ff00
ff00ff00
ff00ff00
ff00ff00
0ffff000
0ffff000
0ffff000
0ffff000
ffff0000
ffff0000
ffff0000
ffff0000
0fffff00
0fffff00
0fffff00
0fffff00
ff000ff0
ff000ff0
ff000ff0
ff000ff0
0fffff00
0fffff00
0fffff00
0fffff00
ENDCHAR
STARTCHAR Gcommaaccent
ENCODING 290
SWIDTH 568 0
DWIDTH 32 0
BBX 32 52 0 -8
BITMAP
00000000
00000000
00000000
00000000
0fffff00
0fffff00
0fffff00
0fffff00
ff000ff0
ff000ff0
ff000ff0
ff000ff0
ff000ff0
ff000ff0
ff000ff0
ff000ff0
ff000000
ff000000
ff000000
ff000000
ff000000
ff000000
ff000000
ff000000
ff000000
ff000000
ff000000
ff000000
ff00fff0
ff00fff0
ff00fff0
ff00fff0
ff000ff0
ff000ff0
ff000ff0
ff000ff0
ff000ff0
ff000ff0
ff000ff0
ff000ff0
0fffff00
0fffff00
0fffff00
0fffff00
000ff000
000ff000
000ff000
000ff000
00ff0000
00ff0000
00ff0000
00ff0000
ENDCHAR
STARTCHAR gcommaaccent
ENCODING 291
SWIDTH 568 0
DWIDTH 32 0
BBX 32 52 0 -8
BITMAP
000ff000
000ff000
000ff000
000ff000
00ff0000
00ff0000
00ff0000
00ff0000
00fff000
00fff000
00fff000
00fff000
00000000
00000000
00000000
00000000
0ffffff0
0ffffff0
0ffffff0
0ffffff0
ff00ff00
ff00ff00
ff00ff00
ff00ff00
ff00ff00
ff00ff00
ff00ff00
ff00ff00
ff00ff00
ff00ff00
ff00ff00
ff00ff00
0ffff000
0ffff000
0ffff000
0ffff000
ffff0000
ffff0000
ffff0000
ffff0000
0fffff00
0fffff00
0fffff00
0fffff00
ff000ff0
ff000ff0
ff000ff0
ff000ff0
0fffff00
0fffff00
0fffff00
0fffff00
ENDCHAR
STARTCHAR Hcircumflex
ENCODING 292
SWIDTH 568 0
DWIDTH 32 0
BBX 32 52 0 -8
BITMAP
00000000
00000000
00000000
00000000
00fff000
00fff000
00fff000
00fff000
0ff0ff00
0ff0ff00
0ff0ff00
0ff0ff00
00000000
00000000
00000000
00000000
ff000ff0
ff000ff0
ff000ff0
ff000ff0
ff000ff0
ff000ff0
ff000ff0
ff000ff0
ff000ff0
ff000ff0
ff000ff0
ff000ff0
fffffff0
fffffff0
fffffff0
fffffff0
ff000ff0
ff000ff0
ff000ff0
ff000ff0
ff000ff0
ff000ff0
ff000ff0
ff000ff0
ff000ff0
ff000ff0
ff000ff0
ff000ff0
00000000
00000000
00000000
00000000
00000000
00000000
00000000
00000000
ENDCHAR
STARTCHAR hcircumflex
ENCODING 293
SWIDTH 568 0
DWIDTH 32 0
BBX 32 52 0 -8
BITMAP
00000000
00000000
00000000
00000000
ff00ff00
ff00ff00
ff00ff00
ff00ff00
ff0ff0f0
ff0ff0f0
ff0ff0f0
ff0ff0f0
ff000000
ff000000
ff000000
ff000000
ff0ff000
ff0ff000
ff0ff000
ff0ff000
fff0ff00
fff0ff00
fff0ff00
fff0ff00
ff00ff00
ff00ff00
ff00ff00
ff00ff00
ff00ff00
ff00ff00
ff00ff00
ff00ff00
ff00ff00
ff00ff00
ff00ff00
ff00ff00
ff00ff00
ff00ff00
ff00ff00
ff00ff00
ff00ff00
ff00ff00
ff00ff00
ff00ff00
00000000
00000000
00000000
00000000
00000000
00000000
00000000
00000000
ENDCHAR
STARTCHAR Hbar
ENCODING 294
SWIDTH 568 0
DWIDTH 32 0
BBX 32 52 0 -8
BITMAP
00000000
00000000
00000000
00000000
0ff00ff0
0ff00ff0
0ff00ff0
0ff00ff0
0ff00ff0
0ff00ff0
0ff00ff0
0ff00ff0
ffffffff
ffffffff
ffffffff
ffffffff
0ff00ff0
0ff00ff0
0ff00ff0
0ff00ff0
0ff00ff0
0ff00ff0
0ff00ff0
0ff00ff0
0ffffff0
0ffffff0
0ffffff0
0ffffff0
0ff00ff0
0ff00ff0
0ff00ff0
0ff00ff0
0ff00ff0
0ff00ff0
0ff00ff0
0ff00ff0
0ff00ff0
0ff00ff0
0ff00ff0
0ff00ff0
0ff00ff0
0ff00ff0
0ff00ff0
0ff00ff0
00000000
00000000
00000000
00000000
00000000
00000000
00000000
00000000
ENDCHAR
STARTCHAR hbar
ENCODING 295
SWIDTH 568 0
DWIDTH 32 0
BBX 32 52 0 -8
BITMAP
00000000
00000000
00000000
00000000
0ff00000
0ff00000
0ff00000
0ff00000
ffffff00
ffffff00
ffffff00
ffffff00
0ff00000
0ff00000
0ff00000
0ff00000
0ff0ff00
0ff0ff00
0ff0ff00
0ff0ff00
0fff0ff0
0fff0ff0
0fff0ff0
0fff0ff0
0ff00ff0
0ff00ff0
0ff00ff0
0ff00ff0
0ff00ff0
0ff00ff0
0ff00ff0
0ff00ff0
0ff00ff0
0ff00ff0
0ff00ff0
0ff00ff0
0ff00ff0
0ff00ff0
0ff00ff0
0ff00ff0
0ff00ff0
0ff00ff0
0ff00ff0
0ff00ff0
00000000
00000000
00000000
00000000
00000000
00000000
00000000
00000000
ENDCHAR
STARTCHAR Itilde
ENCODING 296
SWIDTH 568 0
DWIDTH 32 0
BBX 32 52 0 -8
BITMAP
00ff0f00
00ff0f00
00ff0f00
00ff0f00
0f0ff000
0f0ff000
0f0ff000
0f0ff000
00000000
00000000
00000000
00000000
00ffff00
00ffff00
00ffff00
00ffff00
000ff000
000ff000
000ff000
000ff000
000ff000
000ff000
000ff000
000ff000
000ff000
000ff000
000ff000
000ff000
000ff000
000ff000
000ff000
000ff000
000ff000
000ff000
000ff000
000ff000
000ff000
000ff000
000ff000
000ff000
00ffff00
00ffff00
00ffff00
00ffff00
00000000
00000000
00000000
00000000
00000000
00000000
00000000
00000000
ENDCHAR
STARTCHAR itilde
ENCODING 297
SWIDTH 568 0
DWIDTH 32 0
BBX 32 52 0 -8
BITMAP
00000000
00000000
00000000
00000000
00000000
00000000
00000000
00000000
00ff0f00
00ff0f00
00ff0f00
00ff0f00
0f0ff000
0f0ff000
0f0ff000
0f0ff000
00000000
00000000
00000000
00000000
00fff000
00fff000
00fff000
00fff000
000ff000
000ff000
000ff000
000ff000
000ff000
000ff000
000ff000
000ff000
000ff000
000ff000
000ff000
000ff000
000ff000
000ff000
000ff000
000ff000
00ffff00
00ffff00
00ffff00
00ffff00
00000000
00000000
00000000
00000000
00000000
00000000
00000000
00000000
ENDCHAR
STARTCHAR Imacron
ENCODING 298
SWIDTH 568 0
DWIDTH 32 0
BBX 32 52 0 -8
BITMAP
00000000
00000000
00000000
00000000
0ffffff0
0ffffff0
0ffffff0
0ffffff0
00000000
00000000
00000000
00000000
00ffff00
00ffff00
00ffff00
00ffff00
000ff000
000ff000
000ff000
000ff000
000ff000
000ff000
000ff000
000ff000
000ff000
000ff000
000ff000
000ff000
000ff000
000ff000
000ff000
000ff000
000ff000
000ff000
000ff000
000ff000
000ff000
000ff000
000ff000
000ff000
00ffff00
00ffff00
00ffff00
00ffff00
00000000
00000000
00000000
00000000
00000000
00000000
00000000
00000000
ENDCHAR
STARTCHAR imacron
ENCODING 299
SWIDTH 568 0
DWIDTH 32 0
BBX 32 52 0 -8
BITMAP
00000000
00000000
00000000
00000000
00000000
00000000
00000000
00000000
00000000
00000000
00000000
00000000
0ffffff0
0ffffff0
0ffffff0
0ffffff0
00000000
00000000
00000000
00000000
00fff000
00fff000
00fff000
00fff000
000ff000
000ff000
000ff000
000ff000
000ff000
000ff000
000ff000
000ff000
000ff000
000ff000
000ff000
000ff000
000ff000
000ff000
000ff000
000ff000
00ffff00
00ffff00
00ffff00
00ffff00
00000000
00000000
00000000
00000000
00000000
00000000
00000000
00000000
ENDCHAR
STARTCHAR Ibreve
ENCODING 300
SWIDTH 568 0
DWIDTH 32 0
BBX 32 52 0 -8
BITMAP
0f0000f0
0f0000f0
0f0000f0
0f0000f0
00ffff00
00ffff00
00ffff00
00ffff00
00000000
00000000
00000000
00000000
00ffff00
00ffff00
00ffff00
00ffff00
000ff000
000ff000
000ff000
000ff000
000ff000
000ff000
000ff000
000ff000
000ff000
000ff000
000ff000
000ff000
000ff000
000ff000
000ff000
000ff000
000ff000
000ff000
000ff000
000ff000
000ff000
000ff000
000ff000
000ff000
00ffff00
00ffff00
00ffff00
00ffff00
00000000
00000000
00000000
00000000
00000000
00000000
00000000
00000000
ENDCHAR
STARTCHAR ibreve
ENCODING 301
SWIDTH 568 0
DWIDTH 32 0
BBX 32 52 0 -8
BITMAP
00000000
00000000
00000000
00000000
00000000
00000000
00000000
00000000
0f000f00
0f000f00
0f000f00
0f000f00
00fff000
00fff000
00fff000
00fff000
00000000
00000000
00000000
00000000
00fff000
00fff000
00fff000
00fff000
000ff000
000ff000
000ff000
000ff000
000ff000
000ff000
000ff000
000ff000
000ff000
000ff000
000ff000
000ff000
000ff000
000ff000
000ff000
000ff000
00ffff00
00ffff00
00ffff00
00ffff00
00000000
00000000
00000000
00000000
00000000
00000000
00000000
00000000
ENDCHAR
STARTCHAR Iogonek
ENCODING 302
SWIDTH 568 0
DWIDTH 32 0
BBX 32 52 0 -8
BITMAP
00000000
00000000
00000000
00000000
00ffff00
00ffff00
00ffff00
00ffff00
000ff000
000ff000
000ff000
000ff000
000ff000
000ff000
000ff000
000ff000
000ff000
000ff000
000ff000
000ff000
000ff000
000ff000
000ff000
000ff000
000ff000
000ff000
000ff000
000ff000
000ff000
000ff000
000ff000
000ff000
000ff000
000ff000
000ff000
000ff000
000ff000
000ff000
000ff000
000ff000
00ffff00
00ffff00
00ffff00
00ffff00
000ff000
000ff000
000ff000
000ff000
0000ff00
0000ff00
0000ff00
0000ff00
ENDCHAR
STARTCHAR iogonek
ENCODING 303
SWIDTH 568 0
DWIDTH 32 0
BBX 32 52 0 -8
BITMAP
00000000
00000000
00000000
00000000
00000000
00000000
00000000
00000000
000ff000
000ff000
000ff000
000ff000
000ff000
000ff000
000ff000
000ff000
00000000
00000000
00000000
00000000
00fff000
00fff000
00fff000
00fff000
000ff000
000ff000
000ff000
000ff000
000ff000
000ff000
000ff000
000ff000
000ff000
000ff000
000ff000
000ff000
000ff000
000ff000
000ff000
000ff000
00ffff00
00ffff00
00ffff00
00ffff00
000ff000
000ff000
000ff000
000ff000
0000ff00
0000ff00
0000ff00
0000ff00
ENDCHAR
STARTCHAR Idotaccent
ENCODING 304
SWIDTH 568 0
DWIDTH 32 0
BBX 32 52 0 -8
BITMAP
000ff000
000ff000
000ff000
000ff000
000ff000
000ff000
000ff000
000ff000
00000000
00000000
00000000
00000000
00ffff00
00ffff00
00ffff00
00ffff00
000ff000
000ff000
000ff000
000ff000
000ff000
000ff000
000ff000
000ff000
000ff000
000ff000
000ff000
000ff000
000ff000
000ff000
000ff000
000ff000
000ff000
000ff000
000ff000
000ff000
000ff000
000ff000
000ff000
000ff000
00ffff00
00ffff00
00ffff00
00ffff00
00000000
00000000
00000000
00000000
00000000
00000000
00000000
00000000
ENDCHAR
STARTCHAR dotlessi
ENCODING 305
SWIDTH 568 0
DWIDTH 32 0
BBX 32 52 0 -8
BITMAP
00000000
00000000
00000000
00000000
00000000
00000000
00000000
00000000
00000000
00000000
00000000
00000000
00000000
00000000
00000000
00000000
00000000
00000000
00000000
00000000
00fff000
00fff000
00fff000
00fff000
000ff000
000ff000
000ff000
000ff000
000ff000
000ff000
000ff000
000ff000
000ff000
000ff000
000ff000
000ff000
000ff000
000ff000
000ff000
000ff000
00ffff00
00ffff00
00ffff00
00ffff00
00000000
00000000
00000000
00000000
00000000
00000000
00000000
00000000
ENDCHAR
STARTCHAR IJ
ENCODING 306
SWIDTH 568 0
DWIDTH 32 0
BBX 32 52 0 -8
BITMAP
00000000
00000000
00000000
00000000
fffffff0
fffffff0
fffffff0
fffffff0
0ff00ff0
0ff00ff0
0ff00ff0
0ff00ff0
0ff00ff0
0ff00ff0
0ff00ff0
0ff00ff0
0ff00ff0
0ff00ff0
0ff00ff0
0ff00ff0
0ff00ff0
0ff00ff0
0ff00ff0
0ff00ff0
0ff00ff0
0ff00ff0
0ff00ff0
0ff00ff0
0ff00ff0
0ff00ff0
0ff00ff0
0ff00ff0
0ff00ff0
0ff00ff0
0ff00ff0
0ff00ff0
0ff00ff0
0ff00ff0
0ff00ff0
0ff00ff0
ffff0ff0
ffff0ff0
ffff0ff0
ffff0ff0
ff000ff0
ff000ff0
ff000ff0
ff000ff0
0fffff00
0fffff00
0fffff00
0fffff00
ENDCHAR
STARTCHAR ij
ENCODING 307
SWIDTH 568 0
DWIDTH 32 0
BBX 32 52 0 -8
BITMAP
00000000
00000000
00000000
00000000
00000000
00000000
00000000
00000000
0ff00ff0
0ff00ff0
0ff00ff0
0ff00ff0
0ff00ff0
0ff00ff0
0ff00ff0
0ff00ff0
00000000
00000000
00000000
00000000
fff0fff0
fff0fff0
fff0fff0
fff0fff0
0ff00ff0
0ff00ff0
0ff00ff0
0ff00ff0
0ff00ff0
0ff00ff0
0ff00ff0
0ff00ff0
0ff00ff0
0ff00ff0
0ff00ff0
0ff00ff0
0ff00ff0
0ff00ff0
0ff00ff0
0ff00ff0
ffff0ff0
ffff0ff0
ffff0ff0
ffff0ff0
ff000ff0
ff000ff0
ff000ff0
ff000ff0
0fffff00
0fffff00
0fffff00
0fffff00
ENDCHAR
STARTCHAR Jcircumflex
ENCODING 308
SWIDTH 568 0
DWIDTH 32 0
BBX 32 52 0 -8
BITMAP
00000000
00000000
00000000
00000000
000fff00
000fff00
000fff00
000fff00
00ff0ff0
00ff0ff0
00ff0ff0
00ff0ff0
00000000
00000000
00000000
00000000
0000fff0
0000fff0
0000fff0
0000fff0
00000ff0
00000ff0
00000ff0
00000ff0
00000ff0
00000ff0
00000ff0
00000ff0
00000ff0
00000ff0
00000ff0
00000ff0
ff000ff0
ff000ff0
ff000ff0
ff000ff0
ff000ff0
ff000ff0
ff000ff0
ff000ff0
0fffff00
0fffff00
0fffff00
0fffff00
00000000
00000000
00000000
00000000
00000000
00000000
00000000
00000000
ENDCHAR
STARTCHAR jcircumflex
ENCODING 309
SWIDTH 568 0
DWIDTH 32 0
BBX 32 52 0 -8
BITMAP
00000000
00000000
00000000
00000000
000fff00
000fff00
000fff00
000fff00
00ff0ff0
00ff0ff0
00ff0ff0
00ff0ff0
00000000
00000000
00000000
00000000
0000fff0
0000fff0
0000fff0
0000fff0
00000ff0
00000ff0
00000ff0
00000ff0
00000ff0
00000ff0
00000ff0
00000ff0
00000ff0
00000ff0
00000ff0
00000ff0
00000ff0
00000ff0
00000ff0
00000ff0
00000ff0
00000ff0
00000ff0
00000ff0
ff000ff0
ff000ff0
ff000ff0
ff000ff0
ff000ff0
ff000ff0
ff000ff0
ff000ff0
0fffff00
0fffff00
0fffff00
0fffff00
ENDCHAR
STARTCHAR Kcommaaccent
ENCODING 310
SWIDTH 568 0
DWIDTH 32 0
BBX 32 52 0 -8
BITMAP
00000000
00000000
00000000
00000000
ff000ff0
ff000ff0
ff000ff0
ff000ff0
ff000ff0
ff000ff0
ff000ff0
ff000ff0
ff00ff00
ff00ff00
ff00ff00
ff00ff00
ff0ff000
ff0ff000
ff0ff000
ff0ff000
ffff0000
ffff0000
ffff0000
ffff0000
ffff0000
ffff0000
ffff0000
ffff0000
ff0ff000
ff0ff000
ff0ff000
ff0ff000
ff00ff00
ff00ff00
ff00ff00
ff00ff00
ff000ff0
ff000ff0
ff000ff0
ff000ff0
ff000ff0
ff000ff0
ff000ff0
ff000ff0
0ff00000
0ff00000
0ff00000
0ff00000
ff000000
ff000000
ff000000
ff000000
ENDCHAR
STARTCHAR kcommaaccent
ENCODING 311
SWIDTH 568 0
DWIDTH 32 0
BBX 32 52 0 -8
BITMAP
00000000
00000000
00000000
00000000
ff000000
ff000000
ff000000
ff000000
ff000000
ff000000
ff000000
ff000000
ff000000
ff000000
ff000000
ff000000
ff00ff00
ff00ff00
ff00ff00
ff00ff00
ff0ff000
ff0ff000
ff0ff000
ff0ff000
ffff0000
ffff0000
ffff0000
ffff0000
ffff0000
ffff0000
ffff0000
ffff0000
ff0ff000
ff0ff000
ff0ff000
ff0ff000
ff00ff00
ff00ff00
ff00ff00
ff00ff00
ff000ff0
ff000ff0
ff000ff0
ff000ff0
0ff00000
0ff00000
0ff00000
0ff00000
ff000000
ff000000
ff000000
ff000000
ENDCHAR
STARTCHAR kgreenlandic
ENCODING 312
SWIDTH 568 0
DWIDTH 32 0
BBX 32 52 0 -8
BITMAP
00000000
00000000
00000000
00000000
00000000
00000000
00000000
00000000
00000000
00000000
00000000
00000000
00000000
00000000
00000000
00000000
ff00ff00
ff00ff00
ff00ff00
ff00ff00
ff0ff000
ff0ff000
ff0ff000
ff0ff000
ffff0000
ffff0000
ffff0000
ffff0000
ffff0000
ffff0000
ffff0000
ffff0000
ff0ff000
ff0ff000
ff0ff000
ff0ff000
ff00ff00
ff00ff00
ff00ff00
ff00ff00
ff000ff0
ff000ff0
ff000ff0
ff000ff0
00000000
00000000
00000000
00000000
00000000
00000000
00000000
00000000
ENDCHAR
STARTCHAR Lacute
ENCODING 313
SWIDTH 568 0
DWIDTH 32 0
BBX 32 52 0 -8
BITMAP
00000000
00000000
00000000
00000000
0000ff00
0000ff00
0000ff00
0000ff00
000ff000
000ff000
000ff000
000ff000
ff000000
ff000000
ff000000
ff000000
ff000000
ff000000
ff000000
ff000000
ff000000
ff000000
ff000000
ff000000
ff000000
ff000000
ff000000
ff000000
ff000000
ff000000
ff000000
ff000000
ff000000
ff000000
ff000000
ff000000
ff0000f0
ff0000f0
ff0000f0
ff0000f0
fffffff0
fffffff0
fffffff0
fffffff0
00000000
00000000
00000000
00000000
00000000
00000000
00000000
00000000
ENDCHAR
STARTCHAR lacute
ENCODING 314
SWIDTH 568 0
DWIDTH 32 0
BBX 32 52 0 -8
BITMAP
0000ff00
0000ff00
0000ff00
0000ff00
000ff000
000ff000
000ff000
000ff000
00000000
00000000
00000000
00000000
00fff000
00fff000
00fff000
00fff000
000ff000
000ff000
000ff000
000ff000
000ff000
000ff000
000ff000
000ff000
000ff000
000ff000
000ff000
000ff000
000ff000
000ff000
000ff000
000ff000
000ff000
000ff000
000ff000
000ff000
000ff000
000ff000
000ff000
000ff000
00ffff00
00ffff00
00ffff00
00ffff00
00000000
00000000
00000000
00000000
00000000
00000000
00000000
00000000
ENDCHAR
STARTCHAR Lcommaaccent
ENCODING 315
SWIDTH 568 0
DWIDTH 32 0
BBX 32 52 0 -8
BITMAP
00000000
00000000
00000000
00000000
ff000000
ff000000
ff000000
ff000000
ff000000
ff000000
ff000000
ff000000
ff000000
ff000000
ff000000
ff000000
ff000000
ff000000
ff000000
ff000000
ff000000
ff000000
ff000000
ff000000
ff000000
ff000000
ff000000
ff000000
ff000000
ff000000
ff000000
ff000000
ff000000
ff000000
ff000000
ff000000
ff0000f0
ff0000f0
ff0000f0
ff0000f0
fffffff0
fffffff0
fffffff0
fffffff0
000ff000
000ff000
000ff000
000ff000
00ff0000
00ff0000
00ff0000
00ff0000
ENDCHAR
STARTCHAR lcommaaccent
ENCODING 316
SWIDTH 568 0
DWIDTH 32 0
BBX 32 52 0 -8
BITMAP
00000000
00000000
00000000
00000000
00fff000
00fff000
00fff000
00fff000
000ff000
000ff000
000ff000
000ff000
000ff000
000ff000
000ff000
000ff000
000ff000
000ff000
000ff000
000ff000
000ff000
000ff000
000ff000
000ff000
000ff000
000ff000
000ff000
000ff000
000ff000
000ff000
000ff000
000ff000
000ff000
000ff000
000ff000
000ff000
000ff000
000ff000
000ff000
000ff000
00ffff00
00ffff00
00ffff00
00ffff00
000ff000
000ff000
000ff000
000ff000
00ff0000
00ff0000
00ff0000
00ff0000
ENDCHAR
STARTCHAR Lcaron
ENCODING 317
SWIDTH 568 0
DWIDTH 32 0
BBX 32 52 0 -8
BITMAP
0ff0ff00
0ff0ff00
0ff0ff00
0ff0ff00
00fff000
00fff000
00fff000
00fff000
00000000
00000000
00000000
00000000
ff000000
ff000000
ff000000
ff000000
ff000000
ff000000
ff000000
ff000000
ff000000
ff000000
ff000000
ff000000
ff000000
ff000000
ff000000
ff000000
ff000000
ff000000
ff000000
ff000000
ff000000
ff000000
ff000000
ff000000
ff0000f0
ff0000f0
ff0000f0
ff0000f0
fffffff0
fffffff0
fffffff0
fffffff0
00000000
00000000
00000000
00000000
00000000
00000000
00000000
00000000
ENDCHAR
STARTCHAR lcaron
ENCODING 318
SWIDTH 568 0
DWIDTH 32 0
BBX 32 52 0 -8
BITMAP
0ff0ff00
0ff0ff00
0ff0ff00
0ff0ff00
00fff000
00fff000
00fff000
00fff000
00000000
00000000
00000000
00000000
00fff000
00fff000
00fff000
00fff000
000ff000
000ff000
000ff000
000ff000
000ff000
000ff000
000ff000
000ff000
000ff000
000ff000
000ff000
000ff000
000ff000
000ff000
000ff000
000ff000
000ff000
000ff000
000ff000
000ff000
000ff000
000ff000
000ff000
000ff000
00ffff00
00ffff00
00ffff00
00ffff00
00000000
00000000
00000000
00000000
00000000
00000000
00000000
00000000
ENDCHAR
STARTCHAR Ldot
ENCODING 319
SWIDTH 568 0
DWIDTH 32 0
BBX 32 52 0 -8
BITMAP
00000000
00000000
00000000
00000000
ff000000
ff000000
ff000000
ff000000
ff000000
ff000000
ff000000
ff000000
ff000000
ff000000
ff000000
ff000000
ff00ff00
ff00ff00
ff00ff00
ff00ff00
ff00ff00
ff00ff00
ff00ff00
ff00ff00
ff000000
ff000000
ff000000
ff000000
ff000000
ff000000
ff000000
ff000000
ff000000
ff000000
ff000000
ff000000
ff0000f0
ff0000f0
ff0000f0
ff0000f0
fffffff0
fffffff0
fffffff0
fffffff0
00000000
00000000
00000000
00000000
00000000
00000000
00000000
00000000
ENDCHAR
STARTCHAR ldot
ENCODING 320
SWIDTH 568 0
DWIDTH 32 0
BBX 32 52 0 -8
BITMAP
00000000
00000000
00000000
00000000
0fff0000
0fff0000
0fff0000
0fff0000
00ff0000
00ff0000
00ff0000
00ff0000
00ff0000
00ff0000
00ff0000
00ff0000
00ff0ff0
00ff0ff0
00ff0ff0
00ff0ff0
00ff0ff0
00ff0ff0
00ff0ff0
00ff0ff0
00ff0000
00ff0000
00ff0000
00ff0000
00ff0000
00ff0000
00ff0000
00ff0000
00ff0000
00ff0000
00ff0000
00ff0000
00ff0000
00ff0000
00ff0000
00ff0000
0ffff000
0ffff000
0ffff000
0ffff000
00000000
00000000
00000000
00000000
00000000
00000000
00000000
00000000
ENDCHAR
STARTCHAR Lslash
ENCODING 321
SWIDTH 568 0
DWIDTH 32 0
BBX 32 52 0 -8
BITMAP
00000000
00000000
00000000
00000000
0ff00000
0ff00000
0ff00000
0ff00000
0ff00000
0ff00000
0ff00000
0ff00000
0ff0f000
0ff0f000
0ff0f000
0ff0f000
0ffff000
0ffff000
0ffff000
0ffff000
0fff0000
0fff0000
0fff0000
0fff0000
fff00000
fff00000
fff00000
fff00000
fff00000
fff00000
fff00000
fff00000
0ff00000
0ff00000
0ff00000
0ff00000
0ff000f0
0ff000f0
0ff000f0
0ff000f0
0ffffff0
0ffffff0
0ffffff0
0ffffff0
00000000
00000000
00000000
00000000
00000000
00000000
00000000
00000000
ENDCHAR
STARTCHAR lslash
ENCODING 322
SWIDTH 568 0
DWIDTH 32 0
BBX 32 52 0 -8
BITMAP
00000000
00000000
00000000
00000000
00fff000
00fff000
00fff000
00fff000
000ff000
000ff000
000ff000
000ff000
000ff0f0
000ff0f0
000ff0f0
000ff0f0
000ffff0
000ffff0
000ffff0
000ffff0
000fff00
000fff00
000fff00
000fff00
00fff000
00fff000
00fff000
00fff000
0ffff000
0ffff000
0ffff000
0ffff000
0f0ff000
0f0ff000
0f0ff000
0f0ff000
000ff000
000ff000
000ff000
000ff000
00ffff00
00ffff00
00ffff00
00ffff00
00000000
00000000
00000000
00000000
00000000
00000000
00000000
00000000
ENDCHAR
STARTCHAR Nacute
ENCODING 323
SWIDTH 568 0
DWIDTH 32 0
BBX 32 52 0 -8
BITMAP
0000ff00
0000ff00
0000ff00
0000ff00
000ff000
000ff000
000ff000
000ff000
00000000
00000000
00000000
00000000
ff000ff0
ff000ff0
ff000ff0
ff000ff0
fff00ff0
fff00ff0
fff00ff0
fff00ff0
fff00ff0
fff00ff0
fff00ff0
fff00ff0
ffff0ff0
ffff0ff0
ffff0ff0
ffff0ff0
ff0ffff0
ff0ffff0
ff0ffff0
ff0ffff0
ff00fff0
ff00fff0
ff00fff0
ff00fff0
ff00fff0
ff00fff0
ff00fff0
ff00fff0
ff000ff0
ff000ff0
ff000ff0
ff000ff0
00000000
00000000
00000000
00000000
00000000
00000000
00000000
00000000
ENDCHAR
STARTCHAR nacute
ENCODING 324
SWIDTH 568 0
DWIDTH 32 0
BBX 32 52 0 -8
BITMAP
00000000
00000000
00000000
00000000
0000ff00
0000ff00
0000ff00
0000ff00
000ff000
000ff000
000ff000
000ff000
00000000
00000000
00000000
00000000
ff0fff00
ff0fff00
ff0fff00
ff0fff00
fff00ff0
fff00ff0
fff00ff0
fff00ff0
ff000ff0
ff000ff0
ff000ff0
ff000ff0
ff000ff0
ff000ff0
ff000ff0
ff000ff0
ff000ff0
ff000ff0
ff000ff0
ff000ff0
ff000ff0
ff000ff0
ff000ff0
ff000ff0
ff000ff0
ff000ff0
ff000ff0
ff000ff0
00000000
00000000
00000000
00000000
00000000
00000000
00000000
00000000
ENDCHAR
STARTCHAR Ncommaaccent
ENCODING 325
SWIDTH 568 0
DWIDTH 32 0
BBX 32 52 0 -8
BITMAP
00000000
00000000
00000000
00000000
ff000ff0
ff000ff0
ff000ff0
ff000ff0
ff000ff0
ff000ff0
ff000ff0
ff000ff0
fff00ff0
fff00ff0
fff00ff0
fff00ff0
fff00ff0
fff00ff0
fff00ff0
fff00ff0
ffff0ff0
ffff0ff0
ffff0ff0
ffff0ff0
ff0ffff0
ff0ffff0
ff0ffff0
ff0ffff0
ff00fff0
ff00fff0
ff00fff0
ff00fff0
ff00fff0
ff00fff0
ff00fff0
ff00fff0
ff000ff0
ff000ff0
ff000ff0
ff000ff0
ff000ff0
ff000ff0
ff000ff0
ff000ff0
0ff00000
0ff00000
0ff00000
0ff00000
ff000000
ff000000
ff000000
ff000000
ENDCHAR
STARTCHAR ncommaaccent
ENCODING 326
SWIDTH 568 0
DWIDTH 32 0
BBX 32 52 0 -8
BITMAP
00000000
00000000
00000000
00000000
00000000
00000000
00000000
00000000
00000000
00000000
00000000
00000000
00000000
00000000
00000000
00000000
ff0fff00
ff0fff00
ff0fff00
ff0fff00
fff00ff0
fff00ff0
fff00ff0
fff00ff0
ff000ff0
ff000ff0
ff000ff0
ff000ff0
ff000ff0
ff000ff0
ff000ff0
ff000ff0
ff000ff0
ff000ff0
ff000ff0
ff000ff0
ff000ff0
ff000ff0
ff000ff0
ff000ff0
ff000ff0
ff000ff0
ff000ff0
ff000ff0
0ff00000
0ff00000
0ff00000
0ff00000
ff000000
ff000000
ff000000
ff000000
ENDCHAR
STARTCHAR Ncaron
ENCODING 327
SWIDTH 568 0
DWIDTH 32 0
BBX 32 52 0 -8
BITMAP
0ff0ff00
0ff0ff00
0ff0ff00
0ff0ff00
00fff000
00fff000
00fff000
00fff000
00000000
00000000
00000000
00000000
ff000ff0
ff000ff0
ff000ff0
ff000ff0
fff00ff0
fff00ff0
fff00ff0
fff00ff0
fff00ff0
fff00ff0
fff00ff0
fff00ff0
ffff0ff0
ffff0ff0
ffff0ff0
ffff0ff0
ff0ffff0
ff0ffff0
ff0ffff0
ff0ffff0
ff00fff0
ff00fff0
ff00fff0
ff00fff0
ff00fff0
ff00fff0
ff00fff0
ff00fff0
ff000ff0
ff000ff0
ff000ff0
ff000ff0
00000000
00000000
00000000
00000000
00000000
00000000
00000000
00000000
ENDCHAR
STARTCHAR ncaron
ENCODING 328
SWIDTH 568 0
DWIDTH 32 0
BBX 32 52 0 -8
BITMAP
00000000
00000000
00000000
00000000
0ff0ff00
0ff0ff00
0ff0ff00
0ff0ff00
00fff000
00fff000
00fff000
00fff000
00000000
00000000
00000000
00000000
ff0fff00
ff0fff00
ff0fff00
ff0fff00
fff00ff0
fff00ff0
fff00ff0
fff00ff0
ff000ff0
ff000ff0
ff000ff0
ff000ff0
ff000ff0
ff000ff0
ff000ff0
ff000ff0
ff000ff0
ff000ff0
ff000ff0
ff000ff0
ff000ff0
ff000ff0
ff000ff0
ff000ff0
ff000ff0
ff000ff0
ff000ff0
ff000ff0
00000000
00000000
00000000
00000000
00000000
00000000
00000000
00000000
ENDCHAR
STARTCHAR napostrophe
ENCODING 329
SWIDTH 568 0
DWIDTH 32 0
BBX 32 52 0 -8
BITMAP
0ff00000
0ff00000
0ff00000
0ff00000
00f00000
00f00000
00f00000
00f00000
0f000000
0f000000
0f000000
0f000000
00000000
00000000
00000000
00000000
ff0fff00
ff0fff00
ff0fff00
ff0fff00
fff00ff0
fff00ff0
fff00ff0
fff00ff0
ff000ff0
ff000ff0
ff000ff0
ff000ff0
ff000ff0
ff000ff0
ff000ff0
ff000ff0
ff000ff0
ff000ff0
ff000ff0
ff000ff0
ff000ff0
ff000ff0
ff000ff0
ff000ff0
ff000ff0
ff000ff0
ff000ff0
ff000ff0
00000000
00000000
00000000
00000000
00000000
00000000
00000000
00000000
ENDCHAR
STARTCHAR Eng
ENCODING 330
SWIDTH 568 0
DWIDTH 32 0
BBX 32 52 0 -8
BITMAP
00000000
00000000
00000000
00000000
ff000ff0
ff000ff0
ff000ff0
ff000ff0
ff000ff0
ff000ff0
ff000ff0
ff000ff0
fff00ff0
fff00ff0
fff00ff0
fff00ff0
fff00ff0
fff00ff0
fff00ff0
fff00ff0
ffff0ff0
ffff0ff0
ffff0ff0
ffff0ff0
ff0ffff0
ff0ffff0
ff0ffff0
ff0ffff0
ff00fff0
ff00fff0
ff00fff0
ff00fff0
ff00fff0
ff00fff0
ff00fff0
ff00fff0
ff000ff0
ff000ff0
ff000ff0
ff000ff0
ff000ff0
ff000ff0
ff000ff0
ff000ff0
00000ff0
00000ff0
00000ff0
00000ff0
000fff00
000fff00
000fff00
000fff00
ENDCHAR
STARTCHAR eng
ENCODING 331
SWIDTH 568 0
DWIDTH 32 0
BBX 32 52 0 -8
BITMAP
00000000
00000000
00000000
00000000
00000000
00000000
00000000
00000000
00000000
00000000
00000000
00000000
00000000
00000000
00000000
00000000
ff0fff00
ff0fff00
ff0fff00
ff0fff00
fff00ff0
fff00ff0
fff00ff0
fff00ff0
ff000ff0
ff000ff0
ff000ff0
ff000ff0
ff000ff0
ff000ff0
ff000ff0
ff000ff0
ff000ff0
ff000ff0
ff000ff0
ff000ff0
ff000ff0
ff000ff0
ff000ff0
ff000ff0
ff000ff0
ff000ff0
ff000ff0
ff000ff0
00000ff0
00000ff0
00000ff0
00000ff0
000fff00
000fff00
000fff00
000fff00
ENDCHAR
STARTCHAR Omacron
ENCODING 332
SWIDTH 568 0
DWIDTH 32 0
BBX 32 52 0 -8
BITMAP
00000000
00000000
00000000
00000000
0fffff00
0fffff00
0fffff00
0fffff00
00000000
00000000
00000000
00000000
0fffff00
0fffff00
0fffff00
0fffff00
ff000ff0
ff000ff0
ff000ff0
ff000ff0
ff000ff0
ff000ff0
ff000ff0
ff000ff0
ff000ff0
ff000ff0
ff000ff0
ff000ff0
ff000ff0
ff000ff0
ff000ff0
ff000ff0
ff000ff0
ff000ff0
ff000ff0
ff000ff0
ff000ff0
ff000ff0
ff000ff0
ff000ff0
0fffff00
0fffff00
0fffff00
0fffff00
00000000
00000000
00000000
00000000
00000000
00000000
00000000
00000000
ENDCHAR
STARTCHAR omacron
ENCODING 333
SWIDTH 568 0
DWIDTH 32 0
BBX 32 52 0 -8
BITMAP
00000000
00000000
00000000
00000000
00000000
00000000
00000000
00000000
0fffff00
0fffff00
0fffff00
0fffff00
00000000
00000000
00000000
00000000
0fffff00
0fffff00
0fffff00
0fffff00
ff000ff0
ff000ff0
ff000ff0
ff000ff0
ff000ff0
ff000ff0
ff000ff0
ff000ff0
ff000ff0
ff000ff0
ff000ff0
ff000ff0
ff000ff0
ff000ff0
ff000ff0
ff000ff0
ff000ff0
ff000ff0
ff000ff0
ff000ff0
0fffff00
0fffff00
0fffff00
0fffff00
00000000
00000000
00000000
00000000
00000000
00000000
00000000
00000000
ENDCHAR
STARTCHAR Obreve
ENCODING 334
SWIDTH 568 0
DWIDTH 32 0
BBX 32 52 0 -8
BITMAP
0f000f00
0f000f00
0f000f00
0f000f00
00fff000
00fff000
00fff000
00fff000
00000000
00000000
00000000
00000000
0fffff00
0fffff00
0fffff00
0fffff00
ff000ff0
ff000ff0
ff000ff0
ff000ff0
ff000ff0
ff000ff0
ff000ff0
ff000ff0
ff000ff0
ff000ff0
ff000ff0
ff000ff0
ff000ff0
ff000ff0
ff000ff0
ff000ff0
ff000ff0
ff000ff0
ff000ff0
ff000ff0
ff000ff0
ff000ff0
ff000ff0
ff000ff0
0fffff00
0fffff00
0fffff00
0fffff00
00000000
00000000
00000000
00000000
00000000
00000000
00000000
00000000
ENDCHAR
STARTCHAR obreve
ENCODING 335
SWIDTH 568 0
DWIDTH 32 0
BBX 32 52 0 -8
BITMAP
00000000
00000000
00000000
00000000
0f000f00
0f000f00
0f000f00
0f000f00
00fff000
00fff000
00fff000
00fff000
00000000
00000000
00000000
00000000
0fffff00
0fffff00
0fffff00
0fffff00
ff000ff0
ff000ff0
ff000ff0
ff000ff0
ff000ff0
ff000ff0
ff000ff0
ff000ff0
ff000ff0
ff000ff0
ff000ff0
ff000ff0
ff000ff0
ff000ff0
ff000ff0
ff000ff0
ff000ff0
ff000ff0
ff000ff0
ff000ff0
0fffff00
0fffff00
0fffff00
0fffff00
00000000
00000000
00000000
00000000
00000000
00000000
00000000
00000000
ENDCHAR
STARTCHAR Ohungarumlaut
ENCODING 336
SWIDTH 568 0
DWIDTH 32 0
BBX 32 52 0 -8
BITMAP
0ff00ff0
0ff00ff0
0ff00ff0
0ff00ff0
ff00ff00
ff00ff00
ff00ff00
ff00ff00
00000000
00000000
00000000
00000000
0fffff00
0fffff00
0fffff00
0fffff00
ff000ff0
ff000ff0
ff000ff0
ff000ff0
ff000ff0
ff000ff0
ff000ff0
ff000ff0
ff000ff0
ff000ff0
ff000ff0
ff000ff0
ff000ff0
ff000ff0
ff000ff0
ff000ff0
ff000ff0
ff000ff0
ff000ff0
ff000ff0
ff000ff0
ff000ff0
ff000ff0
ff000ff0
0fffff00
0fffff00
0fffff00
0fffff00
00000000
00000000
00000000
00000000
00000000
00000000
00000000
00000000
ENDCHAR
STARTCHAR ohungarumlaut
ENCODING 337
SWIDTH 568 0
DWIDTH 32 0
BBX 32 52 0 -8
BITMAP
00000000
00000000
00000000
00000000
0ff00ff0
0ff00ff0
0ff00ff0
0ff00ff0
ff00ff00
ff00ff00
ff00ff00
ff00ff00
00000000
00000000
00000000
00000000
0fffff00
0fffff00
0fffff00
0fffff00
ff000ff0
ff000ff0
ff000ff0
ff000ff0
ff000ff0
ff000ff0
ff000ff0
ff000ff0
ff000ff0
ff000ff0
ff000ff0
ff000ff0
ff000ff0
ff000ff0
ff000ff0
ff000ff0
ff000ff0
ff000ff0
ff000ff0
ff000ff0
0fffff00
0fffff00
0fffff00
0fffff00
00000000
00000000
00000000
00000000
00000000
00000000
00000000
00000000
ENDCHAR
STARTCHAR OE
ENCODING 338
SWIDTH 568 0
DWIDTH 32 0
BBX 32 52 0 -8
BITMAP
00000000
00000000
00000000
00000000
0ffffff0
0ffffff0
0ffffff0
0ffffff0
ff0ff000
ff0ff000
ff0ff000
ff0ff000
ff0ff000
ff0ff000
ff0ff000
ff0ff000
ff0ff000
ff0ff000
ff0ff000
ff0ff000
ff0fff00
ff0fff00
ff0fff00
ff0fff00
ff0ff000
ff0ff000
ff0ff000
ff0ff000
ff0ff000
ff0ff000
ff0ff000
ff0ff000
ff0ff000
ff0ff000
ff0ff000
ff0ff000
ff0ff000
ff0ff000
ff0ff000
ff0ff000
0ffffff0
0ffffff0
0ffffff0
0ffffff0
00000000
00000000
00000000
00000000
00000000
00000000
00000000
00000000
ENDCHAR
STARTCHAR oe
ENCODING 339
SWIDTH 568 0
DWIDTH 32 0
BBX 32 52 0 -8
BITMAP
00000000
00000000
00000000
00000000
00000000
00000000
00000000
00000000
00000000
00000000
00000000
00000000
00000000
00000000
00000000
00000000
0ff0fff0
0ff0fff0
0ff0fff0
0ff0fff0
ff0ff0ff
ff0ff0ff
ff0ff0ff
ff0ff0ff
ff0ff0ff
ff0ff0ff
ff0ff0ff
ff0ff0ff
ff0ffff0
ff0ffff0
ff0ffff0
ff0ffff0
ff0ff000
ff0ff000
ff0ff000
ff0ff000
ff0ff0ff
ff0ff0ff
ff0ff0ff
ff0ff0ff
0ff0fff0
0ff0fff0
0ff0fff0
0ff0fff0
00000000
00000000
00000000
00000000
00000000
00000000
00000000
00000000
ENDCHAR
STARTCHAR Racute
ENCODING 340
SWIDTH 568 0
DWIDTH 32 0
BBX 32 52 0 -8
BITMAP
000ff000
000ff000
000ff000
000ff000
00ff0000
00ff0000
00ff0000
00ff0000
00000000
00000000
00000000
00000000
ffffff00
ffffff00
ffffff00
ffffff00
ff000ff0
ff000ff0
ff000ff0
ff000ff0
ff000ff0
ff000ff0
ff000ff0
ff000ff0
ffffff00
ffffff00
ffffff00
ffffff00
fffff000
fffff000
fffff000
fffff000
ff00ff00
ff00ff00
ff00ff00
ff00ff00
ff00ff00
ff00ff00
ff00ff00
ff00ff00
ff000ff0
ff000ff0
ff000ff0
ff000ff0
00000000
00000000
00000000
00000000
00000000
00000000
00000000
00000000
ENDCHAR
STARTCHAR racute
ENCODING 341
SWIDTH 568 0
DWIDTH 32 0
BBX 32 52 0 -8
BITMAP
00000000
00000000
00000000
00000000
000ff000
000ff000
000ff000
000ff000
00ff0000
00ff0000
00ff0000
00ff0000
00000000
00000000
00000000
00000000
ff0fff00
ff0fff00
ff0fff00
ff0fff00
fff00ff0
fff00ff0
fff00ff0
fff00ff0
ff000000
ff000000
ff000000
ff000000
ff000000
ff000000
ff000000
ff000000
ff000000
ff000000
ff000000
ff000000
ff000000
ff000000
ff000000
ff000000
ff000000
ff000000
ff000000
ff000000
00000000
00000000
00000000
00000000
00000000
00000000
00000000
00000000
ENDCHAR
STARTCHAR Rcommaaccent
ENCODING 342
SWIDTH 568 0
DWIDTH 32 0
BBX 32 52 0 -8
BITMAP
00000000
00000000
00000000
00000000
ffffff00
ffffff00
ffffff00
ffffff00
ff000ff0
ff000ff0
ff000ff0
ff000ff0
ff000ff0
ff000ff0
ff000ff0
ff000ff0
ff000ff0
ff000ff0
ff000ff0
ff000ff0
ffffff00
ffffff00
ffffff00
ffffff00
fffff000
fffff000
fffff000
fffff000
ff00ff00
ff00ff00
ff00ff00
ff00ff00
ff00ff00
ff00ff00
ff00ff00
ff00ff00
ff000ff0
ff000ff0
ff000ff0
ff000ff0
ff000ff0
ff000ff0
ff000ff0
ff000ff0
0ff00000
0ff00000
0ff00000
0ff00000
ff000000
ff000000
ff000000
ff000000
ENDCHAR
STARTCHAR rcommaaccent
ENCODING 343
SWIDTH 568 0
DWIDTH 32 0
BBX 32 52 0 -8
BITMAP
00000000
00000000
00000000
00000000
00000000
00000000
00000000
00000000
00000000
00000000
00000000
00000000
00000000
00000000
00000000
00000000
ff0fff00
ff0fff00
ff0fff00
ff0fff00
fff00ff0
fff00ff0
fff00ff0
fff00ff0
ff000000
ff000000
ff000000
ff000000
ff000000
ff000000
ff000000
ff000000
ff000000
ff000000
ff000000
ff000000
ff000000
ff000000
ff000000
ff000000
ff000000
ff000000
ff000000
ff000000
0ff00000
0ff00000
0ff00000
0ff00000
ff000000
ff000000
ff000000
ff000000
ENDCHAR
STARTCHAR Rcaron
ENCODING 344
SWIDTH 568 0
DWIDTH 32 0
BBX 32 52 0 -8
BITMAP
0ff0ff00
0ff0ff00
0ff0ff00
0ff0ff00
00fff000
00fff000
00fff000
00fff000
00000000
00000000
00000000
00000000
ffffff00
ffffff00
ffffff00
ffffff00
ff000ff0
ff000ff0
ff000ff0
ff000ff0
ff000ff0
ff000ff0
ff000ff0
ff000ff0
ffffff00
ffffff00
ffffff00
ffffff00
fffff000
fffff000
fffff000
fffff000
ff00ff00
ff00ff00
ff00ff00
ff00ff00
ff00ff00
ff00ff00
ff00ff00
ff00ff00
ff000ff0
ff000ff0
ff000ff0
ff000ff0
00000000
00000000
00000000
00000000
00000000
00000000
00000000
00000000
ENDCHAR
STARTCHAR rcaron
ENCODING 345
SWIDTH 568 0
DWIDTH 32 0
BBX 32 52 0 -8
BITMAP
00000000
00000000
00000000
00000000
0ff0ff00
0ff0ff00
0ff0ff00
0ff0ff00
00fff000
00fff000
00fff000
00fff000
00000000
00000000
00000000
00000000
ff0fff00
ff0fff00
ff0fff00
ff0fff00
fff00ff0
fff00ff0
fff00ff0
fff00ff0
ff000000
ff000000
ff000000
ff000000
ff000000
ff000000
ff000000
ff000000
ff000000
ff000000
ff000000
ff000000
ff000000
ff000000
ff000000
ff000000
ff000000
ff000000
ff000000
ff000000
00000000
00000000
00000000
00000000
00000000
00000000
00000000
00000000
ENDCHAR
STARTCHAR Sacute
ENCODING 346
SWIDTH 568 0
DWIDTH 32 0
BBX 32 52 0 -8
BITMAP
000ff000
000ff000
000ff000
000ff000
00ff0000
00ff0000
00ff0000
00ff0000
00000000
00000000
00000000
00000000
0fffff00
0fffff00
0fffff00
0fffff00
ff000ff0
ff000ff0
ff000ff0
ff000ff0
ff000000
ff000000
ff000000
ff000000
0fffff00
0fffff00
0fffff00
0fffff00
00000ff0
00000ff0
00000ff0
00000ff0
00000ff0
00000ff0
00000ff0
00000ff0
ff000ff0
ff000ff0
ff000ff0
ff000ff0
0fffff00
0fffff00
0fffff00
0fffff00
00000000
00000000
00000000
00000000
00000000
00000000
00000000
00000000
ENDCHAR
STARTCHAR sacute
ENCODING 347
SWIDTH 568 0
DWIDTH 32 0
BBX 32 52 0 -8
BITMAP
00000000
00000000
00000000
00000000
00000000
00000000
00000000
00000000
000ff000
000ff000
000ff000
000ff000
00ff0000
00ff0000
00ff0000
00ff0000
00000000
00000000
00000000
00000000
0fffff00
0fffff00
0fffff00
0fffff00
ff000ff0
ff000ff0
ff000ff0
ff000ff0
0fff0000
0fff0000
0fff0000
0fff0000
000fff00
000fff00
000fff00
000fff00
ff000ff0
ff000ff0
ff000ff0
ff000ff0
0fffff00
0fffff00
0fffff00
0fffff00
00000000
00000000
00000000
00000000
00000000
00000000
00000000
00000000
ENDCHAR
STARTCHAR Scircumflex
ENCODING 348
SWIDTH 568 0
DWIDTH 32 0
BBX 32 52 0 -8
BITMAP
00fff000
00fff000
00fff000
00fff000
0ff0ff00
0ff0ff00
0ff0ff00
0ff0ff00
00000000
00000000
00000000
00000000
0fffff00
0fffff00
0fffff00
0fffff00
ff000ff0
ff000ff0
ff000ff0
ff000ff0
ff000000
ff000000
ff000000
ff000000
0fffff00
0fffff00
0fffff00
0fffff00
00000ff0
00000ff0
00000ff0
00000ff0
00000ff0
00000ff0
00000ff0
00000ff0
ff000ff0
ff000ff0
ff000ff0
ff000ff0
0fffff00
0fffff00
0fffff00
0fffff00
00000000
00000000
00000000
00000000
00000000
00000000
00000000
00000000
ENDCHAR
STARTCHAR scircumflex
ENCODING 349
SWIDTH 568 0
DWIDTH 32 0
BBX 32 52 0 -8
BITMAP
00000000
00000000
00000000
00000000
00000000
00000000
00000000
00000000
00fff000
00fff000
00fff000
00fff000
0ff0ff00
0ff0ff00
0ff0ff00
0ff0ff00
00000000
00000000
00000000
00000000
0fffff00
0fffff00
0fffff00
0fffff00
ff000ff0
ff000ff0
ff000ff0
ff000ff0
0fff0000
0fff0000
0fff0000
0fff0000
000fff00
000fff00
000fff00
000fff00
ff000ff0
ff000ff0
ff000ff0
ff000ff0
0fffff00
0fffff00
0fffff00
0fffff00
00000000
00000000
00000000
00000000
00000000
00000000
00000000
00000000
ENDCHAR
STARTCHAR Scedilla
ENCODING 350
SWIDTH 568 0
DWIDTH 32 0
BBX 32 52 0 -8
BITMAP
00000000
00000000
00000000
00000000
0fffff00
0fffff00
0fffff00
0fffff00
ff000ff0
ff000ff0
ff000ff0
ff000ff0
ff000ff0
ff000ff0
ff000ff0
ff000ff0
ff000000
ff000000
ff000000
ff000000
0fffff00
0fffff00
0fffff00
0fffff00
00000ff0
00000ff0
00000ff0
00000ff0
00000ff0
00000ff0
00000ff0
00000ff0
ff000ff0
ff000ff0
ff000ff0
ff000ff0
ff000ff0
ff000ff0
ff000ff0
ff000ff0
0fffff00
0fffff00
0fffff00
0fffff00
000ff000
000ff000
000ff000
000ff000
00ff0000
00ff0000
00ff0000
00ff0000
ENDCHAR
STARTCHAR scedilla
ENCODING 351
SWIDTH 568 0
DWIDTH 32 0
BBX 32 52 0 -8
BITMAP
00000000
00000000
00000000
00000000
00000000
00000000
00000000
00000000
00000000
00000000
00000000
00000000
00000000
00000000
00000000
00000000
0fffff00
0fffff00
0fffff00
0fffff00
ff000ff0
ff000ff0
ff000ff0
ff000ff0
0ff00000
0ff00000
0ff00000
0ff00000
00fff000
00fff000
00fff000
00fff000
0000ff00
0000ff00
0000ff00
0000ff00
ff000ff0
ff000ff0
ff000ff0
ff000ff0
0fffff00
0fffff00
0fffff00
0fffff00
000ff000
000ff000
000ff000
000ff000
00ff0000
00ff0000
00ff0000
00ff0000
ENDCHAR
STARTCHAR Scaron
ENCODING 352
SWIDTH 568 0
DWIDTH 32 0
BBX 32 52 0 -8
BITMAP
0ff0ff00
0ff0ff00
0ff0ff00
0ff0ff00
00fff000
00fff000
00fff000
00fff000
00000000
00000000
00000000
00000000
0fffff00
0fffff00
0fffff00
0fffff00
ff000ff0
ff000ff0
ff000ff0
ff000ff0
ff000000
ff000000
ff000000
ff000000
0fffff00
0fffff00
0fffff00
0fffff00
00000ff0
00000ff0
00000ff0
00000ff0
00000ff0
00000ff0
00000ff0
00000ff0
ff000ff0
ff000ff0
ff000ff0
ff000ff0
0fffff00
0fffff00
0fffff00
0fffff00
00000000
00000000
00000000
00000000
00000000
00000000
00000000
00000000
ENDCHAR
STARTCHAR scaron
ENCODING 353
SWIDTH 568 0
DWIDTH 32 0
BBX 32 52 0 -8
BITMAP
00000000
00000000
00000000
00000000
00000000
00000000
00000000
00000000
0ff0ff00
0ff0ff00
0ff0ff00
0ff0ff00
00fff000
00fff000
00fff000
00fff000
00000000
00000000
00000000
00000000
0fffff00
0fffff00
0fffff00
0fffff00
ff000ff0
ff000ff0
ff000ff0
ff000ff0
0fff0000
0fff0000
0fff0000
0fff0000
000fff00
000fff00
000fff00
000fff00
ff000ff0
ff000ff0
ff000ff0
ff000ff0
0fffff00
0fffff00
0fffff00
0fffff00
00000000
00000000
00000000
00000000
00000000
00000000
00000000
00000000
ENDCHAR
STARTCHAR Tcommaaccent
ENCODING 354
SWIDTH 568 0
DWIDTH 32 0
BBX 32 52 0 -8
BITMAP
00000000
00000000
00000000
00000000
0ffffff0
0ffffff0
0ffffff0
0ffffff0
000ff000
000ff000
000ff000
000ff000
000ff000
000ff000
000ff000
000ff000
000ff000
000ff000
000ff000
000ff000
000ff000
000ff000
000ff000
000ff000
000ff000
000ff000
000ff000
000ff000
000ff000
000ff000
000ff000
000ff000
000ff000
000ff000
000ff000
000ff000
000ff000
000ff000
000ff000
000ff000
000ff000
000ff000
000ff000
000ff000
0000ff00
0000ff00
0000ff00
0000ff00
000ff000
000ff000
000ff000
000ff000
ENDCHAR
STARTCHAR tcommaaccent
ENCODING 355
SWIDTH 568 0
DWIDTH 32 0
BBX 32 52 0 -8
BITMAP
00000000
00000000
00000000
00000000
0ff00000
0ff00000
0ff00000
0ff00000
0ff00000
0ff00000
0ff00000
0ff00000
0ff00000
0ff00000
0ff00000
0ff00000
0ff00000
0ff00000
0ff00000
0ff00000
ffffff00
ffffff00
ffffff00
ffffff00
0ff00000
0ff00000
0ff00000
0ff00000
0ff00000
0ff00000
0ff00000
0ff00000
0ff00000
0ff00000
0ff00000
0ff00000
0ff00ff0
0ff00ff0
0ff00ff0
0ff00ff0
00ffff00
00ffff00
00ffff00
00ffff00
000ff000
000ff000
000ff000
000ff000
00ff0000
00ff0000
00ff0000
00ff0000
ENDCHAR
STARTCHAR Tcaron
ENCODING 356
SWIDTH 568 0
DWIDTH 32 0
BBX 32 52 0 -8
BITMAP
0ff0ff00
0ff0ff00
0ff0ff00
0ff0ff00
00fff000
00fff000
00fff000
00fff000
00000000
00000000
00000000
00000000
0ffffff0
0ffffff0
0ffffff0
0ffffff0
000ff000
000ff000
000ff000
000ff000
000ff000
000ff000
000ff000
000ff000
000ff000
000ff000
000ff000
000ff000
000ff000
000ff000
000ff000
000ff000
000ff000
000ff000
000ff000
000ff000
000ff000
000ff000
000ff000
000ff000
000ff000
000ff000
000ff000
000ff000
00000000
00000000
00000000
00000000
00000000
00000000
00000000
00000000
ENDCHAR
STARTCHAR tcaron
ENCODING 357
SWIDTH 568 0
DWIDTH 32 0
BBX 32 52 0 -8
BITMAP
0ff0ff00
0ff0ff00
0ff0ff00
0ff0ff00
00fff000
00fff000
00fff000
00fff000
00000000
00000000
00000000
00000000
0ff00000
0ff00000
0ff00000
0ff00000
0ff00000
0ff00000
0ff00000
0ff00000
ffffff00
ffffff00
ffffff00
ffffff00
0ff00000
0ff00000
0ff00000
0ff00000
0ff00000
0ff00000
0ff00000
0ff00000
0ff00000
0ff00000
0ff00000
0ff00000
0ff00ff0
0ff00ff0
0ff00ff0
0ff00ff0
00ffff00
00ffff00
00ffff00
00ffff00
00000000
00000000
00000000
00000000
00000000
00000000
00000000
00000000
ENDCHAR
STARTCHAR Tbar
ENCODING 358
SWIDTH 568 0
DWIDTH 32 0
BBX 32 52 0 -8
BITMAP
00000000
00000000
00000000
00000000
0ffffff0
0ffffff0
0ffffff0
0ffffff0
000ff000
000ff000
000ff000
000ff000
000ff000
000ff000
000ff000
000ff000
0ffffff0
0ffffff0
0ffffff0
0ffffff0
000ff000
000ff000
000ff000
000ff000
000ff000
000ff000
000ff000
000ff000
000ff000
000ff000
000ff000
000ff000
000ff000
000ff000
000ff000
000ff000
000ff000
000ff000
000ff000
000ff000
000ff000
000ff000
000ff000
000ff000
00000000
00000000
00000000
00000000
00000000
00000000
00000000
00000000
ENDCHAR
STARTCHAR tbar
ENCODING 359
SWIDTH 568 0
DWIDTH 32 0
BBX 32 52 0 -8
BITMAP
00000000
00000000
00000000
00000000
0ff00000
0ff00000
0ff00000
0ff00000
0ff00000
0ff00000
0ff00000
0ff00000
ffffff00
ffffff00
ffffff00
ffffff00
0ff00000
0ff00000
0ff00000
0ff00000
ffffff00
ffffff00
ffffff00
ffffff00
0ff00000
0ff00000
0ff00000
0ff00000
0ff00000
0ff00000
0ff00000
0ff00000
0ff00000
0ff00000
0ff00000
0ff00000
0ff00ff0
0ff00ff0
0ff00ff0
0ff00ff0
00ffff00
00ffff00
00ffff00
00ffff00
00000000
00000000
00000000
00000000
00000000
00000000
00000000
00000000
ENDCHAR
STARTCHAR Utilde
ENCODING 360
SWIDTH 568 0
DWIDTH 32 0
BBX 32 52 0 -8
BITMAP
00ff0f00
00ff0f00
00ff0f00
00ff0f00
0f0ff000
0f0ff000
0f0ff000
0f0ff000
00000000
00000000
00000000
00000000
ff000ff0
ff000ff0
ff000ff0
ff000ff0
ff000ff0
ff000ff0
ff000ff0
ff000ff0
ff000ff0
ff000ff0
ff000ff0
ff000ff0
ff000ff0
ff000ff0
ff000ff0
ff000ff0
ff000ff0
ff000ff0
ff000ff0
ff000ff0
ff000ff0
ff000ff0
ff000ff0
ff000ff0
ff000ff0
ff000ff0
ff000ff0
ff000ff0
0fffff00
0fffff00
0fffff00
0fffff00
00000000
00000000
00000000
00000000
00000000
00000000
00000000
00000000
ENDCHAR
STARTCHAR utilde
ENCODING 361
SWIDTH 568 0
DWIDTH 32 0
BBX 32 52 0 -8
BITMAP
00000000
00000000
00000000
00000000
00ff0f00
00ff0f00
00ff0f00
00ff0f00
0f0ff000
0f0ff000
0f0ff000
0f0ff000
00000000
00000000
00000000
00000000
ff000ff0
ff000ff0
ff000ff0
ff000ff0
ff000ff0
ff000ff0
ff000ff0
ff000ff0
ff000ff0
ff000ff0
ff000ff0
ff000ff0
ff000ff0
ff000ff0
ff000ff0
ff000ff0
ff000ff0
ff000ff0
ff000ff0
ff000ff0
ff00fff0
ff00fff0
ff00fff0
ff00fff0
0fff0ff0
0fff0ff0
0fff0ff0
0fff0ff0
00000000
00000000
00000000
00000000
00000000
00000000
00000000
00000000
ENDCHAR
STARTCHAR Umacron
ENCODING 362
SWIDTH 568 0
DWIDTH 32 0
BBX 32 52 0 -8
BITMAP
00000000
00000000
00000000
00000000
0fffff00
0fffff00
0fffff00
0fffff00
00000000
00000000
00000000
00000000
ff000ff0
ff000ff0
ff000ff0
ff000ff0
ff000ff0
ff000ff0
ff000ff0
ff000ff0
ff000ff0
ff000ff0
ff000ff0
ff000ff0
ff000ff0
ff000ff0
ff000ff0
ff000ff0
ff000ff0
ff000ff0
ff000ff0
ff000ff0
ff000ff0
ff000ff0
ff000ff0
ff000ff0
ff000ff0
ff000ff0
ff000ff0
ff000ff0
0fffff00
0fffff00
0fffff00
0fffff00
00000000
00000000
00000000
00000000
00000000
00000000
00000000
00000000
ENDCHAR
STARTCHAR umacron
ENCODING 363
SWIDTH 568 0
DWIDTH 32 0
BBX 32 52 0 -8
BITMAP
00000000
00000000
00000000
00000000
0fffff00
0fffff00
0fffff00
0fffff00
00000000
00000000
00000000
00000000
00000000
00000000
00000000
00000000
ff000ff0
ff000ff0
ff000ff0
ff000ff0
ff000ff0
ff000ff0
ff000ff0
ff000ff0
ff000ff0
ff000ff0
ff000ff0
ff000ff0
ff000ff0
ff000ff0
ff000ff0
ff000ff0
ff000ff0
ff000ff0
ff000ff0
ff000ff0
ff00fff0
ff00fff0
ff00fff0
ff00fff0
0fff0ff0
0fff0ff0
0fff0ff0
0fff0ff0
00000000
00000000
00000000
00000000
00000000
00000000
00000000
00000000
ENDCHAR
STARTCHAR Ubreve
ENCODING 364
SWIDTH 568 0
DWIDTH 32 0
BBX 32 52 0 -8
BITMAP
0f000f00
0f000f00
0f000f00
0f000f00
00fff000
00fff000
00fff000
00fff000
00000000
00000000
00000000
00000000
ff000ff0
ff000ff0
ff000ff0
ff000ff0
ff000ff0
ff000ff0
ff000ff0
ff000ff0
ff000ff0
ff000ff0
ff000ff0
ff000ff0
ff000ff0
ff000ff0
ff000ff0
ff000ff0
ff000ff0
ff000ff0
ff000ff0
ff000ff0
ff000ff0
ff000ff0
ff000ff0
ff000ff0
ff000ff0
ff000ff0
ff000ff0
ff000ff0
0fffff00
0fffff00
0fffff00
0fffff00
00000000
00000000
00000000
00000000
00000000
00000000
00000000
00000000
ENDCHAR
STARTCHAR ubreve
ENCODING 365
SWIDTH 568 0
DWIDTH 32 0
BBX 32 52 0 -8
BITMAP
00000000
00000000
00000000
00000000
0f000f00
0f000f00
0f000f00
0f000f00
00fff000
00fff000
00fff000
00fff000
00000000
00000000
00000000
00000000
ff000ff0
ff000ff0
ff000ff0
ff000ff0
ff000ff0
ff000ff0
ff000ff0
ff000ff0
ff000ff0
ff000ff0
ff000ff0
ff000ff0
ff000ff0
ff000ff0
ff000ff0
ff000ff0
ff000ff0
ff000ff0
ff000ff0
ff000ff0
ff00fff0
ff00fff0
ff00fff0
ff00fff0
0fff0ff0
0fff0ff0
0fff0ff0
0fff0ff0
00000000
00000000
00000000
00000000
00000000
00000000
00000000
00000000
ENDCHAR
STARTCHAR Uring
ENCODING 366
SWIDTH 568 0
DWIDTH 32 0
BBX 32 52 0 -8
BITMAP
000ff000
000ff000
000ff000
000ff000
00f00f00
00f00f00
00f00f00
00f00f00
000ff000
000ff000
000ff000
000ff000
ff000ff0
ff000ff0
ff000ff0
ff000ff0
ff000ff0
ff000ff0
ff000ff0
ff000ff0
ff000ff0
ff000ff0
ff000ff0
ff000ff0
ff000ff0
ff000ff0
ff000ff0
ff000ff0
ff000ff0
ff000ff0
ff000ff0
ff000ff0
ff000ff0
ff000ff0
ff000ff0
ff000ff0
ff000ff0
ff000ff0
ff000ff0
ff000ff0
0fffff00
0fffff00
0fffff00
0fffff00
00000000
00000000
00000000
00000000
00000000
00000000
00000000
00000000
ENDCHAR
STARTCHAR uring
ENCODING 367
SWIDTH 568 0
DWIDTH 32 0
BBX 32 52 0 -8
BITMAP
00000000
00000000
00000000
00000000
000ff000
000ff000
000ff000
000ff000
00f00f00
00f00f00
00f00f00
00f00f00
000ff000
000ff000
000ff000
000ff000
ff000ff0
ff000ff0
ff000ff0
ff000ff0
ff000ff0
ff000ff0
ff000ff0
ff000ff0
ff000ff0
ff000ff0
ff000ff0
ff000ff0
ff000ff0
ff000ff0
ff000ff0
ff000ff0
ff000ff0
ff000ff0
ff000ff0
ff000ff0
ff00fff0
ff00fff0
ff00fff0
ff00fff0
0fff0ff0
0fff0ff0
0fff0ff0
0fff0ff0
00000000
00000000
00000000
00000000
00000000
00000000
00000000
00000000
ENDCHAR
STARTCHAR Uhungarumlaut
ENCODING 368
SWIDTH 568 0
DWIDTH 32 0
BBX 32 52 0 -8
BITMAP
0ff00ff0
0ff00ff0
0ff00ff0
0ff00ff0
ff00ff00
ff00ff00
ff00ff00
ff00ff00
00000000
00000000
00000000
00000000
ff000ff0
ff000ff0
ff000ff0
ff000ff0
ff000ff0
ff000ff0
ff000ff0
ff000ff0
ff000ff0
ff000ff0
ff000ff0
ff000ff0
ff000ff0
ff000ff0
ff000ff0
ff000ff0
ff000ff0
ff000ff0
ff000ff0
ff000ff0
ff000ff0
ff000ff0
ff000ff0
ff000ff0
ff000ff0
ff000ff0
ff000ff0
ff000ff0
0fffff00
0fffff00
0fffff00
0fffff00
00000000
00000000
00000000
00000000
00000000
00000000
00000000
00000000
ENDCHAR
STARTCHAR uhungarumlaut
ENCODING 369
SWIDTH 568 0
DWIDTH 32 0
BBX 32 52 0 -8
BITMAP
00000000
00000000
00000000
00000000
0ff00ff0
0ff00ff0
0ff00ff0
0ff00ff0
ff00ff00
ff00ff00
ff00ff00
ff00ff00
00000000
00000000
00000000
00000000
ff000ff0
ff000ff0
ff000ff0
ff000ff0
ff000ff0
ff000ff0
ff000ff0
ff000ff0
ff000ff0
ff000ff0
ff000ff0
ff000ff0
ff000ff0
ff000ff0
ff000ff0
ff000ff0
ff000ff0
ff000ff0
ff000ff0
ff000ff0
ff00fff0
ff00fff0
ff00fff0
ff00fff0
0fff0ff0
0fff0ff0
0fff0ff0
0fff0ff0
00000000
00000000
00000000
00000000
00000000
00000000
00000000
00000000
ENDCHAR
STARTCHAR Uogonek
ENCODING 370
SWIDTH 568 0
DWIDTH 32 0
BBX 32 52 0 -8
BITMAP
00000000
00000000
00000000
00000000
ff000ff0
ff000ff0
ff000ff0
ff000ff0
ff000ff0
ff000ff0
ff000ff0
ff000ff0
ff000ff0
ff000ff0
ff000ff0
ff000ff0
ff000ff0
ff000ff0
ff000ff0
ff000ff0
ff000ff0
ff000ff0
ff000ff0
ff000ff0
ff000ff0
ff000ff0
ff000ff0
ff000ff0
ff000ff0
ff000ff0
ff000ff0
ff000ff0
ff000ff0
ff000ff0
ff000ff0
ff000ff0
ff000ff0
ff000ff0
ff000ff0
ff000ff0
0fffff00
0fffff00
0fffff00
0fffff00
00ff0000
00ff0000
00ff0000
00ff0000
00ffff00
00ffff00
00ffff00
00ffff00
ENDCHAR
STARTCHAR uogonek
ENCODING 371
SWIDTH 568 0
DWIDTH 32 0
BBX 32 52 0 -8
BITMAP
00000000
00000000
00000000
00000000
00000000
00000000
00000000
00000000
00000000
00000000
00000000
00000000
00000000
00000000
00000000
00000000
ff000ff0
ff000ff0
ff000ff0
ff000ff0
ff000ff0
ff000ff0
ff000ff0
ff000ff0
ff000ff0
ff000ff0
ff000ff0
ff000ff0
ff000ff0
ff000ff0
ff000ff0
ff000ff0
ff000ff0
ff000ff0
ff000ff0
ff000ff0
ff00fff0
ff00fff0
ff00fff0
ff00fff0
0fff0ff0
0fff0ff0
0fff0ff0
0fff0ff0
00ff0000
00ff0000
00ff0000
00ff0000
00ffff00
00ffff00
00ffff00
00ffff00
ENDCHAR
STARTCHAR Wcircumflex
ENCODING 372
SWIDTH 568 0
DWIDTH 32 0
BBX 32 52 0 -8
BITMAP
00fff000
00fff000
00fff000
00fff000
0ff0ff00
0ff0ff00
0ff0ff00
0ff0ff00
00000000
00000000
00000000
00000000
ff000ff0
ff000ff0
ff000ff0
ff000ff0
ff000ff0
ff000ff0
ff000ff0
ff000ff0
ff000ff0
ff000ff0
ff000ff0
ff000ff0
ff000ff0
ff000ff0
ff000ff0
ff000ff0
ff0f0ff0
ff0f0ff0
ff0f0ff0
ff0f0ff0
ff0f0ff0
ff0f0ff0
ff0f0ff0
ff0f0ff0
fffffff0
fffffff0
fffffff0
fffffff0
0ff0ff00
0ff0ff00
0ff0ff00
0ff0ff00
00000000
00000000
00000000
00000000
00000000
00000000
00000000
00000000
ENDCHAR
STARTCHAR wcircumflex
ENCODING 373
SWIDTH 568 0
DWIDTH 32 0
BBX 32 52 0 -8
BITMAP
00000000
00000000
00000000
00000000
00fff000
00fff000
00fff000
00fff000
0ff0ff00
0ff0ff00
0ff0ff00
0ff0ff00
00000000
00000000
00000000
00000000
ff000ff0
ff000ff0
ff000ff0
ff000ff0
ff000ff0
ff000ff0
ff000ff0
ff000ff0
ff000ff0
ff000ff0
ff000ff0
ff000ff0
ff0f0ff0
ff0f0ff0
ff0f0ff0
ff0f0ff0
ff0f0ff0
ff0f0ff0
ff0f0ff0
ff0f0ff0
fffffff0
fffffff0
fffffff0
fffffff0
0ff0ff00
0ff0ff00
0ff0ff00
0ff0ff00
00000000
00000000
00000000
00000000
00000000
00000000
00000000
00000000
ENDCHAR
STARTCHAR Ycircumflex
ENCODING 374
SWIDTH 568 0
DWIDTH 32 0
BBX 32 52 0 -8
BITMAP
00fff000
00fff000
00fff000
00fff000
0ff0ff00
0ff0ff00
0ff0ff00
0ff0ff00
00000000
00000000
00000000
00000000
0ff00ff0
0ff00ff0
0ff00ff0
0ff00ff0
0ff00ff0
0ff00ff0
0ff00ff0
0ff00ff0
0ff00ff0
0ff00ff0
0ff00ff0
0ff00ff0
00ffff00
00ffff00
00ffff00
00ffff00
00ffff00
00ffff00
00ffff00
00ffff00
000ff000
000ff000
000ff000
000ff000
000ff000
000ff000
000ff000
000ff000
000ff000
000ff000
000ff000
000ff000
00000000
00000000
00000000
00000000
00000000
00000000
00000000
00000000
ENDCHAR
STARTCHAR ycircumflex
ENCODING 375
SWIDTH 568 0
DWIDTH 32 0
BBX 32 52 0 -8
BITMAP
00000000
00000000
00000000
00000000
00fff000
00fff000
00fff000
00fff000
0ff0ff00
0ff0ff00
0ff0ff00
0ff0ff00
00000000
00000000
00000000
00000000
ff000ff0
ff000ff0
ff000ff0
ff000ff0
ff000ff0
ff000ff0
ff000ff0
ff000ff0
ff000ff0
ff000ff0
ff000ff0
ff000ff0
ff000ff0
ff000ff0
ff000ff0
ff000ff0
ff00fff0
ff00fff0
ff00fff0
ff00fff0
0fff0ff0
0fff0ff0
0fff0ff0
0fff0ff0
00000ff0
00000ff0
00000ff0
00000ff0
ff000ff0
ff000ff0
ff000ff0
ff000ff0
0fffff00
0fffff00
0fffff00
0fffff00
ENDCHAR
STARTCHAR Ydieresis
ENCODING 376
SWIDTH 568 0
DWIDTH 32 0
BBX 32 52 0 -8
BITMAP
0ff00ff0
0ff00ff0
0ff00ff0
0ff00ff0
0ff00ff0
0ff00ff0
0ff00ff0
0ff00ff0
00000000
00000000
00000000
00000000
0ff00ff0
0ff00ff0
0ff00ff0
0ff00ff0
0ff00ff0
0ff00ff0
0ff00ff0
0ff00ff0
0ff00ff0
0ff00ff0
0ff00ff0
0ff00ff0
00ffff00
00ffff00
00ffff00
00ffff00
00ffff00
00ffff00
00ffff00
00ffff00
000ff000
000ff000
000ff000
000ff000
000ff000
000ff000
000ff000
000ff000
000ff000
000ff000
000ff000
000ff000
00000000
00000000
00000000
00000000
00000000
00000000
00000000
00000000
ENDCHAR
STARTCHAR Zacute
ENCODING 377
SWIDTH 568 0
DWIDTH 32 0
BBX 32 52 0 -8
BITMAP
00000000
00000000
00000000
00000000
000ff000
000ff000
000ff000
000ff000
00ff0000
00ff0000
00ff0000
00ff0000
00000000
00000000
00000000
00000000
fffffff0
fffffff0
fffffff0
fffffff0
0000ff00
0000ff00
0000ff00
0000ff00
000ff000
000ff000
000ff000
000ff000
00ff0000
00ff0000
00ff0000
00ff0000
0ff00000
0ff00000
0ff00000
0ff00000
ff000000
ff000000
ff000000
ff000000
fffffff0
fffffff0
fffffff0
fffffff0
00000000
00000000
00000000
00000000
00000000
00000000
00000000
00000000
ENDCHAR
STARTCHAR zacute
ENCODING 378
SWIDTH 568 0
DWIDTH 32 0
BBX 32 52 0 -8
BITMAP
00000000
00000000
00000000
00000000
00000000
00000000
00000000
00000000
000ff000
000ff000
000ff000
000ff000
00ff0000
00ff0000
00ff0000
00ff0000
00000000
00000000
00000000
00000000
fffffff0
fffffff0
fffffff0
fffffff0
0000ff00
0000ff00
0000ff00
0000ff00
000ff000
000ff000
000ff000
000ff000
00ff0000
00ff0000
00ff0000
00ff0000
0ff00000
0ff00000
0ff00000
0ff00000
fffffff0
fffffff0
fffffff0
fffffff0
00000000
00000000
00000000
00000000
00000000
00000000
00000000
00000000
ENDCHAR
STARTCHAR Zdotaccent
ENCODING 379
SWIDTH 568 0
DWIDTH 32 0
BBX 32 52 0 -8
BITMAP
00000000
00000000
00000000
00000000
000ff000
000ff000
000ff000
000ff000
000ff000
000ff000
000ff000
000ff000
00000000
00000000
00000000
00000000
fffffff0
fffffff0
fffffff0
fffffff0
0000ff00
0000ff00
0000ff00
0000ff00
000ff000
000ff000
000ff000
000ff000
00ff0000
00ff0000
00ff0000
00ff0000
0ff00000
0ff00000
0ff00000
0ff00000
ff000000
ff000000
ff000000
ff000000
fffffff0
fffffff0
fffffff0
fffffff0
00000000
00000000
00000000
00000000
00000000
00000000
00000000
00000000
ENDCHAR
STARTCHAR zdotaccent
ENCODING 380
SWIDTH 568 0
DWIDTH 32 0
BBX 32 52 0 -8
BITMAP
00000000
00000000
00000000
00000000
00000000
00000000
00000000
00000000
000ff000
000ff000
000ff000
000ff000
000ff000
000ff000
000ff000
000ff000
00000000
00000000
00000000
00000000
fffffff0
fffffff0
fffffff0
fffffff0
0000ff00
0000ff00
0000ff00
0000ff00
000ff000
000ff000
000ff000
000ff000
00ff0000
00ff0000
00ff0000
00ff0000
0ff00000
0ff00000
0ff00000
0ff00000
fffffff0
fffffff0
fffffff0
fffffff0
00000000
00000000
00000000
00000000
00000000
00000000
00000000
00000000
ENDCHAR
STARTCHAR Zcaron
ENCODING 381
SWIDTH 568 0
DWIDTH 32 0
BBX 32 52 0 -8
BITMAP
00000000
00000000
00000000
00000000
0ff0ff00
0ff0ff00
0ff0ff00
0ff0ff00
00fff000
00fff000
00fff000
00fff000
00000000
00000000
00000000
00000000
fffffff0
fffffff0
fffffff0
fffffff0
0000ff00
0000ff00
0000ff00
0000ff00
000ff000
000ff000
000ff000
000ff000
00ff0000
00ff0000
00ff0000
00ff0000
0ff00000
0ff00000
0ff00000
0ff00000
ff000000
ff000000
ff000000
ff000000
fffffff0
fffffff0
fffffff0
fffffff0
00000000
00000000
00000000
00000000
00000000
00000000
00000000
00000000
ENDCHAR
STARTCHAR zcaron
ENCODING 382
SWIDTH 568 0
DWIDTH 32 0
BBX 32 52 0 -8
BITMAP
00000000
00000000
00000000
00000000
00000000
00000000
00000000
00000000
0ff0ff00
0ff0ff00
0ff0ff00
0ff0ff00
00fff000
00fff000
00fff000
00fff000
00000000
00000000
00000000
00000000
fffffff0
fffffff0
fffffff0
fffffff0
0000ff00
0000ff00
0000ff00
0000ff00
000ff000
000ff000
000ff000
000ff000
00ff0000
00ff0000
00ff0000
00ff0000
0ff00000
0ff00000
0ff00000
0ff00000
fffffff0
fffffff0
fffffff0
fffffff0
00000000
00000000
00000000
00000000
00000000
00000000
00000000
00000000
ENDCHAR
STARTCHAR longs
ENCODING 383
SWIDTH 568 0
DWIDTH 32 0
BBX 32 52 0 -8
BITMAP
00000000
00000000
00000000
00000000
00ffff00
00ffff00
00ffff00
00ffff00
0ff00ff0
0ff00ff0
0ff00ff0
0ff00ff0
0ff00000
0ff00000
0ff00000
0ff00000
0ff00000
0ff00000
0ff00000
0ff00000
fff00000
fff00000
fff00000
fff00000
0ff00000
0ff00000
0ff00000
0ff00000
0ff00000
0ff00000
0ff00000
0ff00000
0ff00000
0ff00000
0ff00000
0ff00000
0ff00000
0ff00000
0ff00000
0ff00000
0ff00000
0ff00000
0ff00000
0ff00000
00000000
00000000
00000000
00000000
00000000
00000000
00000000
00000000
ENDCHAR
STARTCHAR uni0180
ENCODING 384
SWIDTH 568 0
DWIDTH 32 0
BBX 32 52 0 -8
BITMAP
00000000
00000000
00000000
00000000
0ff00000
0ff00000
0ff00000
0ff00000
ffff0000
ffff0000
ffff0000
ffff0000
0ff00000
0ff00000
0ff00000
0ff00000
0ff0ff00
0ff0ff00
0ff0ff00
0ff0ff00
0fff0ff0
0fff0ff0
0fff0ff0
0fff0ff0
0ff00ff0
0ff00ff0
0ff00ff0
0ff00ff0
0ff00ff0
0ff00ff0
0ff00ff0
0ff00ff0
0ff00ff0
0ff00ff0
0ff00ff0
0ff00ff0
0ff0ff00
0ff0ff00
0ff0ff00
0ff0ff00
00fff000
00fff000
00fff000
00fff000
00000000
00000000
00000000
00000000
00000000
00000000
00000000
00000000
ENDCHAR
STARTCHAR uni0181
ENCODING 385
SWIDTH 568 0
DWIDTH 32 0
BBX 32 52 0 -8
BITMAP
00000000
00000000
00000000
00000000
ffffff00
ffffff00
ffffff00
ffffff00
f0ff0ff0
f0ff0ff0
f0ff0ff0
f0ff0ff0
f0ff0ff0
f0ff0ff0
f0ff0ff0
f0ff0ff0
00ff0ff0
00ff0ff0
00ff0ff0
00ff0ff0
00ffff00
00ffff00
00ffff00
00ffff00
00ff0ff0
00ff0ff0
00ff0ff0
00ff0ff0
00ff0ff0
00ff0ff0
00ff0ff0
00ff0ff0
00ff0ff0
00ff0ff0
00ff0ff0
00ff0ff0
00ff0ff0
00ff0ff0
00ff0ff0
00ff0ff0
0fffff00
0fffff00
0fffff00
0fffff00
00000000
00000000
00000000
00000000
00000000
00000000
00000000
00000000
ENDCHAR
STARTCHAR uni0182
ENCODING 386
SWIDTH 568 0
DWIDTH 32 0
BBX 32 52 0 -8
BITMAP
00000000
00000000
00000000
00000000
ffffff00
ffffff00
ffffff00
ffffff00
ff000000
ff000000
ff000000
ff000000
ff000000
ff000000
ff000000
ff000000
ff000000
ff000000
ff000000
ff000000
ffffff00
ffffff00
ffffff00
ffffff00
ff000ff0
ff000ff0
ff000ff0
ff000ff0
ff000ff0
ff000ff0
ff000ff0
ff000ff0
ff000ff0
ff000ff0
ff000ff0
ff000ff0
ff000ff0
ff000ff0
ff000ff0
ff000ff0
ffffff00
ffffff00
ffffff00
ffffff00
00000000
00000000
00000000
00000000
00000000
00000000
00000000
00000000
ENDCHAR
STARTCHAR uni0183
ENCODING 387
SWIDTH 568 0
DWIDTH 32 0
BBX 32 52 0 -8
BITMAP
00000000
00000000
00000000
00000000
0fffff00
0fffff00
0fffff00
0fffff00
0ff00000
0ff00000
0ff00000
0ff00000
0ff00000
0ff00000
0ff00000
0ff00000
0ff0ff00
0ff0ff00
0ff0ff00
0ff0ff00
0fff0ff0
0fff0ff0
0fff0ff0
0fff0ff0
0ff00ff0
0ff00ff0
0ff00ff0
0ff00ff0
0ff00ff0
0ff00ff0
0ff00ff0
0ff00ff0
0ff00ff0
0ff00ff0
0ff00ff0
0ff00ff0
0ff0ff00
0ff0ff00
0ff0ff00
0ff0ff00
00fff000
00fff000
00fff000
00fff000
00000000
00000000
00000000
00000000
00000000
00000000
00000000
00000000
ENDCHAR
STARTCHAR uni0184
ENCODING 388
SWIDTH 568 0
DWIDTH 32 0
BBX 32 52 0 -8
BITMAP
00000000
00000000
00000000
00000000
0ff00000
0ff00000
0ff00000
0ff00000
fff00000
fff00000
fff00000
fff00000
fff00000
fff00000
fff00000
fff00000
0ff00000
0ff00000
0ff00000
0ff00000
0fffff00
0fffff00
0fffff00
0fffff00
0ff00ff0
0ff00ff0
0ff00ff0
0ff00ff0
0ff00ff0
0ff00ff0
0ff00ff0
0ff00ff0
0ff00ff0
0ff00ff0
0ff00ff0
0ff00ff0
0ff00ff0
0ff00ff0
0ff00ff0
0ff00ff0
0fffff00
0fffff00
0fffff00
0fffff00
00000000
00000000
00000000
00000000
00000000
00000000
00000000
00000000
ENDCHAR
STARTCHAR uni0185
ENCODING 389
SWIDTH 568 0
DWIDTH 32 0
BBX 32 52 0 -8
BITMAP
00000000
00000000
00000000
00000000
0ff00000
0ff00000
0ff00000
0ff00000
fff00000
fff00000
fff00000
fff00000
fff00000
fff00000
fff00000
fff00000
0ff0ff00
0ff0ff00
0ff0ff00
0ff0ff00
0fff0ff0
0fff0ff0
0fff0ff0
0fff0ff0
0ff00ff0
0ff00ff0
0ff00ff0
0ff00ff0
0ff00ff0
0ff00ff0
0ff00ff0
0ff00ff0
0ff00ff0
0ff00ff0
0ff00ff0
0ff00ff0
0ff0ff00
0ff0ff00
0ff0ff00
0ff0ff00
00fff000
00fff000
00fff000
00fff000
00000000
00000000
00000000
00000000
00000000
00000000
00000000
00000000
ENDCHAR
STARTCHAR uni0186
ENCODING 390
SWIDTH 568 0
DWIDTH 32 0
BBX 32 52 0 -8
BITMAP
00000000
00000000
00000000
00000000
0fffff00
0fffff00
0fffff00
0fffff00
ff00fff0
ff00fff0
ff00fff0
ff00fff0
ff000ff0
ff000ff0
ff000ff0
ff000ff0
00000ff0
00000ff0
00000ff0
00000ff0
00000ff0
00000ff0
00000ff0
00000ff0
00000ff0
00000ff0
00000ff0
00000ff0
00000ff0
00000ff0
00000ff0
00000ff0
ff000ff0
ff000ff0
ff000ff0
ff000ff0
ff00fff0
ff00fff0
ff00fff0
ff00fff0
0fffff00
0fffff00
0fffff00
0fffff00
00000000
00000000
00000000
00000000
00000000
00000000
00000000
00000000
ENDCHAR
STARTCHAR uni0187
ENCODING 391
SWIDTH 568 0
DWIDTH 32 0
BBX 32 52 0 -8
BITMAP
0000000f
0000000f
0000000f
0000000f
0fffff0f
0fffff0f
0fffff0f
0fffff0f
fff00ff0
fff00ff0
fff00ff0
fff00ff0
ff000ff0
ff000ff0
ff000ff0
ff000ff0
ff000000
ff000000
ff000000
ff000000
ff000000
ff000000
ff000000
ff000000
ff000000
ff000000
ff000000
ff000000
ff000000
ff000000
ff000000
ff000000
ff000ff0
ff000ff0
ff000ff0
ff000ff0
fff00ff0
fff00ff0
fff00ff0
fff00ff0
0fffff00
0fffff00
0fffff00
0fffff00
00000000
00000000
00000000
00000000
00000000
00000000
00000000
00000000
ENDCHAR
STARTCHAR uni0188
ENCODING 392
SWIDTH 568 0
DWIDTH 32 0
BBX 32 52 0 -8
BITMAP
00000000
00000000
00000000
00000000
00000000
00000000
00000000
00000000
00000000
00000000
00000000
00000000
0000000f
0000000f
0000000f
0000000f
0fffff0f
0fffff0f
0fffff0f
0fffff0f
fff00ff0
fff00ff0
fff00ff0
fff00ff0
ff000000
ff000000
ff000000
ff000000
ff000000
ff000000
ff000000
ff000000
ff000000
ff000000
ff000000
ff000000
fff00ff0
fff00ff0
fff00ff0
fff00ff0
0fffff00
0fffff00
0fffff00
0fffff00
00000000
00000000
00000000
00000000
00000000
00000000
00000000
00000000
ENDCHAR
STARTCHAR uni0189
ENCODING 393
SWIDTH 568 0
DWIDTH 32 0
BBX 32 52 0 -8
BITMAP
00000000
00000000
00000000
00000000
ffffff00
ffffff00
ffffff00
ffffff00
0ff00ff0
0ff00ff0
0ff00ff0
0ff00ff0
0ff00ff0
0ff00ff0
0ff00ff0
0ff00ff0
0ff00ff0
0ff00ff0
0ff00ff0
0ff00ff0
ffff0ff0
ffff0ff0
ffff0ff0
ffff0ff0
0ff00ff0
0ff00ff0
0ff00ff0
0ff00ff0
0ff00ff0
0ff00ff0
0ff00ff0
0ff00ff0
0ff00ff0
0ff00ff0
0ff00ff0
0ff00ff0
0ff00ff0
0ff00ff0
0ff00ff0
0ff00ff0
ffffff00
ffffff00
ffffff00
ffffff00
00000000
00000000
00000000
00000000
00000000
00000000
00000000
00000000
ENDCHAR
STARTCHAR uni018A
ENCODING 394
SWIDTH 568 0
DWIDTH 32 0
BBX 32 52 0 -8
BITMAP
00000000
00000000
00000000
00000000
ffffff00
ffffff00
ffffff00
ffffff00
f0ff0ff0
f0ff0ff0
f0ff0ff0
f0ff0ff0
f0ff0ff0
f0ff0ff0
f0ff0ff0
f0ff0ff0
00ff0ff0
00ff0ff0
00ff0ff0
00ff0ff0
00ff0ff0
00ff0ff0
00ff0ff0
00ff0ff0
00ff0ff0
00ff0ff0
00ff0ff0
00ff0ff0
00ff0ff0
00ff0ff0
00ff0ff0
00ff0ff0
00ff0ff0
00ff0ff0
00ff0ff0
00ff0ff0
00ff0ff0
00ff0ff0
00ff0ff0
00ff0ff0
0fffff00
0fffff00
0fffff00
0fffff00
00000000
00000000
00000000
00000000
00000000
00000000
00000000
00000000
ENDCHAR
STARTCHAR uni018B
ENCODING 395
SWIDTH 568 0
DWIDTH 32 0
BBX 32 52 0 -8
BITMAP
00000000
00000000
00000000
00000000
0ffffff0
0ffffff0
0ffffff0
0ffffff0
00000ff0
00000ff0
00000ff0
00000ff0
00000ff0
00000ff0
00000ff0
00000ff0
00000ff0
00000ff0
00000ff0
00000ff0
0ffffff0
0ffffff0
0ffffff0
0ffffff0
ff000ff0
ff000ff0
ff000ff0
ff000ff0
ff000ff0
ff000ff0
ff000ff0
ff000ff0
ff000ff0
ff000ff0
ff000ff0
ff000ff0
ff000ff0
ff000ff0
ff000ff0
ff000ff0
0ffffff0
0ffffff0
0ffffff0
0ffffff0
00000000
00000000
00000000
00000000
00000000
00000000
00000000
00000000
ENDCHAR
STARTCHAR uni018C
ENCODING 396
SWIDTH 568 0
DWIDTH 32 0
BBX 32 52 0 -8
BITMAP
00000000
00000000
00000000
00000000
00fffff0
00fffff0
00fffff0
00fffff0
00000ff0
00000ff0
00000ff0
00000ff0
00000ff0
00000ff0
00000ff0
00000ff0
00ff0ff0
00ff0ff0
00ff0ff0
00ff0ff0
0ff0fff0
0ff0fff0
0ff0fff0
0ff0fff0
0ff00ff0
0ff00ff0
0ff00ff0
0ff00ff0
0ff00ff0
0ff00ff0
0ff00ff0
0ff00ff0
0ff00ff0
0ff00ff0
0ff00ff0
0ff00ff0
00ff0ff0
00ff0ff0
00ff0ff0
00ff0ff0
000fff00
000fff00
000fff00
000fff00
00000000
00000000
00000000
00000000
00000000
00000000
00000000
00000000
ENDCHAR
STARTCHAR uni018D
ENCODING 397
SWIDTH 568 0
DWIDTH 32 0
BBX 32 52 0 -8
BITMAP
00000000
00000000
00000000
00000000
00000000
00000000
00000000
00000000
00000000
00000000
00000000
00000000
00000000
00000000
00000000
00000000
0fffff00
0fffff00
0fffff00
0fffff00
ff000ff0
ff000ff0
ff000ff0
ff000ff0
ff000ff0
ff000ff0
ff000ff0
ff000ff0
ff000ff0
ff000ff0
ff000ff0
ff000ff0
ff000ff0
ff000ff0
ff000ff0
ff000ff0
ff000ff0
ff000ff0
ff000ff0
ff000ff0
0fffff00
0fffff00
0fffff00
0fffff00
000ff000
000ff000
000ff000
000ff000
0fff0000
0fff0000
0fff0000
0fff0000
ENDCHAR
STARTCHAR uni018E
ENCODING 398
SWIDTH 568 0
DWIDTH 32 0
BBX 32 52 0 -8
BITMAP
00000000
00000000
00000000
00000000
fffffff0
fffffff0
fffffff0
fffffff0
00000ff0
00000ff0
00000ff0
00000ff0
00000ff0
00000ff0
00000ff0
00000ff0
00000ff0
00000ff0
00000ff0
00000ff0
00fffff0
00fffff0
00fffff0
00fffff0
00000ff0
00000ff0
00000ff0
00000ff0
00000ff0
00000ff0
00000ff0
00000ff0
00000ff0
00000ff0
00000ff0
00000ff0
00000ff0
00000ff0
00000ff0
00000ff0
fffffff0
fffffff0
fffffff0
fffffff0
00000000
00000000
00000000
00000000
00000000
00000000
00000000
00000000
ENDCHAR
STARTCHAR uni018F
ENCODING 399
SWIDTH 568 0
DWIDTH 32 0
BBX 32 52 0 -8
BITMAP
00000000
00000000
00000000
00000000
00000000
00000000
00000000
00000000
0fffff00
0fffff00
0fffff00
0fffff00
ff000ff0
ff000ff0
ff000ff0
ff000ff0
00000ff0
00000ff0
00000ff0
00000ff0
00000ff0
00000ff0
00000ff0
00000ff0
fffffff0
fffffff0
fffffff0
fffffff0
ff000ff0
ff000ff0
ff000ff0
ff000ff0
ff000ff0
ff000ff0
ff000ff0
ff000ff0
ff000ff0
ff000ff0
ff000ff0
ff000ff0
0fffff00
0fffff00
0fffff00
0fffff00
00000000
00000000
00000000
00000000
00000000
00000000
00000000
00000000
ENDCHAR
STARTCHAR uni0190
ENCODING 400
SWIDTH 568 0
DWIDTH 32 0
BBX 32 52 0 -8
BITMAP
00000000
00000000
00000000
00000000
0fffff00
0fffff00
0fffff00
0fffff00
ff000ff0
ff000ff0
ff000ff0
ff000ff0
ff000000
ff000000
ff000000
ff000000
0ff00000
0ff00000
0ff00000
0ff00000
00ff0000
00ff0000
00ff0000
00ff0000
0ff00000
0ff00000
0ff00000
0ff00000
ff000000
ff000000
ff000000
ff000000
ff000000
ff000000
ff000000
ff000000
ff000ff0
ff000ff0
ff000ff0
ff000ff0
0fffff00
0fffff00
0fffff00
0fffff00
00000000
00000000
00000000
00000000
00000000
00000000
00000000
00000000
ENDCHAR
STARTCHAR uni0191
ENCODING 401
SWIDTH 568 0
DWIDTH 32 0
BBX 32 52 0 -8
BITMAP
00000000
00000000
00000000
00000000
00ffffff
00ffffff
00ffffff
00ffffff
00ff0000
00ff0000
00ff0000
00ff0000
00ff0000
00ff0000
00ff0000
00ff0000
00ff0000
00ff0000
00ff0000
00ff0000
00ffff00
00ffff00
00ffff00
00ffff00
00ff0000
00ff0000
00ff0000
00ff0000
00ff0000
00ff0000
00ff0000
00ff0000
00ff0000
00ff0000
00ff0000
00ff0000
00ff0000
00ff0000
00ff0000
00ff0000
00ff0000
00ff0000
00ff0000
00ff0000
f0ff0000
f0ff0000
f0ff0000
f0ff0000
0ff00000
0ff00000
0ff00000
0ff00000
ENDCHAR
STARTCHAR florin
ENCODING 402
SWIDTH 568 0
DWIDTH 32 0
BBX 32 52 0 -8
BITMAP
00000000
00000000
00000000
00000000
00000000
00000000
00000000
00000000
0000fff0
0000fff0
0000fff0
0000fff0
000ff0ff
000ff0ff
000ff0ff
000ff0ff
000ff000
000ff000
000ff000
000ff000
000ff000
000ff000
000ff000
000ff000
0ffffff0
0ffffff0
0ffffff0
0ffffff0
000ff000
000ff000
000ff000
000ff000
000ff000
000ff000
000ff000
000ff000
000ff000
000ff000
000ff000
000ff000
000ff000
000ff000
000ff000
000ff000
ff0ff000
ff0ff000
ff0ff000
ff0ff000
0fff0000
0fff0000
0fff0000
0fff0000
ENDCHAR
STARTCHAR uni0193
ENCODING 403
SWIDTH 568 0
DWIDTH 32 0
BBX 32 52 0 -8
BITMAP
0000000f
0000000f
0000000f
0000000f
0fffff0f
0fffff0f
0fffff0f
0fffff0f
ff000ff0
ff000ff0
ff000ff0
ff000ff0
ff000ff0
ff000ff0
ff000ff0
ff000ff0
ff000000
ff000000
ff000000
ff000000
ff000000
ff000000
ff000000
ff000000
ff000000
ff000000
ff000000
ff000000
ff00fff0
ff00fff0
ff00fff0
ff00fff0
ff000ff0
ff000ff0
ff000ff0
ff000ff0
ff000ff0
ff000ff0
ff000ff0
ff000ff0
0fffff00
0fffff00
0fffff00
0fffff00
00000000
00000000
00000000
00000000
00000000
00000000
00000000
00000000
ENDCHAR
STARTCHAR uni0194
ENCODING 404
SWIDTH 568 0
DWIDTH 32 0
BBX 32 52 0 -8
BITMAP
00000000
00000000
00000000
00000000
ff000ff0
ff000ff0
ff000ff0
ff000ff0
ff000ff0
ff000ff0
ff000ff0
ff000ff0
ff000ff0
ff000ff0
ff000ff0
ff000ff0
ff000ff0
ff000ff0
ff000ff0
ff000ff0
0ff0ff00
0ff0ff00
0ff0ff00
0ff0ff00
0ff0ff00
0ff0ff00
0ff0ff00
0ff0ff00
00fff000
00fff000
00fff000
00fff000
0ff0ff00
0ff0ff00
0ff0ff00
0ff0ff00
0ff0ff00
0ff0ff00
0ff0ff00
0ff0ff00
00fff000
00fff000
00fff000
00fff000
00000000
00000000
00000000
00000000
00000000
00000000
00000000
00000000
ENDCHAR
STARTCHAR uni0195
ENCODING 405
SWIDTH 568 0
DWIDTH 32 0
BBX 32 52 0 -8
BITMAP
00000000
00000000
00000000
00000000
ff000000
ff000000
ff000000
ff000000
ff000000
ff000000
ff000000
ff000000
ff000000
ff000000
ff000000
ff000000
ffff00f0
ffff00f0
ffff00f0
ffff00f0
ff0ff0f0
ff0ff0f0
ff0ff0f0
ff0ff0f0
ff0ff0f0
ff0ff0f0
ff0ff0f0
ff0ff0f0
ff0ff0f0
ff0ff0f0
ff0ff0f0
ff0ff0f0
ff0ff0f0
ff0ff0f0
ff0ff0f0
ff0ff0f0
ff0ff0f0
ff0ff0f0
ff0ff0f0
ff0ff0f0
ff00ff00
ff00ff00
ff00ff00
ff00ff00
00000000
00000000
00000000
00000000
00000000
00000000
00000000
00000000
ENDCHAR
STARTCHAR uni0196
ENCODING 406
SWIDTH 568 0
DWIDTH 32 0
BBX 32 52 0 -8
BITMAP
00000000
00000000
00000000
00000000
00fff000
00fff000
00fff000
00fff000
000ff000
000ff000
000ff000
000ff000
000ff000
000ff000
000ff000
000ff000
000ff000
000ff000
000ff000
000ff000
000ff000
000ff000
000ff000
000ff000
000ff000
000ff000
000ff000
000ff000
000ff000
000ff000
000ff000
000ff000
000ff000
000ff000
000ff000
000ff000
000ff0f0
000ff0f0
000ff0f0
000ff0f0
0000ff00
0000ff00
0000ff00
0000ff00
00000000
00000000
00000000
00000000
00000000
00000000
00000000
00000000
ENDCHAR
STARTCHAR uni0197
ENCODING 407
SWIDTH 568 0
DWIDTH 32 0
BBX 32 52 0 -8
BITMAP
00000000
00000000
00000000
00000000
00ffff00
00ffff00
00ffff00
00ffff00
000ff000
000ff000
000ff000
000ff000
000ff000
000ff000
000ff000
000ff000
000ff000
000ff000
000ff000
000ff000
0ffffff0
0ffffff0
0ffffff0
0ffffff0
000ff000
000ff000
000ff000
000ff000
000ff000
000ff000
000ff000
000ff000
000ff000
000ff000
000ff000
000ff000
000ff000
000ff000
000ff000
000ff000
00ffff00
00ffff00
00ffff00
00ffff00
00000000
00000000
00000000
00000000
00000000
00000000
00000000
00000000
ENDCHAR
STARTCHAR uni0198
ENCODING 408
SWIDTH 568 0
DWIDTH 32 0
BBX 32 52 0 -8
BITMAP
00000000
00000000
00000000
00000000
ff00ff00
ff00ff00
ff00ff00
ff00ff00
ff00f0f0
ff00f0f0
ff00f0f0
ff00f0f0
ff0ff0f0
ff0ff0f0
ff0ff0f0
ff0ff0f0
ffff0000
ffff0000
ffff0000
ffff0000
fff00000
fff00000
fff00000
fff00000
ffff0000
ffff0000
ffff0000
ffff0000
ff0ff000
ff0ff000
ff0ff000
ff0ff000
ff00ff00
ff00ff00
ff00ff00
ff00ff00
ff000ff0
ff000ff0
ff000ff0
ff000ff0
ff000ff0
ff000ff0
ff000ff0
ff000ff0
00000000
00000000
00000000
00000000
00000000
00000000
00000000
00000000
ENDCHAR
STARTCHAR uni0199
ENCODING 409
SWIDTH 568 0
DWIDTH 32 0
BBX 32 52 0 -8
BITMAP
00000000
00000000
00000000
00000000
0fff0000
0fff0000
0fff0000
0fff0000
ff00f000
ff00f000
ff00f000
ff00f000
ff000000
ff000000
ff000000
ff000000
ff00ff00
ff00ff00
ff00ff00
ff00ff00
ff0ff000
ff0ff000
ff0ff000
ff0ff000
ffff0000
ffff0000
ffff0000
ffff0000
ffff0000
ffff0000
ffff0000
ffff0000
ff0ff000
ff0ff000
ff0ff000
ff0ff000
ff00ff00
ff00ff00
ff00ff00
ff00ff00
ff000ff0
ff000ff0
ff000ff0
ff000ff0
00000000
00000000
00000000
00000000
00000000
00000000
00000000
00000000
ENDCHAR
STARTCHAR uni019A
ENCODING 410
SWIDTH 568 0
DWIDTH 32 0
BBX 32 52 0 -8
BITMAP
00000000
00000000
00000000
00000000
00fff000
00fff000
00fff000
00fff000
000ff000
000ff000
000ff000
000ff000
000ff000
000ff000
000ff000
000ff000
000ff000
000ff000
000ff000
000ff000
0ffffff0
0ffffff0
0ffffff0
0ffffff0
000ff000
000ff000
000ff000
000ff000
000ff000
000ff000
000ff000
000ff000
000ff000
000ff000
000ff000
000ff000
000ff000
000ff000
000ff000
000ff000
0ffffff0
0ffffff0
0ffffff0
0ffffff0
00000000
00000000
00000000
00000000
00000000
00000000
00000000
00000000
ENDCHAR
STARTCHAR uni019B
ENCODING 411
SWIDTH 568 0
DWIDTH 32 0
BBX 32 52 0 -8
BITMAP
00000000
00000000
00000000
00000000
ff0ff000
ff0ff000
ff0ff000
ff0ff000
0fff0000
0fff0000
0fff0000
0fff0000
ffff0000
ffff0000
ffff0000
ffff0000
f00ff000
f00ff000
f00ff000
f00ff000
00fff000
00fff000
00fff000
00fff000
0ff0ff00
0ff0ff00
0ff0ff00
0ff0ff00
0ff0ff00
0ff0ff00
0ff0ff00
0ff0ff00
ff000ff0
ff000ff0
ff000ff0
ff000ff0
ff000ff0
ff000ff0
ff000ff0
ff000ff0
ff000ff0
ff000ff0
ff000ff0
ff000ff0
00000000
00000000
00000000
00000000
00000000
00000000
00000000
00000000
ENDCHAR
STARTCHAR uni019C
ENCODING 412
SWIDTH 568 0
DWIDTH 32 0
BBX 32 52 0 -8
BITMAP
00000000
00000000
00000000
00000000
ff000ff0
ff000ff0
ff000ff0
ff000ff0
ff000ff0
ff000ff0
ff000ff0
ff000ff0
ff000ff0
ff000ff0
ff000ff0
ff000ff0
ff0f0ff0
ff0f0ff0
ff0f0ff0
ff0f0ff0
ff0f0ff0
ff0f0ff0
ff0f0ff0
ff0f0ff0
ff0f0ff0
ff0f0ff0
ff0f0ff0
ff0f0ff0
ff0f0ff0
ff0f0ff0
ff0f0ff0
ff0f0ff0
ff0f0ff0
ff0f0ff0
ff0f0ff0
ff0f0ff0
fffffff0
fffffff0
fffffff0
fffffff0
0ff0f0ff
0ff0f0ff
0ff0f0ff
0ff0f0ff
00000000
00000000
00000000
00000000
00000000
00000000
00000000
00000000
ENDCHAR
STARTCHAR uni019D
ENCODING 413
SWIDTH 568 0
DWIDTH 32 0
BBX 32 52 0 -8
BITMAP
00000000
00000000
00000000
00000000
0ff00ff0
0ff00ff0
0ff00ff0
0ff00ff0
0ff00ff0
0ff00ff0
0ff00ff0
0ff00ff0
0ff00ff0
0ff00ff0
0ff00ff0
0ff00ff0
0fff0ff0
0fff0ff0
0fff0ff0
0fff0ff0
0fff0ff0
0fff0ff0
0fff0ff0
0fff0ff0
0ffffff0
0ffffff0
0ffffff0
0ffffff0
0ff0fff0
0ff0fff0
0ff0fff0
0ff0fff0
0ff00ff0
0ff00ff0
0ff00ff0
0ff00ff0
0ff00ff0
0ff00ff0
0ff00ff0
0ff00ff0
0ff00ff0
0ff00ff0
0ff00ff0
0ff00ff0
0ff00000
0ff00000
0ff00000
0ff00000
ff000000
ff000000
ff000000
ff000000
ENDCHAR
STARTCHAR uni019E
ENCODING 414
SWIDTH 568 0
DWIDTH 32 0
BBX 32 52 0 -8
BITMAP
00000000
00000000
00000000
00000000
00000000
00000000
00000000
00000000
00000000
00000000
00000000
00000000
00000000
00000000
00000000
00000000
ff0fff00
ff0fff00
ff0fff00
ff0fff00
fff00ff0
fff00ff0
fff00ff0
fff00ff0
ff000ff0
ff000ff0
ff000ff0
ff000ff0
ff000ff0
ff000ff0
ff000ff0
ff000ff0
ff000ff0
ff000ff0
ff000ff0
ff000ff0
ff000ff0
ff000ff0
ff000ff0
ff000ff0
ff000ff0
ff000ff0
ff000ff0
ff000ff0
00000ff0
00000ff0
00000ff0
00000ff0
00000ff0
00000ff0
00000ff0
00000ff0
ENDCHAR
STARTCHAR uni019F
ENCODING 415
SWIDTH 568 0
DWIDTH 32 0
BBX 32 52 0 -8
BITMAP
00000000
00000000
00000000
00000000
0fffff00
0fffff00
0fffff00
0fffff00
ff000ff0
ff000ff0
ff000ff0
ff000ff0
ff000ff0
ff000ff0
ff000ff0
ff000ff0
ff000ff0
ff000ff0
ff000ff0
ff000ff0
fffffff0
fffffff0
fffffff0
fffffff0
ff000ff0
ff000ff0
ff000ff0
ff000ff0
ff000ff0
ff000ff0
ff000ff0
ff000ff0
ff000ff0
ff000ff0
ff000ff0
ff000ff0
ff000ff0
ff000ff0
ff000ff0
ff000ff0
0fffff00
0fffff00
0fffff00
0fffff00
00000000
00000000
00000000
00000000
00000000
00000000
00000000
00000000
ENDCHAR
STARTCHAR Ohorn
ENCODING 416
SWIDTH 568 0
DWIDTH 32 0
BBX 32 52 0 -8
BITMAP
00000000
00000000
00000000
00000000
0ffff00f
0ffff00f
0ffff00f
0ffff00f
ff00ff0f
ff00ff0f
ff00ff0f
ff00ff0f
ff00fff0
ff00fff0
ff00fff0
ff00fff0
ff00ff00
ff00ff00
ff00ff00
ff00ff00
ff00ff00
ff00ff00
ff00ff00
ff00ff00
ff00ff00
ff00ff00
ff00ff00
ff00ff00
ff00ff00
ff00ff00
ff00ff00
ff00ff00
ff00ff00
ff00ff00
ff00ff00
ff00ff00
ff00ff00
ff00ff00
ff00ff00
ff00ff00
0ffff000
0ffff000
0ffff000
0ffff000
00000000
00000000
00000000
00000000
00000000
00000000
00000000
00000000
ENDCHAR
STARTCHAR ohorn
ENCODING 417
SWIDTH 568 0
DWIDTH 32 0
BBX 32 52 0 -8
BITMAP
00000000
00000000
00000000
00000000
00000000
00000000
00000000
00000000
00000000
00000000
00000000
00000000
00000000
00000000
00000000
00000000
0ffff00f
0ffff00f
0ffff00f
0ffff00f
ff00ff0f
ff00ff0f
ff00ff0f
ff00ff0f
ff00fff0
ff00fff0
ff00fff0
ff00fff0
ff00ff00
ff00ff00
ff00ff00
ff00ff00
ff00ff00
ff00ff00
ff00ff00
ff00ff00
ff00ff00
ff00ff00
ff00ff00
ff00ff00
0ffff000
0ffff000
0ffff000
0ffff000
00000000
00000000
00000000
00000000
00000000
00000000
00000000
00000000
ENDCHAR
STARTCHAR uni01A2
ENCODING 418
SWIDTH 568 0
DWIDTH 32 0
BBX 32 52 0 -8
BITMAP
00000000
00000000
00000000
00000000
0fff0f00
0fff0f00
0fff0f00
0fff0f00
ff0ff0f0
ff0ff0f0
ff0ff0f0
ff0ff0f0
ff0ff0f0
ff0ff0f0
ff0ff0f0
ff0ff0f0
ff0ff0f0
ff0ff0f0
ff0ff0f0
ff0ff0f0
ff0ff0f0
ff0ff0f0
ff0ff0f0
ff0ff0f0
ff0ff0f0
ff0ff0f0
ff0ff0f0
ff0ff0f0
ff0ff0f0
ff0ff0f0
ff0ff0f0
ff0ff0f0
ff0ff0f0
ff0ff0f0
ff0ff0f0
ff0ff0f0
ff0ff0f0
ff0ff0f0
ff0ff0f0
ff0ff0f0
0fff00f0
0fff00f0
0fff00f0
0fff00f0
000000f0
000000f0
000000f0
000000f0
000000f0
000000f0
000000f0
000000f0
ENDCHAR
STARTCHAR uni01A3
ENCODING 419
SWIDTH 568 0
DWIDTH 32 0
BBX 32 52 0 -8
BITMAP
00000000
00000000
00000000
00000000
00000000
00000000
00000000
00000000
00000000
00000000
00000000
00000000
00000000
00000000
00000000
00000000
0fff0f00
0fff0f00
0fff0f00
0fff0f00
ff0ff0f0
ff0ff0f0
ff0ff0f0
ff0ff0f0
ff0ff0f0
ff0ff0f0
ff0ff0f0
ff0ff0f0
ff0ff0f0
ff0ff0f0
ff0ff0f0
ff0ff0f0
ff0ff0f0
ff0ff0f0
ff0ff0f0
ff0ff0f0
ff0ff0f0
ff0ff0f0
ff0ff0f0
ff0ff0f0
0fff00f0
0fff00f0
0fff00f0
0fff00f0
000000f0
000000f0
000000f0
000000f0
000000f0
000000f0
000000f0
000000f0
ENDCHAR
STARTCHAR uni01A4
ENCODING 420
SWIDTH 568 0
DWIDTH 32 0
BBX 32 52 0 -8
BITMAP
00000000
00000000
00000000
00000000
ffffff00
ffffff00
ffffff00
ffffff00
f0ff0ff0
f0ff0ff0
f0ff0ff0
f0ff0ff0
f0ff0ff0
f0ff0ff0
f0ff0ff0
f0ff0ff0
00ff0ff0
00ff0ff0
00ff0ff0
00ff0ff0
00ff0ff0
00ff0ff0
00ff0ff0
00ff0ff0
00ffff00
00ffff00
00ffff00
00ffff00
00ff0000
00ff0000
00ff0000
00ff0000
00ff0000
00ff0000
00ff0000
00ff0000
00ff0000
00ff0000
00ff0000
00ff0000
00ff0000
00ff0000
00ff0000
00ff0000
00000000
00000000
00000000
00000000
00000000
00000000
00000000
00000000
ENDCHAR
STARTCHAR uni01A5
ENCODING 421
SWIDTH 568 0
DWIDTH 32 0
BBX 32 52 0 -8
BITMAP
00000000
00000000
00000000
00000000
00000000
00000000
00000000
00000000
00000000
00000000
00000000
00000000
00000000
00000000
00000000
00000000
ff0ff00f
ff0ff00f
ff0ff00f
ff0ff00f
fff0ff0f
fff0ff0f
fff0ff0f
fff0ff0f
ff00fff0
ff00fff0
ff00fff0
ff00fff0
ff00ff00
ff00ff00
ff00ff00
ff00ff00
ff00ff00
ff00ff00
ff00ff00
ff00ff00
fff0ff00
fff0ff00
fff0ff00
fff0ff00
ff0ff000
ff0ff000
ff0ff000
ff0ff000
ff000000
ff000000
ff000000
ff000000
ff000000
ff000000
ff000000
ff000000
ENDCHAR
STARTCHAR uni01A6
ENCODING 422
SWIDTH 568 0
DWIDTH 32 0
BBX 32 52 0 -8
BITMAP
00000000
00000000
00000000
00000000
ff000000
ff000000
ff000000
ff000000
ff000000
ff000000
ff000000
ff000000
ffffff00
ffffff00
ffffff00
ffffff00
ff000ff0
ff000ff0
ff000ff0
ff000ff0
ff000ff0
ff000ff0
ff000ff0
ff000ff0
ff000ff0
ff000ff0
ff000ff0
ff000ff0
ffffff00
ffffff00
ffffff00
ffffff00
fffff000
fffff000
fffff000
fffff000
ff00ff00
ff00ff00
ff00ff00
ff00ff00
ff00ff00
ff00ff00
ff00ff00
ff00ff00
00000ff0
00000ff0
00000ff0
00000ff0
00000ff0
00000ff0
00000ff0
00000ff0
ENDCHAR
STARTCHAR uni01A7
ENCODING 423
SWIDTH 568 0
DWIDTH 32 0
BBX 32 52 0 -8
BITMAP
00000000
00000000
00000000
00000000
0fffff00
0fffff00
0fffff00
0fffff00
ff000ff0
ff000ff0
ff000ff0
ff000ff0
ff000ff0
ff000ff0
ff000ff0
ff000ff0
00000ff0
00000ff0
00000ff0
00000ff0
0fffff00
0fffff00
0fffff00
0fffff00
ff000000
ff000000
ff000000
ff000000
ff000000
ff000000
ff000000
ff000000
ff000ff0
ff000ff0
ff000ff0
ff000ff0
ff000ff0
ff000ff0
ff000ff0
ff000ff0
0fffff00
0fffff00
0fffff00
0fffff00
00000000
00000000
00000000
00000000
00000000
00000000
00000000
00000000
ENDCHAR
ENDFONT
